<?xml version="1.0" encoding="utf-8"?>
<!-- Generator: Adobe Illustrator 27.5.0, SVG Export Plug-In . SVG Version: 6.00 Build 0)  -->
<svg version="1.1" xmlns="http://www.w3.org/2000/svg" xmlns:xlink="http://www.w3.org/1999/xlink" x="0px" y="0px"
	 viewBox="0 0 500 500" style="enable-background:new 0 0 500 500;" xml:space="preserve">
<g id="Background_complete">
	<g>
		<g>
			<g>
				<g>
					<g>
						<path style="fill:#E0E0E0;" d="M442.808,330.292H262.062c-3.232,0-5.862-2.63-5.862-5.862V61.156
							c0-3.232,2.63-5.862,5.862-5.862h180.746c3.232,0,5.862,2.629,5.862,5.862v263.273
							C448.671,327.662,446.041,330.292,442.808,330.292z M262.062,55.544c-3.095,0-5.612,2.518-5.612,5.612v263.273
							c0,3.095,2.518,5.612,5.612,5.612h180.746c3.095,0,5.612-2.517,5.612-5.612V61.156c0-3.094-2.518-5.612-5.612-5.612H262.062z"
							/>
					</g>
				</g>
				<g>
					<g>
						<path style="fill:#E0E0E0;" d="M234.38,330.292H53.634c-3.232,0-5.862-2.63-5.862-5.862V61.156
							c0-3.232,2.629-5.862,5.862-5.862H234.38c3.232,0,5.862,2.629,5.862,5.862v263.273
							C240.243,327.662,237.613,330.292,234.38,330.292z M53.634,55.544c-3.094,0-5.612,2.518-5.612,5.612v263.273
							c0,3.095,2.518,5.612,5.612,5.612H234.38c3.095,0,5.612-2.517,5.612-5.612V61.156c0-3.094-2.518-5.612-5.612-5.612H53.634z"/>
					</g>
				</g>
			</g>
			<g>
				<g>
					<rect x="-1.112" y="391.361" style="fill:#E0E0E0;" width="500" height="0.25"/>
				</g>
			</g>
		</g>
		<rect x="50.56" y="405.625" style="fill:#E0E0E0;" width="16.06" height="0.25"/>
		<rect x="169.24" y="402.915" style="fill:#E0E0E0;" width="53.53" height="0.25"/>
		<rect x="67.62" y="414.915" style="fill:#E0E0E0;" width="36.25" height="0.25"/>
		<rect x="377.24" y="402.785" style="fill:#E0E0E0;" width="43.19" height="0.25"/>
		<rect x="429.34" y="402.785" style="fill:#E0E0E0;" width="6.33" height="0.25"/>
		<rect x="315.1" y="409.016" style="fill:#E0E0E0;" width="53.89" height="0.25"/>
	</g>
	<g>
		<rect x="43.393" y="45.417" style="fill:#F5F5F5;" width="152.832" height="325.834"/>
		<g>
			<g>
				<path style="fill:#E0E0E0;" d="M91.921,45.755c0,42.415,0,84.83,0,127.245c0,42.198,0,84.397,0,126.596
					c0,23.804,0,47.609,0,71.413c0,0.483,0.75,0.483,0.75,0c0-42.415,0-84.83,0-127.245c0-42.198,0-84.397,0-126.596
					c0-23.804,0-47.609,0-71.413C92.671,45.272,91.921,45.271,91.921,45.755L91.921,45.755z"/>
			</g>
		</g>
		<g>
			<g>
				<path style="fill:#E0E0E0;" d="M146.63,45.941c0,42.534,0,85.067,0,127.601c0,42.317,0,84.633,0,126.95
					c0,23.871,0,47.742,0,71.613c0,0.483,0.75,0.483,0.75,0c0-42.534,0-85.067,0-127.601c0-42.317,0-84.633,0-126.95
					c0-23.871,0-47.742,0-71.613C147.38,45.459,146.63,45.458,146.63,45.941L146.63,45.941z"/>
			</g>
		</g>
		<g>
			<g>
				<path style="fill:#E0E0E0;" d="M44.116,87.532c19.641,0,39.281,0,58.922,0c19.557,0,39.115,0,58.672,0
					c11.069,0,22.137,0,33.206,0c0.483,0,0.483-0.75,0-0.75c-19.641,0-39.281,0-58.922,0c-19.557,0-39.115,0-58.672,0
					c-11.069,0-22.137,0-33.206,0C43.633,86.782,43.633,87.532,44.116,87.532L44.116,87.532z"/>
			</g>
		</g>
		<g>
			<g>
				<path style="fill:#E0E0E0;" d="M44.116,128.147c19.641,0,39.281,0,58.922,0c19.557,0,39.115,0,58.672,0
					c11.069,0,22.137,0,33.206,0c0.483,0,0.483-0.75,0-0.75c-19.641,0-39.281,0-58.922,0c-19.557,0-39.115,0-58.672,0
					c-11.069,0-22.137,0-33.206,0C43.633,127.397,43.633,128.147,44.116,128.147L44.116,128.147z"/>
			</g>
		</g>
		<g>
			<g>
				<path style="fill:#E0E0E0;" d="M44.116,168.762c19.641,0,39.281,0,58.922,0c19.557,0,39.115,0,58.672,0
					c11.069,0,22.137,0,33.206,0c0.483,0,0.483-0.75,0-0.75c-19.641,0-39.281,0-58.922,0c-19.557,0-39.115,0-58.672,0
					c-11.069,0-22.137,0-33.206,0C43.633,168.012,43.633,168.762,44.116,168.762L44.116,168.762z"/>
			</g>
		</g>
		<g>
			<g>
				<path style="fill:#E0E0E0;" d="M44.116,209.377c19.641,0,39.281,0,58.922,0c19.557,0,39.115,0,58.672,0
					c11.069,0,22.137,0,33.206,0c0.483,0,0.483-0.75,0-0.75c-19.641,0-39.281,0-58.922,0c-19.557,0-39.115,0-58.672,0
					c-11.069,0-22.137,0-33.206,0C43.633,208.627,43.633,209.377,44.116,209.377L44.116,209.377z"/>
			</g>
		</g>
		<g>
			<g>
				<path style="fill:#E0E0E0;" d="M44.116,249.991c19.641,0,39.281,0,58.922,0c19.557,0,39.115,0,58.672,0
					c11.069,0,22.137,0,33.206,0c0.483,0,0.483-0.75,0-0.75c-19.641,0-39.281,0-58.922,0c-19.557,0-39.115,0-58.672,0
					c-11.069,0-22.137,0-33.206,0C43.633,249.241,43.633,249.991,44.116,249.991L44.116,249.991z"/>
			</g>
		</g>
		<g>
			<g>
				<path style="fill:#E0E0E0;" d="M44.116,290.606c19.641,0,39.281,0,58.922,0c19.557,0,39.115,0,58.672,0
					c11.069,0,22.137,0,33.206,0c0.483,0,0.483-0.75,0-0.75c-19.641,0-39.281,0-58.922,0c-19.557,0-39.115,0-58.672,0
					c-11.069,0-22.137,0-33.206,0C43.633,289.856,43.633,290.606,44.116,290.606L44.116,290.606z"/>
			</g>
		</g>
		<g>
			<g>
				<path style="fill:#E0E0E0;" d="M44.116,331.221c19.641,0,39.281,0,58.922,0c19.557,0,39.115,0,58.672,0
					c11.069,0,22.137,0,33.206,0c0.483,0,0.483-0.75,0-0.75c-19.641,0-39.281,0-58.922,0c-19.557,0-39.115,0-58.672,0
					c-11.069,0-22.137,0-33.206,0C43.633,330.471,43.633,331.221,44.116,331.221L44.116,331.221z"/>
			</g>
		</g>
		<path style="fill:#E0E0E0;" d="M50.826,371.252L47.954,50.088c0,0,148.271,0.554,148.271-0.04c0-2.974,0-4.63,0-4.63H43.393
			v325.834H50.826z"/>
		<path style="opacity:0.3;fill:#FFFFFF;enable-background:new    ;" d="M196.225,45.417c0,0-56.773,58.179-65.257,58.532
			c-8.484,0.353-11.155-16.675-27.649-5.397c-16.494,11.279-59.926,60.188-59.926,60.188v26.291c0,0,59.659-74.214,69.375-70.941
			c9.716,3.273,10.675,21.002,24.459,10.95c13.783-10.052,58.999-49.237,58.999-49.237V45.417z"/>
		<path style="opacity:0.3;fill:#FFFFFF;enable-background:new    ;" d="M43.393,262.29c0,0,52.62-60.794,62.289-52.097
			c9.669,8.696,12.157,51.265,33.734,40.668c21.577-10.598,56.495-36.768,56.495-36.768v28.6c0,0-46.876,32.33-67.284,24.747
			c-20.408-7.584-21.455-36.095-28.42-31.932c-6.964,4.163-56.815,66.636-56.815,66.636V262.29z"/>
	</g>
	<g>
		<rect x="311.566" y="45.679" style="fill:#F5F5F5;" width="152.832" height="325.834"/>
		<g>
			<g>
				<path style="fill:#E0E0E0;" d="M360.093,46.016c0,42.415,0,84.83,0,127.245c0,42.199,0,84.397,0,126.596
					c0,23.804,0,47.609,0,71.413c0,0.483,0.75,0.483,0.75,0c0-42.415,0-84.83,0-127.245c0-42.199,0-84.397,0-126.596
					c0-23.804,0-47.609,0-71.413C360.843,45.534,360.093,45.533,360.093,46.016L360.093,46.016z"/>
			</g>
		</g>
		<g>
			<g>
				<path style="fill:#E0E0E0;" d="M414.802,46.203c0,42.534,0,85.067,0,127.601c0,42.317,0,84.633,0,126.95
					c0,23.871,0,47.742,0,71.613c0,0.483,0.75,0.483,0.75,0c0-42.534,0-85.067,0-127.601c0-42.317,0-84.633,0-126.95
					c0-23.871,0-47.742,0-71.613C415.552,45.721,414.802,45.72,414.802,46.203L414.802,46.203z"/>
			</g>
		</g>
		<g>
			<g>
				<path style="fill:#E0E0E0;" d="M312.289,87.794c19.641,0,39.281,0,58.922,0c19.557,0,39.115,0,58.673,0
					c11.069,0,22.137,0,33.206,0c0.483,0,0.483-0.75,0-0.75c-19.641,0-39.281,0-58.922,0c-19.557,0-39.115,0-58.673,0
					c-11.069,0-22.137,0-33.206,0C311.806,87.044,311.805,87.794,312.289,87.794L312.289,87.794z"/>
			</g>
		</g>
		<g>
			<g>
				<path style="fill:#E0E0E0;" d="M312.289,128.409c19.641,0,39.281,0,58.922,0c19.557,0,39.115,0,58.673,0
					c11.069,0,22.137,0,33.206,0c0.483,0,0.483-0.75,0-0.75c-19.641,0-39.281,0-58.922,0c-19.557,0-39.115,0-58.673,0
					c-11.069,0-22.137,0-33.206,0C311.806,127.659,311.805,128.409,312.289,128.409L312.289,128.409z"/>
			</g>
		</g>
		<g>
			<g>
				<path style="fill:#E0E0E0;" d="M312.289,169.024c19.641,0,39.281,0,58.922,0c19.557,0,39.115,0,58.673,0
					c11.069,0,22.137,0,33.206,0c0.483,0,0.483-0.75,0-0.75c-19.641,0-39.281,0-58.922,0c-19.557,0-39.115,0-58.673,0
					c-11.069,0-22.137,0-33.206,0C311.806,168.274,311.805,169.024,312.289,169.024L312.289,169.024z"/>
			</g>
		</g>
		<g>
			<g>
				<path style="fill:#E0E0E0;" d="M312.289,209.639c19.641,0,39.281,0,58.922,0c19.557,0,39.115,0,58.673,0
					c11.069,0,22.137,0,33.206,0c0.483,0,0.483-0.75,0-0.75c-19.641,0-39.281,0-58.922,0c-19.557,0-39.115,0-58.673,0
					c-11.069,0-22.137,0-33.206,0C311.806,208.889,311.805,209.639,312.289,209.639L312.289,209.639z"/>
			</g>
		</g>
		<g>
			<g>
				<path style="fill:#E0E0E0;" d="M312.289,250.253c19.641,0,39.281,0,58.922,0c19.557,0,39.115,0,58.673,0
					c11.069,0,22.137,0,33.206,0c0.483,0,0.483-0.75,0-0.75c-19.641,0-39.281,0-58.922,0c-19.557,0-39.115,0-58.673,0
					c-11.069,0-22.137,0-33.206,0C311.806,249.503,311.805,250.253,312.289,250.253L312.289,250.253z"/>
			</g>
		</g>
		<g>
			<g>
				<path style="fill:#E0E0E0;" d="M312.289,290.868c19.641,0,39.281,0,58.922,0c19.557,0,39.115,0,58.673,0
					c11.069,0,22.137,0,33.206,0c0.483,0,0.483-0.75,0-0.75c-19.641,0-39.281,0-58.922,0c-19.557,0-39.115,0-58.673,0
					c-11.069,0-22.137,0-33.206,0C311.806,290.118,311.805,290.868,312.289,290.868L312.289,290.868z"/>
			</g>
		</g>
		<g>
			<g>
				<path style="fill:#E0E0E0;" d="M312.289,331.483c19.641,0,39.281,0,58.922,0c19.557,0,39.115,0,58.673,0
					c11.069,0,22.137,0,33.206,0c0.483,0,0.483-0.75,0-0.75c-19.641,0-39.281,0-58.922,0c-19.557,0-39.115,0-58.673,0
					c-11.069,0-22.137,0-33.206,0C311.806,330.733,311.805,331.483,312.289,331.483L312.289,331.483z"/>
			</g>
		</g>
		<path style="fill:#E0E0E0;" d="M318.999,371.514l-2.872-321.164c0,0,148.271,0.554,148.271-0.04c0-2.974,0-4.63,0-4.63H311.566
			v325.834H318.999z"/>
		<path style="opacity:0.3;fill:#FFFFFF;enable-background:new    ;" d="M464.398,45.679c0,0-56.773,58.179-65.257,58.532
			c-8.484,0.353-11.155-16.675-27.649-5.396c-16.494,11.279-59.926,60.188-59.926,60.188v26.291c0,0,59.659-74.214,69.375-70.941
			c9.716,3.273,10.676,21.002,24.459,10.95c13.783-10.052,58.998-49.237,58.998-49.237V45.679z"/>
		<path style="opacity:0.3;fill:#FFFFFF;enable-background:new    ;" d="M311.566,262.552c0,0,52.62-60.794,62.289-52.097
			c9.669,8.696,12.157,51.265,33.734,40.668c21.577-10.598,56.495-36.768,56.495-36.768v28.6c0,0-46.876,32.33-67.284,24.747
			c-20.408-7.584-21.455-36.095-28.419-31.932c-6.965,4.163-56.815,66.636-56.815,66.636V262.552z"/>
	</g>
	<g>
		<g>
			<g>
				<rect x="230.937" y="45.425" style="fill:#E0E0E0;" width="60.836" height="114.69"/>
				<rect x="217.326" y="45.425" style="fill:#EBEBEB;" width="71.462" height="114.69"/>
				<rect x="228.188" y="55.612" style="fill:#FFFFFF;" width="49.704" height="94.315"/>
			</g>
		</g>
		<path style="fill:#E0E0E0;" d="M217.326,45.425c0.879,0,10.862,10.187,10.862,10.187h49.705l10.895-10.187H217.326z"/>
		<path style="fill:#E0E0E0;" d="M288.788,160.115c-0.879,0-10.862-10.187-10.862-10.187h-49.704l-10.896,10.187H288.788z"/>
		<rect x="245.184" y="80.174" style="fill:#E0E0E0;" width="17.689" height="46.105"/>
	</g>
</g>
<g id="Background_simple" style="display:none;">
	<path style="display:inline;fill:#407BFF;enable-background:new    ;" d="M262.085,148.777
		c51.096,1.951,121.736-59.758,176.555-11.552c46.198,40.639,27.83,114.468-23.376,124.032
		c-60.84,11.367-56.46-19.098-99.395-10.718c-42.935,8.38-47.421,26.561-120.765,56.364
		c-73.344,29.803-154.251-35.477-165.672-119.818C16.4,90.834,106.083,35.267,149.803,55.62
		C205.071,81.378,203.307,146.559,262.085,148.777z"/>
	<path style="display:inline;opacity:0.9;fill:#FFFFFF;enable-background:new    ;" d="M262.085,148.777
		c51.096,1.951,121.736-59.758,176.555-11.552c46.198,40.639,27.83,114.468-23.376,124.032
		c-60.84,11.367-56.46-19.098-99.395-10.718c-42.935,8.38-47.421,26.561-120.765,56.364
		c-73.344,29.803-154.251-35.477-165.672-119.818C16.4,90.834,106.083,35.267,149.803,55.62
		C205.071,81.378,203.307,146.559,262.085,148.777z"/>
</g>
<g id="Shadow">
	<g>
		<g>
			<path style="fill:#F5F5F5;" d="M458.875,458.166c0,10.23-93.517,18.522-208.875,18.522s-208.875-8.293-208.875-18.522
				c0-10.23,93.516-18.523,208.875-18.523S458.875,447.936,458.875,458.166z"/>
		</g>
	</g>
</g>
<g id="Chair">
	<g>
		<g>
			<rect x="259.681" y="375.673" style="fill:#263238;" width="10.384" height="73.319"/>
			<rect x="259.681" y="375.673" style="opacity:0.3;fill:#FFFFFF;" width="10.384" height="73.319"/>
		</g>
		<rect x="201.161" y="362.147" style="fill:#263238;" width="117.039" height="4.302"/>
		<g>
			<path style="fill:#263238;" d="M247.206,317.45H168.19v-3.139c0-3.116,2.526-5.641,5.641-5.641h73.374V317.45z"/>
			<g>
				<g>
					<path style="fill:#263238;" d="M191.178,316.32c2.966,14.687,5.932,29.374,8.898,44.061c0.287,1.418,2.456,0.818,2.17-0.598
						c-2.966-14.687-5.932-29.374-8.898-44.061C193.061,314.303,190.892,314.904,191.178,316.32L191.178,316.32z"/>
				</g>
			</g>
			<g>
				<g>
					<path style="fill:#263238;" d="M233.997,315.17c0,15.049,0,30.098,0,45.147c0,1.448,2.25,1.45,2.25,0
						c0-15.049,0-30.098,0-45.147C236.247,313.723,233.997,313.72,233.997,315.17L233.997,315.17z"/>
				</g>
			</g>
		</g>
		<g>
			<g>
				<path style="fill:#407BFF;" d="M233.994,360.972c-5.259-10.25-4.69-38.44,1.444-48.191l0,0
					c-5.259-10.25-6.787-26.003-0.653-35.754l0,0c-5.26-10.25-5.482-26.459,0.653-36.211l0,0c-3.588-6.992-4.836-17.653-3.32-26.818
					c1.083-6.544,6.79-11.317,13.423-11.317h61.407c7.517,0,13.61,6.093,13.61,13.61v140.77c0,2.798-2.288,5.055-5.086,5.017
					L233.994,360.972z"/>
			</g>
			<g style="opacity:0.4;enable-background:new    ;">
				<path d="M233.994,360.972c-5.259-10.25-4.69-38.44,1.444-48.191l0,0c-5.259-10.25-6.787-26.003-0.653-35.754l0,0
					c-5.26-10.25-5.482-26.459,0.653-36.211l0,0c-3.588-6.992-4.836-17.653-3.32-26.818c1.083-6.544,6.79-11.317,13.423-11.317
					h61.407c7.517,0,13.61,6.093,13.61,13.61v140.77c0,2.798-2.288,5.055-5.086,5.017L233.994,360.972z"/>
			</g>
		</g>
		<g>
			<path style="fill:#407BFF;" d="M222.095,345.786c-5.259-10.25-4.69-23.255,1.444-33.006l0,0
				c-5.26-10.25-6.787-26.003-0.653-35.754l0,0c-5.259-10.25-5.482-26.459,0.653-36.211l0,0c-3.588-6.992-4.836-17.653-3.32-26.818
				c1.082-6.544,6.79-11.317,13.423-11.317h61.407c7.516,0,13.61,6.093,13.61,13.61v129.526L222.095,345.786z"/>
		</g>
		<g style="opacity:0.3;">
			<g>
				<path d="M224.591,313.405c21.658,0,43.316,0,64.975,0c6.078,0,12.156,0,18.234,0c0.965,0,0.967-1.5,0-1.5
					c-21.658,0-43.316,0-64.975,0c-6.078,0-12.156,0-18.234,0C223.625,311.905,223.624,313.405,224.591,313.405L224.591,313.405z"/>
			</g>
		</g>
		<g style="opacity:0.3;">
			<g>
				<path d="M224.591,278.268c21.658,0,43.316,0,64.975,0c6.078,0,12.156,0,18.234,0c0.965,0,0.967-1.5,0-1.5
					c-21.658,0-43.316,0-64.975,0c-6.078,0-12.156,0-18.234,0C223.625,276.768,223.624,278.268,224.591,278.268L224.591,278.268z"/>
			</g>
		</g>
		<g style="opacity:0.3;">
			<g>
				<path d="M224.591,241.924c21.658,0,43.316,0,64.975,0c6.078,0,12.156,0,18.234,0c0.965,0,0.967-1.5,0-1.5
					c-21.658,0-43.316,0-64.975,0c-6.078,0-12.156,0-18.234,0C223.625,240.424,223.624,241.924,224.591,241.924L224.591,241.924z"/>
			</g>
		</g>
		<polygon style="opacity:0.4;enable-background:new    ;" points="308.659,347.121 221.387,344.313 220.336,341.654 
			308.659,341.654 		"/>
		<path style="fill:#407BFF;" d="M304.683,362.147H190.237c-2.974,0-5.385-2.411-5.385-5.385v-7.064
			c0-2.974,2.411-5.385,5.385-5.385h114.446c2.196,0,3.976,1.78,3.976,3.976v9.882C308.659,360.367,306.879,362.147,304.683,362.147
			z"/>
		<g>
			<path style="fill:#263238;" d="M320.559,319.189h-79.016v-3.139c0-3.116,2.526-5.641,5.641-5.641h73.374V319.189z"/>
			<g>
				<g>
					<path style="fill:#263238;" d="M264.531,318.059c2.966,14.687,5.932,29.374,8.898,44.061c0.286,1.418,2.456,0.818,2.17-0.598
						c-2.966-14.687-5.932-29.374-8.898-44.061C266.414,316.042,264.245,316.643,264.531,318.059L264.531,318.059z"/>
				</g>
			</g>
			<g>
				<g>
					<path style="fill:#263238;" d="M307.349,316.91c0,15.049,0,30.098,0,45.147c0,1.448,2.25,1.45,2.25,0
						c0-15.049,0-30.098,0-45.147C309.599,315.462,307.349,315.459,307.349,316.91L307.349,316.91z"/>
				</g>
			</g>
		</g>
		<rect x="247.206" y="366.449" style="fill:#263238;" width="33.845" height="11.522"/>
		<path style="fill:#263238;" d="M259.681,448.992c-1.18,0.01-48.194,2.805-49.465,3.568c-1.271,0.762-1.958,7.37-1.958,7.37h7.549
			c0,0,0.789-2.985,6.15-3.559c6.088-0.652,42.916-0.978,42.916-0.978v-6.4H259.681z"/>
		<circle style="fill:#263238;" cx="211.275" cy="462.89" r="4.769"/>
		<path style="fill:#263238;" d="M269.32,448.992c1.18,0.01,48.194,2.805,49.465,3.568c1.271,0.762,1.958,7.37,1.958,7.37h-7.549
			c0,0-0.789-2.985-6.15-3.559c-6.088-0.652-42.916-0.978-42.916-0.978v-6.4H269.32z"/>
		<circle style="fill:#263238;" cx="317.727" cy="462.89" r="4.769"/>
		<circle style="fill:#263238;" cx="264.873" cy="462.89" r="4.769"/>
		<rect x="261.413" y="448.992" style="fill:#263238;" width="5.996" height="10.938"/>
	</g>
</g>
<g id="Desk">
	<g>
		<g>
			<polygon style="fill:#263238;" points="150.178,292.309 102.972,292.309 102.972,294.961 154.549,294.961 			"/>
			<polygon style="fill:#407BFF;" points="188.373,281.707 92.113,281.707 85.234,206.648 181.483,206.648 			"/>
			<polygon style="fill:#263238;" points="186.908,281.707 90.658,281.707 83.78,206.648 180.029,206.648 			"/>
			<polygon style="opacity:0.3;" points="146.757,281.707 137.095,281.707 147.679,258.384 			"/>
			<polygon style="fill:#407BFF;" points="116.546,292.038 135.843,293.144 147.679,258.384 128.017,258.384 			"/>
			<polygon style="fill:#263238;" points="114.818,294.296 134.492,294.296 146.72,258.384 128.017,258.384 			"/>
			
				<polyline style="opacity:0.3;fill:none;stroke:#000000;stroke-width:0.5;stroke-linecap:round;stroke-linejoin:round;stroke-miterlimit:10;" points="
				115.124,294.152 128.017,258.384 147.679,258.384 			"/>
		</g>
		<g>
			<g>
				<rect x="288.511" y="273.882" style="fill:#407BFF;" width="67.988" height="21.156"/>
				<rect x="288.511" y="273.882" style="opacity:0.6;fill:#FFFFFF;enable-background:new    ;" width="67.988" height="21.156"/>
				<rect x="288.511" y="273.882" style="opacity:0.6;fill:#FFFFFF;enable-background:new    ;" width="52.461" height="21.156"/>
				<polygon style="opacity:0.2;fill:#407BFF;enable-background:new    ;" points="340.971,273.882 288.511,273.882 
					288.511,276.049 339.788,276.049 				"/>
				<polygon style="opacity:0.2;fill:#407BFF;enable-background:new    ;" points="356.499,281.316 288.511,280.581 
					288.511,280.021 356.499,280.021 				"/>
				<polygon style="opacity:0.2;fill:#407BFF;enable-background:new    ;" points="288.511,283.495 356.499,287.318 
					356.499,286.745 288.511,282.2 				"/>
				<polygon style="opacity:0.2;fill:#407BFF;enable-background:new    ;" points="288.511,291.888 356.499,290.331 
					356.499,289.771 288.511,290.593 				"/>
				<g>
					<rect x="286.28" y="265.903" style="fill:#407BFF;" width="67.988" height="8.567"/>
					<rect x="286.28" y="265.903" style="opacity:0.6;fill:#FFFFFF;enable-background:new    ;" width="67.988" height="8.567"/>
					<rect x="286.28" y="265.903" style="opacity:0.6;fill:#FFFFFF;enable-background:new    ;" width="54.179" height="8.567"/>
					<polygon style="opacity:0.2;fill:#407BFF;enable-background:new    ;" points="354.268,271.967 286.28,272.303 286.28,272.552 
						354.268,272.552 					"/>
					<polygon style="opacity:0.2;fill:#407BFF;enable-background:new    ;" points="286.28,270.983 354.268,269.253 
						354.268,269.514 286.28,271.569 					"/>
					<polygon style="opacity:0.2;fill:#407BFF;enable-background:new    ;" points="286.28,267.185 354.268,267.883 
						354.268,268.144 286.28,267.771 					"/>
				</g>
				<g>
					<rect x="290.742" y="257.336" style="fill:#407BFF;" width="67.988" height="8.567"/>
					<rect x="290.742" y="257.336" style="opacity:0.6;fill:#FFFFFF;enable-background:new    ;" width="67.988" height="8.567"/>
					<rect x="290.742" y="257.336" style="opacity:0.6;fill:#FFFFFF;enable-background:new    ;" width="54.179" height="8.567"/>
					<polygon style="opacity:0.2;fill:#407BFF;enable-background:new    ;" points="358.73,263.4 290.742,263.736 290.742,263.985 
						358.73,263.985 					"/>
					<polygon style="opacity:0.2;fill:#407BFF;enable-background:new    ;" points="290.742,262.416 358.73,260.685 358.73,260.947 
						290.742,263.002 					"/>
					<polygon style="opacity:0.2;fill:#407BFF;enable-background:new    ;" points="290.742,258.618 358.73,259.316 358.73,259.577 
						290.742,259.204 					"/>
				</g>
			</g>
			<g>
				<rect x="295.806" y="251.238" style="fill:#263238;" width="59.953" height="5.971"/>
				<rect x="347.055" y="252.665" style="fill:#EBEBEB;" width="8.704" height="2.96"/>
				<rect x="299.411" y="253.488" style="fill:#407BFF;" width="34.689" height="1.473"/>
			</g>
		</g>
		<g>
			<polygon style="fill:#A24E3F;" points="56.229,470.651 81.78,302.662 92.353,302.662 61.546,470.651 			"/>
			<polygon style="fill:#A24E3F;" points="405.084,467.658 379.533,302.662 368.96,302.662 399.767,467.658 			"/>
			<g>
				<rect x="53.588" y="294.409" style="fill:#263238;" width="364.117" height="8.254"/>
				<rect x="53.588" y="294.409" style="opacity:0.6;fill:#FFFFFF;" width="364.117" height="8.254"/>
			</g>
		</g>
		<rect x="176.771" y="291.247" style="fill:#263238;" width="68.572" height="3.162"/>
	</g>
</g>
<g id="Lamps">
	<g>
		<path style="fill:#407BFF;" d="M275.673,113.317c4.753,0.056,8.651-3.752,8.707-8.504c0.03-2.579-1.098-5.036-3.073-6.694
			c-0.364-0.3-0.919-0.663-0.907-1.414c0-0.023-0.038-1.881-0.038-1.881h-9.052c0,0-0.038,1.93-0.038,1.952
			c0,0.662-0.512,0.947-0.89,1.245c-2.002,1.605-3.181,4.023-3.213,6.589C267.113,109.363,270.921,113.261,275.673,113.317z"/>
		<path style="opacity:0.4;fill:#FFFFFF;" d="M275.673,113.317c4.753,0.056,8.651-3.752,8.707-8.504
			c0.03-2.579-1.098-5.036-3.073-6.694c-0.364-0.3-0.919-0.663-0.907-1.414c0-0.023-0.038-1.881-0.038-1.881h-9.052
			c0,0-0.038,1.93-0.038,1.952c0,0.662-0.512,0.947-0.89,1.245c-2.002,1.605-3.181,4.023-3.213,6.589
			C267.113,109.363,270.921,113.261,275.673,113.317z"/>
		<path style="opacity:0.2;fill:#FFFFFF;enable-background:new    ;" d="M271.395,109.608c0-1.675,1.961-3.037,4.392-3.037
			c2.431,0,4.392,1.362,4.392,3.037c0,1.675-1.961,3.04-4.392,3.04C273.356,112.649,271.395,111.287,271.395,109.608z"/>
		<g>
			<g>
				<path style="fill:#FFFFFF;" d="M282.008,101.63c1.441,2.535,0.963,5.71-1.147,7.715c-0.351,0.333,0.18,0.863,0.53,0.53
					c2.353-2.236,2.868-5.805,1.264-8.624C282.417,100.831,281.769,101.209,282.008,101.63L282.008,101.63z"/>
			</g>
		</g>
		<g>
			<g>
				<path style="fill:#263238;" d="M277.274,96.605c-0.35,1.214-0.552,2.469-0.6,3.732c-0.045,1.195-0.019,2.531,0.317,3.689
					c0.114,0.394,0.346,0.82,0.789,0.887c0.462,0.069,0.787-0.295,0.942-0.69c0.391-0.993-0.004-2.205-0.561-3.052
					c-0.537-0.818-1.408-1.743-2.463-1.748c-1.055-0.005-1.922,0.895-2.37,1.772c-0.474,0.93-0.675,2.134-0.315,3.138
					c0.142,0.397,0.404,0.815,0.816,0.971c0.44,0.166,0.881-0.04,1.134-0.418c0.343-0.514,0.262-1.149,0.185-1.728
					c-0.099-0.743-0.223-1.482-0.377-2.215c-0.309-1.475-0.734-2.922-1.265-4.332c-0.168-0.447-0.894-0.254-0.723,0.199
					c0.669,1.777,1.168,3.615,1.484,5.488c0.046,0.274,0.487,2.581-0.231,2.27c-0.276-0.12-0.378-0.654-0.415-0.908
					c-0.061-0.423-0.034-0.861,0.064-1.276c0.184-0.774,0.623-1.576,1.322-1.997c0.805-0.485,1.533,0.014,2.089,0.624
					c0.542,0.594,0.97,1.371,1.017,2.187c0.009,0.167-0.006,0.991-0.245,0.952c-0.21-0.034-0.283-0.986-0.304-1.126
					c-0.309-2.074-0.146-4.209,0.433-6.22C278.131,96.34,277.408,96.142,277.274,96.605L277.274,96.605z"/>
			</g>
		</g>
		<path style="fill:#263238;" d="M270.41,94.278h10.805c0.075,0,0.136,0.061,0.136,0.136v0.821c0,0.075-0.061,0.136-0.136,0.136
			H270.41c-0.075,0-0.136-0.061-0.136-0.136v-0.821C270.274,94.339,270.335,94.278,270.41,94.278z"/>
		<path style="opacity:0.3;fill:#FFFFFF;" d="M270.41,94.278h10.805c0.075,0,0.136,0.061,0.136,0.136v0.821
			c0,0.075-0.061,0.136-0.136,0.136H270.41c-0.075,0-0.136-0.061-0.136-0.136v-0.821C270.274,94.339,270.335,94.278,270.41,94.278z"
			/>
		<path style="fill:#263238;" d="M270.585,93.319h10.455c0.073,0,0.131,0.059,0.131,0.132v0.794c0,0.073-0.059,0.131-0.131,0.131
			h-10.455c-0.073,0-0.131-0.059-0.131-0.131v-0.794C270.453,93.378,270.512,93.319,270.585,93.319z"/>
		<path style="opacity:0.3;fill:#FFFFFF;" d="M270.585,93.319h10.455c0.073,0,0.131,0.059,0.131,0.132v0.794
			c0,0.073-0.059,0.131-0.131,0.131h-10.455c-0.073,0-0.131-0.059-0.131-0.131v-0.794C270.453,93.378,270.512,93.319,270.585,93.319
			z"/>
		<g>
			<path style="fill:#263238;" d="M279.211,91.812c-0.679-1.242-2.108-2.55-3.521-2.467c-1.413,0.083-2.738,1.284-3.267,2.597
				L279.211,91.812z"/>
		</g>
		<path style="fill:#263238;" d="M271.239,91.413h9.146c0.073,0,0.131,0.059,0.131,0.131v0.794c0,0.073-0.059,0.131-0.131,0.131
			h-9.146c-0.073,0-0.131-0.059-0.131-0.131v-0.794C271.108,91.472,271.166,91.413,271.239,91.413z"/>
		<path style="opacity:0.3;fill:#FFFFFF;" d="M271.239,91.413h9.146c0.073,0,0.131,0.059,0.131,0.131v0.794
			c0,0.073-0.059,0.131-0.131,0.131h-9.146c-0.073,0-0.131-0.059-0.131-0.131v-0.794C271.108,91.472,271.166,91.413,271.239,91.413z
			"/>
		<path style="fill:#263238;" d="M270.729,92.383h10.165c0.073,0,0.132,0.059,0.132,0.132v0.794c0,0.073-0.059,0.132-0.132,0.132
			h-10.165c-0.073,0-0.131-0.059-0.131-0.132v-0.794C270.598,92.442,270.657,92.383,270.729,92.383z"/>
		<path style="opacity:0.3;fill:#FFFFFF;" d="M270.729,92.383h10.165c0.073,0,0.132,0.059,0.132,0.132v0.794
			c0,0.073-0.059,0.132-0.132,0.132h-10.165c-0.073,0-0.131-0.059-0.131-0.132v-0.794C270.598,92.442,270.657,92.383,270.729,92.383
			z"/>
		<g>
			<g>
				<path style="fill:#263238;" d="M276.149,80.759c0-15.721,0-31.442,0-47.162c0-5.242,0-10.484,0-15.726
					c0-0.483-0.75-0.483-0.75,0c0,15.721,0,31.442,0,47.162c0,5.242,0,10.484,0,15.726
					C275.399,81.242,276.149,81.242,276.149,80.759L276.149,80.759z"/>
			</g>
		</g>
		<rect x="271.264" y="77.878" style="fill:#263238;" width="9.021" height="13.472"/>
		<g>
			<g>
				<path style="fill:#407BFF;" d="M258.848,120.719c-1.611-3.575-3.223-7.151-4.834-10.726c0,0.252,0,0.505,0,0.757
					c4.805-9.498,9.609-18.997,14.414-28.495c0.674-1.333,1.348-2.666,2.023-3.999c-0.216,0.124-0.432,0.248-0.648,0.371
					c3.76,0,7.52,0,11.28,0c-0.216-0.124-0.432-0.248-0.648-0.371c4.702,9.665,9.404,19.33,14.106,28.995
					c0.67,1.376,1.339,2.753,2.009,4.129c0-0.252,0-0.505,0-0.757c-1.504,3.365-3.008,6.73-4.512,10.095
					c0.216-0.124,0.432-0.248,0.648-0.371c-10.044,0-20.088,0-30.133,0c-1.451,0-2.901,0-4.352,0c-0.965,0-0.967,1.5,0,1.5
					c10.044,0,20.088,0,30.133,0c1.451,0,2.901,0,4.352,0c0.242,0,0.543-0.138,0.648-0.371c1.413-3.162,2.827-6.325,4.24-9.488
					c0.31-0.694,0.389-1.115,0.061-1.798c-0.464-0.963-0.935-1.923-1.403-2.884c-3.737-7.681-7.473-15.362-11.21-23.043
					c-1.097-2.255-2.194-4.509-3.29-6.764c-0.113-0.232-0.399-0.371-0.648-0.371c-3.76,0-7.52,0-11.28,0
					c-0.252,0-0.53,0.14-0.648,0.371c-2.927,5.786-5.854,11.573-8.781,17.359c-1.903,3.762-3.806,7.525-5.71,11.287
					c-0.538,1.063-1.076,2.127-1.614,3.19c-0.311,0.615-0.506,0.977-0.218,1.669c1.473,3.529,3.148,6.985,4.72,10.471
					C257.949,122.354,259.242,121.592,258.848,120.719z"/>
			</g>
		</g>
		<g>
			<g>
				<path style="fill:#407BFF;" d="M254.334,111.261c14.244,0,28.488,0,42.732,0c0.965,0,0.967-1.5,0-1.5
					c-14.244,0-28.488,0-42.732,0C253.369,109.761,253.367,111.261,254.334,111.261L254.334,111.261z"/>
			</g>
		</g>
	</g>
	<g>
		<path style="fill:#407BFF;" d="M225.111,89.501c4.753,0.056,8.651-3.752,8.706-8.504c0.03-2.579-1.098-5.036-3.074-6.694
			c-0.364-0.3-0.919-0.663-0.906-1.414c0-0.023-0.038-1.881-0.038-1.881h-9.052c0,0-0.038,1.93-0.038,1.952
			c0,0.662-0.512,0.947-0.89,1.246c-2.002,1.605-3.181,4.022-3.213,6.589C216.55,85.547,220.358,89.445,225.111,89.501z"/>
		<path style="opacity:0.4;fill:#FFFFFF;" d="M225.111,89.501c4.753,0.056,8.651-3.752,8.706-8.504
			c0.03-2.579-1.098-5.036-3.074-6.694c-0.364-0.3-0.919-0.663-0.906-1.414c0-0.023-0.038-1.881-0.038-1.881h-9.052
			c0,0-0.038,1.93-0.038,1.952c0,0.662-0.512,0.947-0.89,1.246c-2.002,1.605-3.181,4.022-3.213,6.589
			C216.55,85.547,220.358,89.445,225.111,89.501z"/>
		<path style="opacity:0.2;fill:#FFFFFF;enable-background:new    ;" d="M220.832,85.792c0-1.675,1.961-3.037,4.392-3.037
			c2.431,0,4.392,1.362,4.392,3.037s-1.961,3.04-4.392,3.04C222.793,88.833,220.832,87.471,220.832,85.792z"/>
		<g>
			<g>
				<path style="fill:#FFFFFF;" d="M231.445,77.813c1.441,2.535,0.963,5.71-1.147,7.715c-0.351,0.333,0.18,0.863,0.53,0.53
					c2.353-2.236,2.868-5.805,1.264-8.624C231.854,77.015,231.206,77.393,231.445,77.813L231.445,77.813z"/>
			</g>
		</g>
		<g>
			<g>
				<path style="fill:#263238;" d="M226.711,72.789c-0.35,1.214-0.552,2.469-0.6,3.732c-0.045,1.195-0.019,2.531,0.317,3.689
					c0.114,0.394,0.346,0.82,0.789,0.887c0.462,0.069,0.787-0.295,0.942-0.69c0.391-0.993-0.004-2.205-0.561-3.052
					c-0.537-0.818-1.408-1.743-2.463-1.748c-1.055-0.005-1.922,0.895-2.37,1.772c-0.475,0.93-0.675,2.134-0.315,3.138
					c0.142,0.397,0.404,0.815,0.816,0.971c0.44,0.166,0.881-0.04,1.133-0.418c0.343-0.514,0.262-1.149,0.185-1.728
					c-0.099-0.743-0.223-1.482-0.377-2.215c-0.309-1.475-0.735-2.922-1.265-4.332c-0.169-0.447-0.894-0.254-0.723,0.199
					c0.669,1.777,1.168,3.615,1.484,5.488c0.046,0.274,0.487,2.581-0.231,2.27c-0.276-0.12-0.378-0.654-0.415-0.908
					c-0.061-0.423-0.034-0.861,0.064-1.276c0.184-0.774,0.623-1.576,1.322-1.997c0.805-0.486,1.533,0.014,2.089,0.624
					c0.542,0.594,0.971,1.371,1.017,2.187c0.009,0.167-0.006,0.991-0.245,0.952c-0.21-0.034-0.283-0.986-0.304-1.127
					c-0.309-2.074-0.146-4.209,0.433-6.22C227.568,72.524,226.845,72.326,226.711,72.789L226.711,72.789z"/>
			</g>
		</g>
		<path style="fill:#263238;" d="M219.847,70.462h10.805c0.075,0,0.136,0.061,0.136,0.136v0.821c0,0.075-0.061,0.136-0.136,0.136
			h-10.805c-0.075,0-0.136-0.061-0.136-0.136v-0.821C219.711,70.523,219.772,70.462,219.847,70.462z"/>
		<path style="opacity:0.3;fill:#FFFFFF;" d="M219.847,70.462h10.805c0.075,0,0.136,0.061,0.136,0.136v0.821
			c0,0.075-0.061,0.136-0.136,0.136h-10.805c-0.075,0-0.136-0.061-0.136-0.136v-0.821C219.711,70.523,219.772,70.462,219.847,70.462
			z"/>
		<path style="fill:#263238;" d="M220.022,69.503h10.455c0.073,0,0.132,0.059,0.132,0.131v0.794c0,0.073-0.059,0.132-0.132,0.132
			h-10.455c-0.073,0-0.132-0.059-0.132-0.132v-0.794C219.891,69.562,219.949,69.503,220.022,69.503z"/>
		<path style="opacity:0.3;fill:#FFFFFF;" d="M220.022,69.503h10.455c0.073,0,0.132,0.059,0.132,0.131v0.794
			c0,0.073-0.059,0.132-0.132,0.132h-10.455c-0.073,0-0.132-0.059-0.132-0.132v-0.794C219.891,69.562,219.949,69.503,220.022,69.503
			z"/>
		<g>
			<path style="fill:#263238;" d="M228.649,67.996c-0.679-1.242-2.108-2.55-3.521-2.467c-1.413,0.083-2.738,1.284-3.267,2.597
				L228.649,67.996z"/>
		</g>
		<path style="fill:#263238;" d="M220.676,67.597h9.146c0.073,0,0.132,0.059,0.132,0.131v0.794c0,0.073-0.059,0.131-0.132,0.131
			h-9.146c-0.073,0-0.132-0.059-0.132-0.131v-0.794C220.545,67.656,220.604,67.597,220.676,67.597z"/>
		<path style="opacity:0.3;fill:#FFFFFF;" d="M220.676,67.597h9.146c0.073,0,0.132,0.059,0.132,0.131v0.794
			c0,0.073-0.059,0.131-0.132,0.131h-9.146c-0.073,0-0.132-0.059-0.132-0.131v-0.794C220.545,67.656,220.604,67.597,220.676,67.597z
			"/>
		<path style="fill:#263238;" d="M220.167,68.567h10.165c0.073,0,0.131,0.059,0.131,0.132v0.794c0,0.073-0.059,0.132-0.131,0.132
			h-10.165c-0.073,0-0.132-0.059-0.132-0.132v-0.794C220.035,68.626,220.094,68.567,220.167,68.567z"/>
		<path style="opacity:0.3;fill:#FFFFFF;" d="M220.167,68.567h10.165c0.073,0,0.131,0.059,0.131,0.132v0.794
			c0,0.073-0.059,0.132-0.131,0.132h-10.165c-0.073,0-0.132-0.059-0.132-0.132v-0.794C220.035,68.626,220.094,68.567,220.167,68.567
			z"/>
		<g>
			<g>
				<path style="fill:#263238;" d="M225.587,56.943c0-13.024,0-26.048,0-39.072c0-0.483-0.75-0.483-0.75,0
					c0,13.024,0,26.048,0,39.072C224.837,57.425,225.587,57.426,225.587,56.943L225.587,56.943z"/>
			</g>
		</g>
		<rect x="220.701" y="54.062" style="fill:#263238;" width="9.02" height="13.472"/>
		<g>
			<g>
				<path style="fill:#407BFF;" d="M208.285,96.902c-1.612-3.575-3.223-7.151-4.834-10.726c0,0.252,0,0.505,0,0.757
					c4.805-9.498,9.609-18.996,14.414-28.495c0.674-1.333,1.348-2.666,2.023-3.999c-0.216,0.124-0.432,0.248-0.648,0.371
					c3.76,0,7.52,0,11.28,0c-0.216-0.124-0.432-0.248-0.648-0.371c4.702,9.665,9.404,19.33,14.106,28.995
					c0.67,1.376,1.339,2.753,2.009,4.129c0-0.252,0-0.505,0-0.757c-1.504,3.365-3.008,6.73-4.512,10.095
					c0.216-0.124,0.432-0.248,0.648-0.371c-10.044,0-20.088,0-30.133,0c-1.451,0-2.901,0-4.352,0c-0.965,0-0.967,1.5,0,1.5
					c10.044,0,20.088,0,30.133,0c1.451,0,2.901,0,4.352,0c0.242,0,0.543-0.138,0.648-0.371c1.413-3.162,2.827-6.325,4.24-9.488
					c0.31-0.694,0.389-1.115,0.061-1.798c-0.464-0.963-0.935-1.923-1.403-2.884c-3.737-7.681-7.473-15.362-11.21-23.043
					c-1.097-2.255-2.194-4.509-3.291-6.764c-0.113-0.232-0.399-0.372-0.648-0.372c-3.76,0-7.52,0-11.28,0
					c-0.252,0-0.53,0.14-0.648,0.372c-2.927,5.786-5.854,11.572-8.781,17.359c-1.903,3.762-3.806,7.525-5.71,11.287
					c-0.538,1.063-1.076,2.127-1.614,3.191c-0.311,0.615-0.506,0.977-0.217,1.668c1.473,3.529,3.148,6.985,4.719,10.471
					C207.386,98.538,208.679,97.776,208.285,96.902z"/>
			</g>
		</g>
		<g>
			<g>
				<path style="fill:#407BFF;" d="M203.772,87.445c14.244,0,28.488,0,42.732,0c0.965,0,0.967-1.5,0-1.5
					c-14.244,0-28.488,0-42.732,0C202.806,85.945,202.805,87.445,203.772,87.445L203.772,87.445z"/>
			</g>
		</g>
	</g>
</g>
<g id="Plant">
	<g>
		<g>
			<path style="fill:#407BFF;" d="M121.493,413.404c-0.659-2.724-1.321-5.476-1.346-8.278c-0.025-2.802,0.645-5.7,2.4-7.884
				c1.411-1.757,3.431-2.955,4.799-4.747c2.293-3.005,2.536-7.387,5.378-9.879c1.896-1.663,4.555-2.11,6.741-3.369
				c2.216-1.276,3.861-3.335,5.871-4.916c2.01-1.581,4.769-2.691,7.104-1.649c2.934,1.309,3.611,5.281,2.828,8.396
				c-0.783,3.116-2.579,5.937-3.103,9.106c-0.363,2.198-0.183,4.698-1.678,6.35c-1.577,1.741-4.386,1.774-6.137,3.339
				c-1.861,1.663-1.977,4.464-2.665,6.863c-1.123,3.917-4.183,7.227-7.999,8.655c-3.816,1.428-8.297,0.938-11.716-1.279"/>
		</g>
		<g style="opacity:0.4;enable-background:new    ;">
			<path style="fill:#FFFFFF;" d="M121.493,413.404c-0.659-2.724-1.321-5.476-1.346-8.278c-0.025-2.802,0.645-5.7,2.4-7.884
				c1.411-1.757,3.431-2.955,4.799-4.747c2.293-3.005,2.536-7.387,5.378-9.879c1.896-1.663,4.555-2.11,6.741-3.369
				c2.216-1.276,3.861-3.335,5.871-4.916c2.01-1.581,4.769-2.691,7.104-1.649c2.934,1.309,3.611,5.281,2.828,8.396
				c-0.783,3.116-2.579,5.937-3.103,9.106c-0.363,2.198-0.183,4.698-1.678,6.35c-1.577,1.741-4.386,1.774-6.137,3.339
				c-1.861,1.663-1.977,4.464-2.665,6.863c-1.123,3.917-4.183,7.227-7.999,8.655c-3.816,1.428-8.297,0.938-11.716-1.279"/>
		</g>
		<g>
			<g>
				<path style="fill:#407BFF;" d="M122.396,374.962c-2.659-0.883-5.345-1.778-7.735-3.241c-2.39-1.462-4.494-3.565-5.418-6.21
					c-0.744-2.127-0.69-4.476-1.486-6.584c-1.335-3.536-4.924-6.063-5.533-9.793c-0.407-2.489,0.622-4.982,0.711-7.502
					c0.091-2.556-0.785-5.041-1.062-7.583c-0.277-2.542,0.242-5.47,2.362-6.9c2.664-1.796,6.392-0.268,8.62,2.046
					c2.229,2.314,3.671,5.331,6.082,7.454c1.672,1.472,3.889,2.643,4.498,4.785c0.643,2.259-0.817,4.66-0.417,6.974
					c0.425,2.459,2.741,4.041,4.411,5.894c2.728,3.027,3.916,7.375,3.107,11.368c-0.809,3.994-3.597,7.536-7.288,9.262"/>
			</g>
			<g style="opacity:0.2;enable-background:new    ;">
				<path d="M122.396,374.962c-2.659-0.883-5.345-1.778-7.735-3.241c-2.39-1.462-4.494-3.565-5.418-6.21
					c-0.744-2.127-0.69-4.476-1.486-6.584c-1.335-3.536-4.924-6.063-5.533-9.793c-0.407-2.489,0.622-4.982,0.711-7.502
					c0.091-2.556-0.785-5.041-1.062-7.583c-0.277-2.542,0.242-5.47,2.362-6.9c2.664-1.796,6.392-0.268,8.62,2.046
					c2.229,2.314,3.671,5.331,6.082,7.454c1.672,1.472,3.889,2.643,4.498,4.785c0.643,2.259-0.817,4.66-0.417,6.974
					c0.425,2.459,2.741,4.041,4.411,5.894c2.728,3.027,3.916,7.375,3.107,11.368c-0.809,3.994-3.597,7.536-7.288,9.262"/>
			</g>
		</g>
		<g>
			<g>
				<path style="fill:#407BFF;" d="M117.637,403.885c-1.645,1.371-3.309,2.755-5.222,3.718c-1.913,0.963-4.127,1.482-6.217,1.017
					c-1.681-0.374-3.185-1.355-4.875-1.688c-2.835-0.558-5.922,0.755-8.591-0.353c-1.781-0.739-2.985-2.412-4.586-3.486
					c-1.624-1.089-3.591-1.522-5.354-2.366c-1.763-0.844-3.455-2.362-3.529-4.315c-0.093-2.454,2.402-4.259,4.803-4.774
					c2.401-0.515,4.942-0.236,7.292-0.947c1.63-0.493,3.284-1.461,4.921-0.993c1.726,0.493,2.697,2.409,4.362,3.081
					c1.769,0.715,3.729-0.152,5.606-0.49c3.065-0.552,6.368,0.428,8.636,2.563c2.268,2.135,3.445,5.373,3.078,8.466"/>
			</g>
			<g style="opacity:0.2;enable-background:new    ;">
				<path d="M117.637,403.885c-1.645,1.371-3.309,2.755-5.222,3.718c-1.913,0.963-4.127,1.482-6.217,1.017
					c-1.681-0.374-3.185-1.355-4.875-1.688c-2.835-0.558-5.922,0.755-8.591-0.353c-1.781-0.739-2.985-2.412-4.586-3.486
					c-1.624-1.089-3.591-1.522-5.354-2.366c-1.763-0.844-3.455-2.362-3.529-4.315c-0.093-2.454,2.402-4.259,4.803-4.774
					c2.401-0.515,4.942-0.236,7.292-0.947c1.63-0.493,3.284-1.461,4.921-0.993c1.726,0.493,2.697,2.409,4.362,3.081
					c1.769,0.715,3.729-0.152,5.606-0.49c3.065-0.552,6.368,0.428,8.636,2.563c2.268,2.135,3.445,5.373,3.078,8.466"/>
			</g>
		</g>
		<g>
			<path style="fill:#407BFF;" d="M117.037,394.8c-2.827,0.447-5.685,0.895-8.54,0.69c-2.855-0.205-5.751-1.126-7.831-3.092
				c-1.673-1.581-2.727-3.737-4.439-5.277c-2.871-2.582-7.313-3.191-9.617-6.289c-1.537-2.068-1.773-4.812-2.875-7.142
				c-1.117-2.362-3.078-4.206-4.523-6.382c-1.445-2.177-2.348-5.077-1.095-7.37c1.574-2.88,5.674-3.243,8.782-2.189
				c3.108,1.054,5.833,3.115,9.017,3.909c2.208,0.551,4.769,0.573,6.327,2.231c1.643,1.749,1.445,4.612,2.895,6.524
				c1.54,2.031,4.383,2.38,6.769,3.278c3.896,1.466,7.015,4.854,8.155,8.857c1.14,4.004,0.273,8.526-2.267,11.824"/>
		</g>
		<g style="opacity:0.4;enable-background:new    ;">
			<path style="fill:#FFFFFF;" d="M117.037,394.8c-2.827,0.447-5.685,0.895-8.54,0.69c-2.855-0.205-5.751-1.126-7.831-3.092
				c-1.673-1.581-2.727-3.737-4.439-5.277c-2.871-2.582-7.313-3.191-9.617-6.289c-1.537-2.068-1.773-4.812-2.875-7.142
				c-1.117-2.362-3.078-4.206-4.523-6.382c-1.445-2.177-2.348-5.077-1.095-7.37c1.574-2.88,5.674-3.243,8.782-2.189
				c3.108,1.054,5.833,3.115,9.017,3.909c2.208,0.551,4.769,0.573,6.327,2.231c1.643,1.749,1.445,4.612,2.895,6.524
				c1.54,2.031,4.383,2.38,6.769,3.278c3.896,1.466,7.015,4.854,8.155,8.857c1.14,4.004,0.273,8.526-2.267,11.824"/>
		</g>
		<g>
			<path style="fill:#407BFF;" d="M120.365,378.77c-1.294-2.945-2.597-5.921-3.19-9.083c-0.593-3.161-0.42-6.57,1.122-9.393
				c1.24-2.27,3.281-4.031,4.465-6.331c1.985-3.858,1.377-8.858,4.085-12.247c1.808-2.262,4.722-3.302,6.938-5.166
				c2.247-1.889,3.69-4.547,5.642-6.738c1.952-2.192,4.846-4.002,7.695-3.296c3.579,0.888,5.145,5.239,4.888,8.917
				c-0.257,3.678-1.717,7.228-1.67,10.915c0.033,2.556,0.74,5.346-0.616,7.513c-1.43,2.285-4.598,2.889-6.262,5.01
				c-1.767,2.254-1.333,5.443-1.627,8.292c-0.48,4.652-3.269,9.01-7.294,11.392c-4.025,2.383-9.186,2.734-13.496,0.917"/>
		</g>
		<g style="opacity:0.4;enable-background:new    ;">
			<path style="fill:#FFFFFF;" d="M120.365,378.77c-1.294-2.945-2.597-5.921-3.19-9.083c-0.593-3.161-0.42-6.57,1.122-9.393
				c1.24-2.27,3.281-4.031,4.465-6.331c1.985-3.858,1.377-8.858,4.085-12.247c1.808-2.262,4.722-3.302,6.938-5.166
				c2.247-1.889,3.69-4.547,5.642-6.738c1.952-2.192,4.846-4.002,7.695-3.296c3.579,0.888,5.145,5.239,4.888,8.917
				c-0.257,3.678-1.717,7.228-1.67,10.915c0.033,2.556,0.74,5.346-0.616,7.513c-1.43,2.285-4.598,2.889-6.262,5.01
				c-1.767,2.254-1.333,5.443-1.627,8.292c-0.48,4.652-3.269,9.01-7.294,11.392c-4.025,2.383-9.186,2.734-13.496,0.917"/>
		</g>
		<g>
			<g>
				<path style="fill:#263238;" d="M116.801,421.992c9.548-14.672,20.583-28.357,31.921-41.672c0.311-0.366-0.217-0.898-0.53-0.53
					c-11.379,13.362-22.456,27.099-32.039,41.824C115.889,422.019,116.539,422.395,116.801,421.992L116.801,421.992z"/>
			</g>
		</g>
		<g>
			<g>
				<path style="fill:#263238;" d="M116.852,421.802c-0.913-11.195,1.384-22.656,4.263-33.421
					c3.246-12.134,7.681-24.043,13.422-35.222c2.743-5.34,5.803-10.576,9.519-15.303c0.295-0.375-0.232-0.91-0.53-0.53
					c-6.975,8.872-11.948,19.344-16.114,29.772c-4.743,11.874-8.48,24.304-10.393,36.963c-0.885,5.854-1.399,11.824-0.917,17.74
					C116.141,422.28,116.892,422.284,116.852,421.802L116.852,421.802z"/>
			</g>
		</g>
		<g>
			<g>
				<path style="fill:#263238;" d="M118.085,394.047c-2.893-5.867-8.382-9.625-13.617-13.235
					c-6.343-4.373-12.011-9.266-16.563-15.534c-0.281-0.387-0.932-0.013-0.648,0.379c4.3,5.922,9.586,10.774,15.579,14.937
					c5.52,3.834,11.531,7.603,14.601,13.831C117.651,394.859,118.298,394.479,118.085,394.047L118.085,394.047z"/>
			</g>
		</g>
		<path style="fill:#263238;" d="M142.086,420.364H94.16c0,0-1.792,31.365,13.336,43.778l-5.465,6.509h33.058l-6.245-6.838
			C128.845,463.813,141.294,458.443,142.086,420.364z"/>
		<g style="opacity:0.3;enable-background:new    ;">
			<path style="fill:#FFFFFF;" d="M109.514,423.15l-12.505,0.112c0.641,6.758,1.29,13.559,3.124,20.095
				c1.833,6.536,4.937,12.862,9.854,17.542C106.82,448.803,108.073,435.57,109.514,423.15z"/>
		</g>
	</g>
</g>
<g id="Character">
	<g>
		<g>
			<path style="fill:#263238;" d="M362.95,139.892c0,0-0.108-0.261-0.282-0.735c-1.656-4.523-24.879-28.835,16.285-36.151
				c5.737-1.02,8.153,5.018,8.153,5.018c12.445-5.289,24.061,13.005,15.142,28.044c-5.405,9.114-12.254,13.724-12.254,13.724"/>
			<path style="fill:#FAAC6D;" d="M390.685,137.005l-10.235,10.373l-2.874,1.734c0.647,1.525,1.202,3.095,1.441,4.617
				c0.455,2.684-0.743,4.384-3.231,6.373l9.484,5.881c5.159-4.465,9.346-6.536,9.346-6.536
				C389.206,155.707,389.526,143.355,390.685,137.005z"/>
			<path style="opacity:0.2;" d="M379.102,154.319c2.818-1.681,5.906-4.592,5.528-7.91c-0.168-1.397-0.472-2.72-0.809-3.569
				l-5.714,7.598C378.58,151.661,378.754,152.469,379.102,154.319z"/>
			<path style="fill:#FAAC6D;" d="M392.647,125.331c-0.943,10.541-1.119,15.01-6.546,20.548c-8.162,8.33-20.753,5.561-22.942-4.881
				c-1.97-9.398-0.097-25.057,10.239-29.508C383.582,107.104,393.59,114.79,392.647,125.331z"/>
			<path style="fill:#263238;" d="M381.195,124.902c-0.134,0.015-0.271-0.023-0.375-0.119c-1.627-1.5-3.454-0.968-3.475-0.962
				c-0.271,0.079-0.545-0.073-0.608-0.35c-0.062-0.276,0.11-0.566,0.384-0.65c0.095-0.028,2.388-0.698,4.407,1.164
				c0.201,0.186,0.206,0.515,0.011,0.735C381.444,124.826,381.321,124.888,381.195,124.902z"/>
			<path style="fill:#263238;" d="M365.105,123.5c-0.106-0.035-0.195-0.114-0.242-0.23c-0.097-0.239,0.02-0.542,0.26-0.677
				c2.406-1.359,4.194-0.334,4.269-0.288c0.212,0.126,0.264,0.425,0.115,0.668c-0.148,0.243-0.44,0.339-0.652,0.215
				c-0.069-0.041-1.469-0.813-3.382,0.268C365.349,123.526,365.217,123.538,365.105,123.5z"/>
			<path style="fill:#FE7F3A;" d="M371.438,128.262c0,0-1.64,3.948-3.495,6.411c-0.324,0.43-0.122,1.057,0.384,1.243
				c1.302,0.476,2.824,0.039,2.824,0.039L371.438,128.262z"/>
			<path style="fill:#263238;" d="M378.194,126.886c0.014-0.015,0.029-0.025,0.043-0.04l-2.42-0.566c0,0,0.561,0.756,1.253,0.95
				c-0.32,0.375-0.545,0.96-0.574,1.619c-0.049,1.115,0.472,2.006,1.165,1.99c0.693-0.016,1.295-0.932,1.345-2.048
				C379.045,127.877,378.699,127.123,378.194,126.886z"/>
			<path style="fill:#263238;" d="M367.691,126.886c0.003-0.003,0.006-0.005,0.009-0.008l-2.42-0.566c0,0,0.632,0.857,1.383,0.983
				c-0.308,0.365-0.525,0.92-0.554,1.544c-0.05,1.081,0.47,1.944,1.16,1.928c0.691-0.016,1.292-0.905,1.342-1.985
				C368.655,127.83,368.258,127.049,367.691,126.886z"/>
			<path style="fill:#263238;" d="M388.997,128.979c0,0-5.454-8.172-5.188-14.799c0,0-10.411-2.691-18.686,8.413
				c-1.318,1.769-2.1,4.715-3.278,7.258c0,0-2.029-20.048,15.761-21.729c17.762-1.68,21.307,23.289,12.658,31.712
				C390.263,139.833,392.375,134.092,388.997,128.979z"/>
			<path style="fill:none;stroke:#263238;stroke-width:0.75;stroke-linecap:round;stroke-linejoin:round;stroke-miterlimit:10;" d="
				M377.761,136.893c0,0-1.014,2.781-4.142,2.143"/>
			<path style="fill:#FAAC6D;" d="M395.854,133.913c-1.24,2.164-3.26,3.525-5.114,3.995c-2.788,0.706-4.238-3.776-3.292-6.573
				c0.852-2.518,3.59-4.189,6.306-3.646C396.43,128.223,397.272,131.439,395.854,133.913z"/>
			
				<path style="opacity:0.2;fill:none;stroke:#000000;stroke-width:0.5;stroke-linecap:round;stroke-linejoin:round;stroke-miterlimit:10;" d="
				M389.958,133.364c0.064-0.998,0.538-1.964,1.289-2.625c0.75-0.661,1.768-1.01,2.766-0.949"/>
			<path style="fill:#407BFF;" d="M394.575,136.857c0.003,1.273-1.027,2.307-2.3,2.31c-1.273,0.003-2.307-1.027-2.31-2.3
				c-0.003-1.273,1.027-2.307,2.3-2.31C393.538,134.554,394.572,135.584,394.575,136.857z"/>
			<g style="opacity:0.3;">
				<g>
					<path d="M386.047,113.208c1.761,7.301,10.927,7.786,15.816,11.982c0.364,0.313,0.897-0.215,0.53-0.53
						c-2.631-2.257-5.93-3.313-8.996-4.815c-2.896-1.418-5.831-3.535-6.627-6.836C386.657,112.539,385.934,112.738,386.047,113.208
						L386.047,113.208z"/>
				</g>
			</g>
			<g style="opacity:0.3;">
				<g>
					<path d="M387.586,112.004c3.395,2.896,8.104,3.976,12.418,2.82c0.466-0.125,0.268-0.848-0.199-0.723
						c-4.044,1.083-8.5,0.092-11.689-2.627C387.751,111.162,387.218,111.69,387.586,112.004L387.586,112.004z"/>
				</g>
			</g>
		</g>
		<g>
			<path style="fill:#263238;" d="M453.035,476.202c-1.311-0.991-2.798-1.727-4.382-2.168l0,0c0,0-4.824-4.427-7.633-18.229
				l-6.107-1.343c-2.137-0.434-4.317,0.519-5.45,2.382c-0.172,0.248-0.291,0.529-0.351,0.824c-0.257,1.474-0.415,2.963-0.473,4.458
				c-0.138,5.095,0.031,10.193,0.504,15.267h1.099v-9.588c0-3.267,2.687,0.458,3.527,3.924c0.84,3.466,2.519,7.145,9.664,7.038
				C451.768,478.599,455.219,478.08,453.035,476.202z"/>
			<path style="fill:#FAAC6D;" d="M439.799,450.874c0,0,1.527,6.305,3.878,13.252c1.006,3.592,2.696,6.956,4.977,9.908
				c0,0-5.298,1.16-7.755-2.351c-2.458-3.511-6.107-15.633-11.465-14.778c0.402-0.924,0.915-1.795,1.527-2.595
				c0.214-0.324-1.416-4.325-0.547-4.708C433.019,448.453,439.799,450.874,439.799,450.874z"/>
			<g>
				<path style="fill:#263238;" d="M363.889,476.202c1.311-0.991,2.798-1.727,4.382-2.168l0,0c0,0,4.824-4.427,7.633-18.229
					l6.107-1.343c2.137-0.434,4.317,0.519,5.45,2.382c0.172,0.248,0.291,0.529,0.351,0.824c0.257,1.474,0.415,2.963,0.473,4.458
					c0.138,5.095-0.031,10.193-0.504,15.267h-1.099v-9.588c0-3.267-2.687,0.458-3.527,3.924c-0.84,3.466-2.519,7.145-9.664,7.038
					C365.156,478.599,361.706,478.08,363.889,476.202z"/>
				<path style="fill:#FAAC6D;" d="M377.126,450.874c0,0-1.527,6.305-3.878,13.252c-1.006,3.592-2.696,6.956-4.977,9.908
					c0,0,5.298,1.16,7.755-2.351c2.458-3.511,6.107-15.633,11.465-14.778c-0.402-0.924-0.915-1.795-1.527-2.595
					C385.11,453.012,377.126,450.874,377.126,450.874z"/>
			</g>
			<path style="fill:#407BFF;" d="M350.304,288.009c0.015,1.943,1.897,28.004,4.878,42.468
				c2.981,14.464,15.392,125.327,16.205,125.02c0.813-0.308,19.144,0.001,19.144,0.001s-6.623-105.017-6.081-124.713
				s3.252-48.931,3.252-48.008c0,0,36.471,169.469,37.778,168.974c1.307-0.495,21.349-0.99,21.349-0.99
				s-15.511-105.383-17.994-129.131c-2.483-23.748-5.533-45.023-5.533-45.023s-17.571-50.243-19.46-48.622
				c-1.889,1.62-36.128,6.564-36.128,6.564S350.067,256.367,350.304,288.009z"/>
			<path style="opacity:0.4;enable-background:new    ;" d="M350.304,288.009c0.015,1.943,1.897,28.004,4.878,42.468
				c2.981,14.464,15.392,125.327,16.205,125.02c0.813-0.308,19.144,0.001,19.144,0.001s-6.623-105.017-6.081-124.713
				s3.252-48.931,3.252-48.008c0,0,36.471,169.469,37.778,168.974c1.307-0.495,21.349-0.99,21.349-0.99
				s-15.511-105.383-17.994-129.131c-2.483-23.748-5.533-45.023-5.533-45.023s-17.571-50.243-19.46-48.622
				c-1.889,1.62-36.128,6.564-36.128,6.564S350.067,256.367,350.304,288.009z"/>
			<polygon style="fill:#263238;" points="378.96,236.299 378.628,241.966 385.777,251.732 392.594,242.599 392.594,232.794 			"/>
			<path style="opacity:0.4;enable-background:new    ;" d="M350.441,282.573c-0.018,0.328,14.378,7.31,14.378,7.31
				s11.63-39.445,12.062-44.975l16.412-4.53c0,0,7.604,36.563,13.266,46.27l17.092-7.551l-0.349-2.488
				c-1.356-5.317-12.426-27.997-20.302-44.967l-17.958,0.971l-12.781-3.706l-21.959,49.652v3.236"/>
		</g>
		<g>
			<path style="fill:#FFFFFF;" d="M395.574,160.867l-4.353-6.548l-6.559,6.674l-5.829-5.275l-1.986,5.269
				c0,0-8.512,22.197-8.178,21.317s2.607,19.65,2.607,19.65l4.004,26.952l19.549-2.219l5.578-32.847v-30.744L395.574,160.867z"/>
			<path style="fill:#407BFF;" d="M378.071,157.01l-7.655,5.429l-16.908,7.942c0,0,8.689,45.59,7.664,54.813
				c-1.025,9.223-15.606,47.662-15.606,47.662l19.727,10.247c0,0,13.834-42.015,13.322-55.849
				c-0.512-13.834-4.611-40.478-4.355-48.419C374.515,170.893,378.071,157.01,378.071,157.01z"/>
			<path style="fill:#407BFF;" d="M392.594,154.319c0,0,4.355,16.396,3.33,28.693c-1.025,12.297-3.687,42.015-1.587,54.312
				c2.1,12.297,12.347,42.783,12.859,42.015c0.512-0.768,22.801-10.76,22.032-10.504c-0.769,0.256-13.066-29.974-15.115-45.345
				c-2.049-15.371-4.336-7.686-3.193-26.131s4.217-34.073,4.217-34.073l-16.14-3.843L392.594,154.319z"/>
			<path style="opacity:0.4;enable-background:new    ;" d="M395.924,183.012c-0.644,7.733-1.936,22.354-2.284,35.201l0.867,0.757
				c6.188-12.048,9.321-45.176,8.474-48.385c-0.847-3.209-3.983-4.635-3.983-4.635s3.404,1.248,3.939,0.891
				c0.535-0.356-3.939-7.4-3.939-7.4l-6.405-5.124C392.593,154.319,396.949,170.715,395.924,183.012z"/>
			<path style="fill:#FAAC6D;" d="M365.67,229.841c0,0,4.979,2.655,10.528,3.597l0.682-9.061L365.67,229.841z"/>
			<path style="opacity:0.4;enable-background:new    ;" d="M373.308,232.794c0,0-0.308,5.253,3.699,7.754l0.78-4.249l-3.109-3.505
				H373.308z"/>
			<path style="fill:#407BFF;" d="M415.138,163.286c0,0,4.099,7.942,5.636,24.338c1.537,16.396,3.587,33.561,0,36.122
				c-3.587,2.562-43.7,13.948-45.237,12.411c-1.537-1.537-0.919-13.224-0.919-13.224l32.834-14.046L415.138,163.286z"/>
			<path style="opacity:0.4;enable-background:new    ;" d="M358.771,234.257c0,0-0.532,2.803,3.58,1.327
				c36.826-13.226,44.006-22.844,44.006-22.844L358.771,234.257z"/>
			<path style="fill:#407BFF;" d="M353.653,170.381c0,0-6.661,32.806-5.124,46.889c1.537,14.083,2.818,15.364,9.479,16.901
				c6.661,1.537,41.623-17.818,41.623-17.818v-12.911l-37.389,11.771c0,0-1.672-15.884-1.928-24.082
				S353.653,170.381,353.653,170.381z"/>
			<g>
				<g>
					<path style="fill:#263238;" d="M361.062,215.195c-0.708-12.979-3.579-25.745-4.287-38.724c-0.026-0.48-0.776-0.483-0.75,0
						c0.708,12.979,3.579,25.745,4.287,38.724C360.339,215.676,361.089,215.678,361.062,215.195L361.062,215.195z"/>
				</g>
			</g>
			<path style="fill:#FAAC6D;" d="M365.67,215.21c0,0-5.938-8.034-6.777-6.945c-0.839,1.089,1.785,5.1,1.785,5.1
				s-3.97-5.612-4.482-3.562c-0.512,2.049,2.438,5.648,2.438,5.648s-5.513-4.911-5.39-2.823c0.124,2.088,2.949,3.809,2.949,3.809
				s-4.662-1.352-4.352,0.283c0.282,1.487,4.414,2.421,4.414,2.421L365.67,215.21z"/>
			<polygon style="opacity:0.4;enable-background:new    ;" points="356.153,243.435 366.371,247.377 364.139,254.264 
				354.029,249.596 			"/>
			<polygon style="opacity:0.4;enable-background:new    ;" points="417.549,238.128 407.297,241.962 409.529,248.849 
				419.494,244.358 			"/>
			<path style="opacity:0.4;enable-background:new    ;" d="M370.561,162.439l-2.306,4.857h2.306c0,0-4.742,2.243-5.116,5.233
				c-0.371,2.969,3.443,25.49,11.576,36.133c-1.319-12.101-2.926-24.764-2.762-29.828c0.256-7.942,3.812-21.825,3.812-21.825
				l-7.307,5.18L370.561,162.439z"/>
			<g>
				<g>
					<path style="fill:#263238;" d="M408.642,208.928c0.115-6.033,0.871-12.077,1.537-18.068c0.692-6.233,1.457-12.459,2.261-18.679
						c0.171-1.32,0.342-2.639,0.519-3.958c0.064-0.477-0.687-0.472-0.75,0c-1.414,10.536-2.736,21.099-3.712,31.685
						c-0.276,2.998-0.548,6.008-0.606,9.02C407.883,209.411,408.633,209.411,408.642,208.928L408.642,208.928z"/>
				</g>
			</g>
			<path style="opacity:0.4;enable-background:new    ;" d="M393.867,232.517l20.694-6.253c0.299,1.602,0.64,3.082,0.927,4.314
				l-20.809,8.245C394.68,238.823,393.761,234.249,393.867,232.517z"/>
			<polygon style="fill:#263238;" points="384.533,163.286 382.285,166.596 383.847,169.473 386.889,169.473 387.82,165.983 			"/>
			<polygon style="fill:#263238;" points="383.847,169.473 378.96,209.95 392.593,205.658 386.889,169.473 			"/>
			<path style="fill:#FAAC6D;" d="M408.777,207.055c-2.813-0.431-8.893-0.806-8.893-0.806v9.807l6.602-2.84l2.088-2.069
				C408.574,211.147,409.915,207.229,408.777,207.055z"/>
		</g>
	</g>
</g>
</svg>
