<?xml version="1.0" encoding="utf-8"?>
<!-- Generator: Adobe Illustrator 27.5.0, SVG Export Plug-In . SVG Version: 6.00 Build 0)  -->
<svg version="1.1" xmlns="http://www.w3.org/2000/svg" xmlns:xlink="http://www.w3.org/1999/xlink" x="0px" y="0px"
	 viewBox="0 0 500 500" style="enable-background:new 0 0 500 500;" xml:space="preserve">
<g id="Background_Simple">
	<g>
		<path style="fill:#92E3A9;" d="M453.064,406.878c-1.775,2.907-3.617,5.758-5.536,8.54
			c-25.553,37.039-67.129,61.769-107.188,72.415c-17.549,4.673-35.499,6.888-53.367,7.108
			c-117.194,1.39-157.58-100.475-194.625-127.434C55.303,340.55-1.427,294.674,8.265,201.66
			c7.358-70.721,47.75-137.474,119.102-166.471c7.859-3.204,16.101-5.949,24.713-8.179c16.021-4.151,33.331-6.569,51.923-6.947
			c53.403-1.091,96.362,13.456,137.845,48.349c9.643,8.111,19.207,17.225,31.96,18.529c9.271,0.948,18.168-2.306,8.703-11.927
			c-11.124-11.309,2.607-32.623,31.182-16.822c47.727,26.391,66.216,81.128,74.156,136.505
			C497.596,262.669,489.826,346.683,453.064,406.878z"/>
		<path style="opacity:0.7;fill:#FFFFFF;" d="M453.064,406.878c-1.775,2.907-3.617,5.758-5.536,8.54
			c-25.553,37.039-67.129,61.769-107.188,72.415c-17.549,4.673-35.499,6.888-53.367,7.108
			c-117.194,1.39-157.58-100.475-194.625-127.434C55.303,340.55-1.427,294.674,8.265,201.66
			c7.358-70.721,47.75-137.474,119.102-166.471c7.859-3.204,16.101-5.949,24.713-8.179c16.021-4.151,33.331-6.569,51.923-6.947
			c53.403-1.091,96.362,13.456,137.845,48.349c9.643,8.111,19.207,17.225,31.96,18.529c9.271,0.948,18.168-2.306,8.703-11.927
			c-11.124-11.309,2.607-32.623,31.182-16.822c47.727,26.391,66.216,81.128,74.156,136.505
			C497.596,262.669,489.826,346.683,453.064,406.878z"/>
	</g>
</g>
<g id="Floor">
	
		<line style="fill:none;stroke:#263238;stroke-linejoin:round;stroke-miterlimit:10;" x1="491.275" y1="438.534" x2="2.002" y2="438.534"/>
</g>
<g id="Plant">
	<g>
		<g>
			<g>
				<path style="fill:#A6A6A6;stroke:#263238;stroke-linecap:round;stroke-linejoin:round;stroke-miterlimit:10;" d="
					M414.249,203.379c0,0,0,26.447,0.566,29.275c0.566,2.829,2.232,3.992,2.232,3.992l2.152,163.246l4.667,0.283l-2.829-118.87
					l-1.065-44.659c0,0,1.913,0.11,2.055-4.557c0.141-4.667,2.687-23.477,2.687-23.477l-1.839-0.566c0,0-2.829,23.335-3.394,24.043
					c-0.566,0.707-2.121-1.414-2.404-3.677c-0.283-2.263,0-25.174,0-25.174L414.249,203.379z"/>
				<path style="fill:#263238;stroke:#263238;stroke-linecap:round;stroke-linejoin:round;stroke-miterlimit:10;" d="
					M419.973,236.646c0.2-0.077,0.43-0.165,0.671-0.256c0.566-0.41,1.298-1.481,1.383-4.301c0.141-4.667,2.687-23.477,2.687-23.477
					l-1.839-0.566c0,0-2.829,23.335-3.394,24.043c-0.566,0.707-2.121-1.414-2.404-3.677c-0.283-2.263,0-25.174,0-25.174
					l-2.829,0.142c0,0,0,26.447,0.566,29.275c0.566,2.829,2.232,3.992,2.232,3.992S417.736,237.506,419.973,236.646z"/>
				<path style="fill:#263238;stroke:#263238;stroke-linecap:round;stroke-linejoin:round;stroke-miterlimit:10;" d="
					M419.07,202.931c0,0,5.374-7.496,14.001-11.031c8.627-3.536,24.184-5.798,24.75-5.798s-14.567,4.808-19.234,6.93
					c-4.667,2.121-10.749,5.374-12.587,7.354c-1.839,1.98-10.466,15.84-10.466,15.84S415.817,210.568,419.07,202.931z"/>
				<path style="fill:#92E3A9;stroke:#263238;stroke-linecap:round;stroke-linejoin:round;stroke-miterlimit:10;" d="
					M404.329,178.524c0,0-5.374-7.496-14.001-11.031c-8.627-3.536-24.184-5.798-24.75-5.798c-0.566,0,14.567,4.809,19.234,6.93
					c4.667,2.121,10.749,5.374,12.587,7.354c1.839,1.98,10.466,15.84,10.466,15.84S407.581,186.161,404.329,178.524z"/>
				<path style="fill:#92E3A9;stroke:#263238;stroke-linecap:round;stroke-linejoin:round;stroke-miterlimit:10;" d="
					M416.208,199.596c0,0-14.708-21.78-18.81-23.618c-4.101-1.839-7.354-3.536-12.87-2.121c-5.516,1.414-16.971,7.637-19.093,8.768
					c-2.121,1.131-4.95,3.111-6.081,3.677c-1.131,0.566,14.567-8.769,23.335-9.9c8.768-1.132,10.324,3.111,19.8,10.465
					C411.966,194.222,416.208,199.596,416.208,199.596z"/>
				<path style="fill:#92E3A9;stroke:#263238;stroke-linecap:round;stroke-linejoin:round;stroke-miterlimit:10;" d="
					M416.208,199.596c0,0-9.759-15.557-16.406-17.254c-6.647-1.697-14.567,1.98-17.254,3.536
					c-2.687,1.556-6.647,10.324-7.496,13.718c-0.849,3.394-1.414,5.94-1.414,5.94s8.486-13.86,11.88-15.981
					c3.394-2.121,8.627-5.374,10.183-5.657C397.257,183.615,412.814,193.091,416.208,199.596z"/>
				<path style="fill:#92E3A9;stroke:#263238;stroke-linecap:round;stroke-linejoin:round;stroke-miterlimit:10;" d="
					M412.249,191.535c0,0-18.951-12.729-28.851-12.587c-9.9,0.141-22.204,3.818-25.457,4.384
					c-3.253,0.566-6.506,36.418-6.506,36.418s14.001-32.458,18.668-32.317c4.667,0.141,19.941-4.243,25.033-2.546
					C400.227,186.585,412.249,191.535,412.249,191.535z"/>
				<path style="fill:#92E3A9;stroke:#263238;stroke-linecap:round;stroke-linejoin:round;stroke-miterlimit:10;" d="
					M415.926,204.546c0,0-6.081-11.456-11.173-14.001c-5.091-2.546-10.183,1.98-18.244,5.091
					c-8.061,3.111-14.143,5.233-14.143,5.233s13.294,0.707,18.386-1.132c5.091-1.838,13.153-5.374,14.991-5.091
					C407.581,194.929,415.926,204.546,415.926,204.546z"/>
				<path style="fill:#263238;stroke:#263238;stroke-linecap:round;stroke-linejoin:round;stroke-miterlimit:10;" d="
					M420.331,208.329c0,0-5.374-28.992-5.374-39.6c0-10.607,0.141-15.133,0.141-15.133s3.536,13.86,3.96,15.557
					c0.424,1.697,0.424,4.526,0.424,4.526s2.546-14.991,5.799-18.668c3.253-3.677,7.354-5.516,7.354-5.516s-3.677,6.93-4.384,8.91
					c-0.707,1.98,2.97-2.687,6.93-3.819c3.96-1.131,13.719-3.253,13.719-3.253s-13.011,5.233-14.567,6.93
					c-1.556,1.697-5.374,7.92-5.657,8.627c-0.283,0.707-4.95,8.768-6.223,13.436S420.331,208.329,420.331,208.329z"/>
				<path style="fill:#92E3A9;stroke:#263238;stroke-linecap:round;stroke-linejoin:round;stroke-miterlimit:10;" d="
					M423.583,173.113l11.031-7.354c0,0,13.577-2.121,15.84-1.414c2.263,0.707,5.374,2.829,5.374,2.829s-8.768-0.848-12.587,0.99
					c-3.818,1.839-12.163,5.091-17.113,11.738c-4.95,6.647-6.788,14.001-7.354,16.406c-0.566,2.404-1.697,6.93-1.697,6.93
					s-2.546-12.304-1.556-17.254C416.512,181.033,423.583,173.113,423.583,173.113z"/>
				<path style="fill:#92E3A9;stroke:#263238;stroke-linecap:round;stroke-linejoin:round;stroke-miterlimit:10;" d="
					M409.724,165.194c0,0,6.506,8.768,7.496,11.597c0.99,2.828,2.546-7.071,9.476-13.153c6.93-6.081,29.275-9.758,29.275-9.758
					s-27.154,13.153-31.255,18.385c-4.102,5.233-8.061,14.143-8.061,14.567c0,0.424,0,5.233,0,5.233L409.724,165.194z"/>
				<path style="fill:#263238;stroke:#263238;stroke-linecap:round;stroke-linejoin:round;stroke-miterlimit:10;" d="
					M414.403,183.592c0,0-9.051-15.557-13.718-20.931c-4.667-5.374-20.083-17.396-20.083-17.396s6.364,7.92,14.567,19.093
					c8.203,11.173,21.214,27.578,21.214,27.578L414.403,183.592z"/>
				<path style="fill:#92E3A9;stroke:#263238;stroke-linecap:round;stroke-linejoin:round;stroke-miterlimit:10;" d="
					M413.118,213.986c0,0-14.708-12.021-22.487-9.051c-7.778,2.97-16.688,12.445-16.688,12.445l-1.98,10.749
					c0,0,10.466-15.133,14.991-17.254c4.526-2.121,10.89-2.97,14.001-2.263c3.111,0.707,12.304,8.486,12.728,9.476
					C414.108,219.077,413.118,213.986,413.118,213.986z"/>
				<path style="fill:#92E3A9;stroke:#263238;stroke-linecap:round;stroke-linejoin:round;stroke-miterlimit:10;" d="
					M409.299,178.346c0,0-2.829-2.546-4.667-12.728c-1.839-10.183,0.283-19.376,0.283-19.376s0.99,6.081,3.253,13.153
					c2.263,7.071,2.263,9.617,5.657,20.083c3.394,10.466,3.818,29.275,3.677,29.7C417.361,209.602,409.299,178.346,409.299,178.346z
					"/>
				<path style="fill:#263238;stroke:#263238;stroke-linecap:round;stroke-linejoin:round;stroke-miterlimit:10;" d="
					M432.493,181.316c0,0,4.384-5.657,10.041-7.354c5.657-1.697,11.456-1.556,11.456-1.556s-8.486-2.404-14.143-1.273
					c-5.657,1.132-10.041,7.779-12.021,14.001c-1.98,6.223-1.98,20.79-1.98,20.79S428.958,186.832,432.493,181.316z"/>
				<path style="fill:#92E3A9;stroke:#263238;stroke-linecap:round;stroke-linejoin:round;stroke-miterlimit:10;" d="
					M411.22,186.798c0,0,0.305-5.955-4.428-12.826c-4.733-6.871-14.353-10.688-21.071-13.589
					c-6.718-2.901-10.688-4.123-10.688-4.123s15.116,11.91,19.086,13.589c3.97,1.68,6.871,3.97,9.62,7.176
					c2.748,3.206,7.635,14.964,7.635,15.727C411.373,193.516,411.22,186.798,411.22,186.798z"/>
				<path style="fill:#92E3A9;stroke:#263238;stroke-linecap:round;stroke-linejoin:round;stroke-miterlimit:10;" d="
					M428.251,195.318c0,0,5.374-7.496,14.001-11.031c8.627-3.536,24.184-5.798,24.75-5.798s-14.567,4.809-19.234,6.93
					c-4.667,2.121-10.748,5.374-12.587,7.354c-1.839,1.98-10.465,15.84-10.465,15.84S424.998,202.955,428.251,195.318z"/>
				<path style="fill:#92E3A9;stroke:#263238;stroke-linecap:round;stroke-linejoin:round;stroke-miterlimit:10;" d="
					M416.371,216.39c0,0,14.708-21.78,18.81-23.618c4.101-1.839,7.354-3.536,12.87-2.121c5.516,1.414,16.971,7.637,19.093,8.768
					c2.121,1.131,4.95,3.111,6.081,3.677c1.131,0.566-14.567-8.768-23.336-9.9c-8.768-1.131-10.324,3.111-19.8,10.466
					C420.613,211.016,416.371,216.39,416.371,216.39z"/>
				<path style="fill:#263238;stroke:#263238;stroke-linecap:round;stroke-linejoin:round;stroke-miterlimit:10;" d="
					M416.371,216.39c0,0,9.758-15.557,16.405-17.254c6.647-1.697,14.567,1.98,17.254,3.536c2.687,1.556,6.647,10.324,7.496,13.718
					c0.849,3.394,1.414,5.94,1.414,5.94s-8.486-13.86-11.88-15.981s-8.627-5.374-10.183-5.657
					C435.322,200.409,419.765,209.885,416.371,216.39z"/>
				<path style="fill:#92E3A9;stroke:#263238;stroke-linecap:round;stroke-linejoin:round;stroke-miterlimit:10;" d="
					M420.331,208.329c0,0,18.951-12.728,28.851-12.587c9.9,0.141,22.204,3.818,25.457,4.384c3.253,0.566,6.506-0.283,6.506-0.283
					s-14.001,4.243-18.668,4.384c-4.667,0.141-19.941-4.243-25.033-2.546C432.352,203.379,420.331,208.329,420.331,208.329z"/>
				<path style="fill:#92E3A9;stroke:#263238;stroke-linecap:round;stroke-linejoin:round;stroke-miterlimit:10;" d="
					M425.422,202.672c0,0-3.253-9.9,0.141-17.113c3.394-7.213,7.779-17.113,7.779-17.113s1.556,12.587-1.132,21.073
					C429.523,198.005,425.422,202.672,425.422,202.672z"/>
				<path style="fill:#92E3A9;stroke:#263238;stroke-linecap:round;stroke-linejoin:round;stroke-miterlimit:10;" d="
					M417.219,209.885c0,0,0-12.304-8.486-18.103c-8.486-5.799-17.961-7.637-21.355-5.799c-3.394,1.839-13.577,7.496-16.547,11.314
					c-2.97,3.819-5.374,6.788-5.374,6.788s14.991-9.9,19.658-13.294c4.667-3.394,6.93-4.243,8.627-3.818
					c1.697,0.424,11.456,4.95,15.274,7.92C412.835,197.863,417.219,209.885,417.219,209.885z"/>
				<path style="fill:#263238;stroke:#263238;stroke-linecap:round;stroke-linejoin:round;stroke-miterlimit:10;" d="
					M417.502,211.865c-0.142-0.424,0.283-3.677-5.516-4.101c-5.798-0.424-10.183,2.121-11.173,4.243
					c-0.99,2.121,0,7.778,0.141,8.344c0.141,0.566,0.849-7.496,7.637-9.051C415.381,209.743,417.502,211.865,417.502,211.865z"/>
				<path style="fill:#92E3A9;stroke:#263238;stroke-linecap:round;stroke-linejoin:round;stroke-miterlimit:10;" d="
					M415.239,217.097c0,0-1.839-3.96-5.516-8.203s-11.597-8.203-15.415-5.799c-3.819,2.404-8.203,12.446-9.617,15.274
					c-1.414,2.829-4.667,11.456-4.95,11.88c-0.283,0.424,8.344-7.637,12.021-12.446c3.677-4.809,6.223-11.456,8.344-12.021
					c2.121-0.566,6.506,3.677,6.506,3.677l10.466,15.133L415.239,217.097z"/>
				<path style="fill:#92E3A9;stroke:#263238;stroke-linecap:round;stroke-linejoin:round;stroke-miterlimit:10;" d="
					M415.805,206.773c0,0-1.839-8.486-8.203-10.748c-6.364-2.263-14.001-3.111-16.971-1.414
					c-2.97,1.697-15.981,13.718-15.981,13.718l-1.697,4.384c0,0,19.093-14.001,23.477-15.416c4.384-1.414,4.384-1.414,9.051,1.414
					C410.148,201.54,415.805,206.773,415.805,206.773z"/>
				<path style="fill:#92E3A9;stroke:#263238;stroke-linecap:round;stroke-linejoin:round;stroke-miterlimit:10;" d="
					M414.674,206.773c0,0-18.527-11.173-22.487-12.587c-3.96-1.414-12.87,2.121-15.416,5.374
					c-2.546,3.253-11.455,20.931-11.88,22.204c-0.424,1.273,5.94-13.719,15.557-18.103c9.617-4.384,15.84-3.536,21.497-2.97
					c5.657,0.566,12.728,10.041,12.728,10.041V206.773z"/>
				<path style="fill:#92E3A9;stroke:#263238;stroke-linecap:round;stroke-linejoin:round;stroke-miterlimit:10;" d="
					M416.654,221.34c0,0,6.081-11.456,11.173-14.001c5.091-2.546,10.183,1.98,18.244,5.091c8.061,3.111,14.143,5.233,14.143,5.233
					s-13.294,0.707-18.386-1.131c-5.091-1.839-13.153-5.374-14.991-5.091C424.998,211.723,416.654,221.34,416.654,221.34z"/>
				<path style="fill:#92E3A9;stroke:#263238;stroke-linecap:round;stroke-linejoin:round;stroke-miterlimit:10;" d="
					M417.219,209.885c0,0,3.111-8.91,4.95-20.507c1.839-11.597-1.273-32.387-4.243-38.609c-2.97-6.223-11.738-16.406-11.738-16.406
					s15.557,13.577,18.951,26.305c3.394,12.729,3.96,19.517,2.546,26.447C426.271,194.045,417.219,209.885,417.219,209.885z"/>
				<g>
					<path style="fill:#92E3A9;stroke:#263238;stroke-linecap:round;stroke-linejoin:round;stroke-miterlimit:10;" d="
						M413.511,191.989c0,0-1.374-5.191-2.901-6.26c-1.527-1.069-4.581,0.153-4.581,0.153s5.344,4.733,5.344,6.871
						c0,2.138,5.429,15.009,5.429,15.009L413.511,191.989z"/>
					<path style="fill:#92E3A9;stroke:#263238;stroke-linecap:round;stroke-linejoin:round;stroke-miterlimit:10;" d="
						M410.61,185.729c0,0-2.29,1.602-4.078,3.22c-1.788,1.617-10.301,10.045-10.811,10.556c-0.511,0.511,4.427-10.726,5.533-12.855
						c1.107-2.128,3.065-3.661,3.66-3.575C405.51,183.16,410.772,184.382,410.61,185.729z"/>
				</g>
			</g>
			<g>
				<path style="fill:#A6A6A6;stroke:#263238;stroke-linecap:round;stroke-linejoin:round;stroke-miterlimit:10;" d="
					M442.903,243.479c0,0,0,23.175-0.496,25.654c-0.496,2.478-1.956,3.498-1.956,3.498l-1.886,147.592l-4.09,0.248l2.479-108.705
					l0.933-39.135c0,0-1.677,0.096-1.801-3.994c-0.124-4.09-2.355-20.573-2.355-20.573l1.611-0.496c0,0,2.479,20.449,2.974,21.068
					c0.496,0.62,1.859-1.239,2.107-3.222c0.248-1.983,0-22.06,0-22.06L442.903,243.479z"/>
				<path style="fill:#263238;stroke:#263238;stroke-linecap:round;stroke-linejoin:round;stroke-miterlimit:10;" d="
					M437.888,272.631c-0.176-0.067-0.377-0.144-0.588-0.224c-0.496-0.359-1.137-1.298-1.212-3.769
					c-0.124-4.09-2.355-20.573-2.355-20.573l1.611-0.496c0,0,2.479,20.449,2.974,21.068c0.496,0.62,1.859-1.239,2.107-3.222
					c0.248-1.983,0-22.06,0-22.06l2.479,0.124c0,0,0,23.175-0.496,25.654c-0.496,2.478-1.956,3.498-1.956,3.498
					S439.848,273.385,437.888,272.631z"/>
				<path style="fill:#263238;stroke:#263238;stroke-linecap:round;stroke-linejoin:round;stroke-miterlimit:10;" d="
					M438.679,243.087c0,0-4.709-6.568-12.269-9.667c-7.56-3.098-21.192-5.081-21.688-5.081s12.765,4.214,16.855,6.073
					c4.09,1.859,9.419,4.709,11.03,6.444c1.611,1.735,9.171,13.88,9.171,13.88S441.529,249.779,438.679,243.087z"/>
				<path style="fill:#92E3A9;stroke:#263238;stroke-linecap:round;stroke-linejoin:round;stroke-miterlimit:10;" d="
					M451.597,221.699c0,0,4.709-6.568,12.269-9.667c7.56-3.098,21.192-5.081,21.688-5.081c0.496,0-12.765,4.214-16.855,6.073
					c-4.09,1.859-9.419,4.709-11.03,6.445c-1.611,1.735-9.171,13.88-9.171,13.88S448.746,228.391,451.597,221.699z"/>
				<path style="fill:#92E3A9;stroke:#263238;stroke-linecap:round;stroke-linejoin:round;stroke-miterlimit:10;" d="
					M441.187,240.165c0,0,12.889-19.085,16.483-20.697s6.444-3.098,11.278-1.859c4.833,1.239,14.872,6.692,16.731,7.684
					c1.859,0.991,4.338,2.726,5.329,3.222c0.991,0.496-12.765-7.684-20.449-8.675c-7.684-0.991-9.047,2.727-17.35,9.171
					C444.905,235.455,441.187,240.165,441.187,240.165z"/>
				<path style="fill:#92E3A9;stroke:#263238;stroke-linecap:round;stroke-linejoin:round;stroke-miterlimit:10;" d="
					M441.187,240.165c0,0,8.551-13.632,14.376-15.12s12.765,1.735,15.12,3.098s5.825,9.047,6.568,12.021
					c0.744,2.974,1.239,5.205,1.239,5.205s-7.436-12.145-10.41-14.004c-2.974-1.859-7.56-4.709-8.923-4.957
					C457.793,226.161,444.161,234.464,441.187,240.165z"/>
				<path style="fill:#92E3A9;stroke:#263238;stroke-linecap:round;stroke-linejoin:round;stroke-miterlimit:10;" d="
					M444.657,233.101c0,0,16.607-11.154,25.282-11.03c8.675,0.124,19.457,3.346,22.308,3.842s5.701-0.248,5.701-0.248
					s-12.269,3.718-16.359,3.842c-4.09,0.124-17.474-3.718-21.936-2.231C455.191,228.763,444.657,233.101,444.657,233.101z"/>
				<path style="fill:#92E3A9;stroke:#263238;stroke-linecap:round;stroke-linejoin:round;stroke-miterlimit:10;" d="
					M441.434,244.502c0,0,5.329-10.038,9.791-12.269c4.461-2.231,8.923,1.735,15.987,4.462c7.064,2.727,12.393,4.586,12.393,4.586
					s-11.65,0.62-16.111-0.991c-4.462-1.611-11.526-4.709-13.137-4.462C448.746,236.075,441.434,244.502,441.434,244.502z"/>
				<path style="fill:#263238;stroke:#263238;stroke-linecap:round;stroke-linejoin:round;stroke-miterlimit:10;" d="
					M437.574,247.817c0,0,4.709-25.406,4.709-34.701c0-9.295-0.124-13.261-0.124-13.261s-3.098,12.145-3.47,13.632
					c-0.372,1.487-0.372,3.966-0.372,3.966s-2.231-13.137-5.081-16.359c-2.85-3.222-6.444-4.833-6.444-4.833
					s3.222,6.073,3.842,7.808c0.62,1.735-2.603-2.355-6.073-3.346s-12.021-2.85-12.021-2.85s11.402,4.585,12.765,6.073
					c1.363,1.487,4.709,6.94,4.957,7.56c0.248,0.62,4.337,7.684,5.453,11.773C436.831,227.368,437.574,247.817,437.574,247.817z"/>
				<path style="fill:#92E3A9;stroke:#263238;stroke-linecap:round;stroke-linejoin:round;stroke-miterlimit:10;" d="
					M434.724,216.958l-9.667-6.444c0,0-11.897-1.859-13.88-1.239c-1.983,0.62-4.709,2.479-4.709,2.479s7.684-0.744,11.03,0.867
					c3.346,1.611,10.658,4.462,14.996,10.286c4.338,5.825,5.949,12.269,6.444,14.376c0.496,2.107,1.487,6.073,1.487,6.073
					s2.231-10.782,1.363-15.12S434.724,216.958,434.724,216.958z"/>
				<path style="fill:#92E3A9;stroke:#263238;stroke-linecap:round;stroke-linejoin:round;stroke-miterlimit:10;" d="
					M446.869,210.018c0,0-5.701,7.684-6.568,10.162c-0.867,2.479-2.231-6.197-8.303-11.526c-6.073-5.329-25.654-8.551-25.654-8.551
					s23.795,11.526,27.389,16.111c3.594,4.585,7.064,12.393,7.064,12.765c0,0.372,0,4.586,0,4.586L446.869,210.018z"/>
				<path style="fill:#263238;stroke:#263238;stroke-linecap:round;stroke-linejoin:round;stroke-miterlimit:10;" d="
					M442.769,226.14c0,0,7.932-13.632,12.021-18.342c4.09-4.709,17.598-15.244,17.598-15.244s-5.577,6.94-12.765,16.731
					c-7.188,9.791-18.59,24.167-18.59,24.167L442.769,226.14z"/>
				<path style="fill:#92E3A9;stroke:#263238;stroke-linecap:round;stroke-linejoin:round;stroke-miterlimit:10;" d="
					M443.895,252.774c0,0,12.889-10.534,19.705-7.932c6.816,2.602,14.624,10.906,14.624,10.906l1.735,9.419
					c0,0-9.171-13.261-13.137-15.12c-3.966-1.859-9.543-2.603-12.269-1.983c-2.726,0.62-10.782,7.436-11.154,8.303
					C443.027,257.236,443.895,252.774,443.895,252.774z"/>
				<path style="fill:#92E3A9;stroke:#263238;stroke-linecap:round;stroke-linejoin:round;stroke-miterlimit:10;" d="
					M447.241,221.543c0,0,2.479-2.231,4.09-11.154c1.611-8.923-0.248-16.979-0.248-16.979s-0.868,5.329-2.85,11.526
					c-1.983,6.197-1.983,8.427-4.957,17.598c-2.974,9.171-3.346,25.654-3.222,26.026
					C440.177,248.932,447.241,221.543,447.241,221.543z"/>
				<path style="fill:#263238;stroke:#263238;stroke-linecap:round;stroke-linejoin:round;stroke-miterlimit:10;" d="
					M426.916,224.146c0,0-3.842-4.957-8.799-6.444c-4.957-1.487-10.039-1.363-10.039-1.363s7.436-2.107,12.393-1.115
					c4.957,0.992,8.799,6.816,10.534,12.269c1.735,5.453,1.735,18.218,1.735,18.218S430.014,228.979,426.916,224.146z"/>
				<path style="fill:#92E3A9;stroke:#263238;stroke-linecap:round;stroke-linejoin:round;stroke-miterlimit:10;" d="
					M445.558,228.949c0,0-0.268-5.218,3.88-11.239c4.148-6.021,12.577-9.366,18.465-11.908c5.887-2.542,9.366-3.613,9.366-3.613
					s-13.246,10.436-16.725,11.908c-3.479,1.472-6.021,3.479-8.43,6.289c-2.408,2.81-6.69,13.113-6.69,13.782
					C445.424,234.837,445.558,228.949,445.558,228.949z"/>
				<path style="fill:#92E3A9;stroke:#263238;stroke-linecap:round;stroke-linejoin:round;stroke-miterlimit:10;" d="
					M430.634,236.415c0,0-4.709-6.568-12.269-9.667c-7.56-3.098-21.192-5.081-21.688-5.081s12.765,4.214,16.855,6.073
					c4.09,1.859,9.419,4.709,11.03,6.444c1.611,1.735,9.171,13.88,9.171,13.88S433.485,243.107,430.634,236.415z"/>
				<path style="fill:#92E3A9;stroke:#263238;stroke-linecap:round;stroke-linejoin:round;stroke-miterlimit:10;" d="
					M441.044,254.881c0,0-12.889-19.085-16.483-20.697c-3.594-1.611-6.444-3.098-11.278-1.859
					c-4.833,1.239-14.872,6.692-16.731,7.684c-1.859,0.992-4.338,2.727-5.329,3.222c-0.991,0.496,12.765-7.684,20.449-8.675
					c7.684-0.992,9.047,2.726,17.351,9.171C437.326,250.172,441.044,254.881,441.044,254.881z"/>
				<path style="fill:#263238;stroke:#263238;stroke-linecap:round;stroke-linejoin:round;stroke-miterlimit:10;" d="
					M441.044,254.881c0,0-8.551-13.632-14.376-15.12c-5.825-1.487-12.765,1.735-15.12,3.098c-2.355,1.363-5.825,9.047-6.568,12.021
					c-0.744,2.974-1.239,5.205-1.239,5.205s7.436-12.145,10.41-14.004c2.974-1.859,7.56-4.709,8.923-4.957
					C424.438,240.877,438.07,249.18,441.044,254.881z"/>
				<path style="fill:#92E3A9;stroke:#263238;stroke-linecap:round;stroke-linejoin:round;stroke-miterlimit:10;" d="
					M437.574,247.817c0,0-16.607-11.154-25.282-11.03c-8.675,0.124-19.457,3.346-22.308,3.842c-2.85,0.496-5.701-0.248-5.701-0.248
					s12.269,3.718,16.359,3.842c4.09,0.124,17.474-3.718,21.936-2.231C427.04,243.479,437.574,247.817,437.574,247.817z"/>
				<path style="fill:#92E3A9;stroke:#263238;stroke-linecap:round;stroke-linejoin:round;stroke-miterlimit:10;" d="
					M433.113,242.86c0,0,2.85-8.675-0.124-14.996c-2.974-6.321-6.816-14.996-6.816-14.996s-1.363,11.03,0.991,18.466
					C429.519,238.77,433.113,242.86,433.113,242.86z"/>
				<path style="fill:#92E3A9;stroke:#263238;stroke-linecap:round;stroke-linejoin:round;stroke-miterlimit:10;" d="
					M440.301,249.18c0,0,0-10.782,7.436-15.863c7.436-5.081,15.739-6.692,18.714-5.081c2.974,1.611,11.897,6.568,14.5,9.915
					c2.603,3.346,4.709,5.949,4.709,5.949s-13.137-8.675-17.227-11.65s-6.073-3.718-7.56-3.346
					c-1.487,0.372-10.038,4.338-13.385,6.94C444.143,238.646,440.301,249.18,440.301,249.18z"/>
				<path style="fill:#263238;stroke:#263238;stroke-linecap:round;stroke-linejoin:round;stroke-miterlimit:10;" d="
					M440.053,250.915c0.124-0.372-0.248-3.222,4.833-3.594c5.081-0.372,8.923,1.859,9.791,3.718c0.868,1.859,0,6.816-0.124,7.312
					c-0.124,0.496-0.744-6.568-6.692-7.932C441.912,249.056,440.053,250.915,440.053,250.915z"/>
				<path style="fill:#92E3A9;stroke:#263238;stroke-linecap:round;stroke-linejoin:round;stroke-miterlimit:10;" d="
					M442.036,255.501c0,0,1.611-3.47,4.833-7.188c3.222-3.718,10.162-7.188,13.508-5.081c3.346,2.107,7.188,10.906,8.427,13.385
					c1.239,2.479,4.09,10.038,4.338,10.41c0.248,0.372-7.312-6.692-10.534-10.906c-3.222-4.214-5.453-10.038-7.312-10.534
					c-1.859-0.496-5.701,3.222-5.701,3.222l-9.171,13.261L442.036,255.501z"/>
				<path style="fill:#92E3A9;stroke:#263238;stroke-linecap:round;stroke-linejoin:round;stroke-miterlimit:10;" d="
					M441.54,246.454c0,0,1.611-7.436,7.188-9.419c5.577-1.983,12.269-2.726,14.872-1.239c2.603,1.487,14.004,12.021,14.004,12.021
					l1.487,3.842c0,0-16.731-12.269-20.573-13.508c-3.842-1.239-3.842-1.239-7.932,1.239
					C446.497,241.868,441.54,246.454,441.54,246.454z"/>
				<path style="fill:#92E3A9;stroke:#263238;stroke-linecap:round;stroke-linejoin:round;stroke-miterlimit:10;" d="
					M442.531,246.454c0,0,16.235-9.791,19.705-11.03c3.47-1.239,11.278,1.859,13.508,4.709c2.231,2.85,10.039,18.342,10.41,19.457
					c0.372,1.115-5.205-12.021-13.633-15.863c-8.427-3.842-13.88-3.098-18.838-2.602c-4.957,0.496-11.154,8.799-11.154,8.799
					V246.454z"/>
				<path style="fill:#92E3A9;stroke:#263238;stroke-linecap:round;stroke-linejoin:round;stroke-miterlimit:10;" d="
					M440.797,259.219c0,0-5.329-10.038-9.791-12.269c-4.461-2.231-8.923,1.735-15.987,4.462c-7.064,2.727-12.393,4.585-12.393,4.585
					s11.65,0.62,16.111-0.992c4.462-1.611,11.526-4.709,13.137-4.462C433.485,250.791,440.797,259.219,440.797,259.219z"/>
				<path style="fill:#92E3A9;stroke:#263238;stroke-linecap:round;stroke-linejoin:round;stroke-miterlimit:10;" d="
					M440.301,249.18c0,0-2.727-7.808-4.338-17.97c-1.611-10.162,1.115-28.38,3.718-33.833c2.603-5.453,10.286-14.376,10.286-14.376
					s-13.632,11.897-16.607,23.051c-2.974,11.154-3.47,17.103-2.231,23.175C432.369,235.3,440.301,249.18,440.301,249.18z"/>
				<g>
					<path style="fill:#92E3A9;stroke:#263238;stroke-linecap:round;stroke-linejoin:round;stroke-miterlimit:10;" d="
						M443.55,233.499c0,0,1.204-4.549,2.542-5.486c1.338-0.937,4.014,0.134,4.014,0.134s-4.683,4.148-4.683,6.021
						c0,1.873-4.757,13.152-4.757,13.152L443.55,233.499z"/>
					<path style="fill:#92E3A9;stroke:#263238;stroke-linecap:round;stroke-linejoin:round;stroke-miterlimit:10;" d="
						M446.093,228.013c0,0,2.007,1.404,3.574,2.822c1.566,1.417,9.026,8.803,9.474,9.25s-3.879-9.399-4.849-11.264
						c-0.97-1.865-2.685-3.208-3.208-3.133C450.561,225.762,445.951,226.833,446.093,228.013z"/>
				</g>
			</g>
			<g>
				<path style="fill:#263238;stroke:#263238;stroke-linecap:round;stroke-linejoin:round;stroke-miterlimit:10;" d="
					M442.298,293.636c0,0,11.415-4.165,18.356-6.479c6.941-2.314,12.186,3.394,12.186,3.394s-8.638,1.234-11.723,1.388
					c-3.085,0.154-7.713,0.309-10.489,1.388c-2.777,1.08,5.553,0.926,8.33,3.702c2.777,2.777,8.638,9.872,9.564,12.032
					c0.926,2.159-9.409-10.181-16.659-12.032c-7.25-1.851-12.957,2.005-12.957,2.005L442.298,293.636z"/>
				<path style="fill:#A6A6A6;stroke:#263238;stroke-linecap:round;stroke-linejoin:round;stroke-miterlimit:10;" d="
					M431.038,310.604c0,0,1.08,5.09,0,19.282c-1.08,14.191-2.16,71.099-2.16,71.099l3.702,0.463c0,0,1.851-76.498,1.851-79.121
					c0-2.622,0.154-12.032,0.154-12.032L431.038,310.604z"/>
				<path style="fill:#92E3A9;stroke:#263238;stroke-linecap:round;stroke-linejoin:round;stroke-miterlimit:10;" d="
					M433.968,295.641c-0.287-0.627-4.628-9.872-6.941-11.415c-2.314-1.543-8.175-3.702-10.798-3.702
					c-2.622,0-9.409,0.771-9.409,0.771s12.032,2.777,15.425,5.399c3.394,2.622,9.255,8.638,9.41,9.718
					c0.154,1.08,1.388,3.548,1.388,3.548S435.665,299.343,433.968,295.641z"/>
				<path style="fill:#263238;stroke:#263238;stroke-linecap:round;stroke-linejoin:round;stroke-miterlimit:10;" d="
					M430.575,301.657c0,0-9.255-1.08-12.649,1.388c-3.394,2.468-9.409,9.409-9.409,13.112c0,3.702,0.309,12.186,0.309,11.415
					c0-0.771,1.697-12.803,5.553-16.505c3.856-3.702,5.553-5.862,10.643-6.479c5.09-0.617,5.09-0.617,5.09-0.617l5.245,2.776
					L430.575,301.657z"/>
				<path style="fill:#92E3A9;stroke:#263238;stroke-linecap:round;stroke-linejoin:round;stroke-miterlimit:10;" d="
					M437.66,299.415c0,0,1.851-1.543,8.484-2.468c6.633-0.925,8.484-1.542,12.649-0.771c4.165,0.771,8.638,2.468,8.638,2.468
					s-13.266-0.309-14.5-0.309c-1.234,0,8.021,6.016,9.718,7.867c1.697,1.851,3.239,5.707,3.239,5.707s-13.266-9.564-15.58-10.643
					c-2.314-1.08-3.239-1.697-3.239-1.697s-3.702-0.617-5.245-0.154c-1.542,0.463-2.776,0.926-3.239,1.08
					c-0.463,0.154-2.16,0.617-2.16,0.617L437.66,299.415z"/>
				<path style="fill:#92E3A9;stroke:#263238;stroke-linecap:round;stroke-linejoin:round;stroke-miterlimit:10;" d="
					M435.665,294.407c0,0,0.771-8.947,5.09-12.957s19.127-11.723,19.127-11.723l9.101-4.473c0,0-2.622,5.862-8.175,8.175
					c-5.553,2.314-7.404,0.617-10.027,3.394c-2.622,2.776-6.787,8.484-7.558,11.106c-0.771,2.622-5.862,9.872-6.17,11.569
					C436.745,301.194,435.665,294.407,435.665,294.407z"/>
				<path style="fill:#92E3A9;stroke:#263238;stroke-linecap:round;stroke-linejoin:round;stroke-miterlimit:10;" d="
					M436.282,296.875c0,0,0.926-13.883-0.617-17.431c-1.543-3.548-6.324-11.723-7.404-13.574c-1.08-1.851-2.468-3.394-2.468-3.394
					s3.856,12.186,4.936,18.51c1.08,6.324,1.234,8.33,1.542,10.952c0.309,2.622,0.617,4.936,0.617,4.936H436.282z"/>
				<path style="fill:#92E3A9;stroke:#263238;stroke-linecap:round;stroke-linejoin:round;stroke-miterlimit:10;" d="
					M434.277,301.966c0,0,2.005-5.553,5.09-10.489c3.085-4.936,7.558-6.016,8.33-6.016c0.771,0,3.394,0,3.394,0
					s-6.016,2.931-6.787,5.707c-0.771,2.777-2.468,8.484-3.702,9.718c-1.234,1.234-4.319,7.713-5.09,9.255
					c-0.771,1.542-2.777,2.314-2.777,2.314S429.958,308.29,434.277,301.966z"/>
				<path style="fill:#92E3A9;stroke:#263238;stroke-linecap:round;stroke-linejoin:round;stroke-miterlimit:10;" d="
					M436.745,302.428l-4.011,10.026l1.234,1.08c0,0,1.851-2.159,3.239-4.165c1.388-2.005,2.468-3.548,2.468-4.473
					S436.745,302.428,436.745,302.428z"/>
				<path style="fill:#92E3A9;stroke:#263238;stroke-linecap:round;stroke-linejoin:round;stroke-miterlimit:10;" d="
					M435.145,310.887c0,0-5.862-12.803-7.713-15.579c-1.851-2.777-3.856-5.09-7.867-6.17c-4.011-1.08-10.798-3.085-16.814-2.005
					c-6.016,1.08-16.351,2.468-16.351,2.468s7.404,3.393,16.351,2.776c8.947-0.617,16.814-0.154,16.814-0.154
					s1.851,0.771,3.239,5.245c1.388,4.473,4.319,8.484,6.17,10.181c1.851,1.697,4.936,5.862,4.936,5.862L435.145,310.887z"/>
				<path style="fill:#92E3A9;stroke:#263238;stroke-linecap:round;stroke-linejoin:round;stroke-miterlimit:10;" d="
					M436.282,296.875c0,0-6.479-2.622-8.021-0.309c-1.542,2.314-4.011,14.346-4.011,14.346s-1.234,6.324-1.543,6.941
					c-0.308,0.617,8.175-5.862,10.181-11.415C434.894,300.886,436.282,296.875,436.282,296.875z"/>
				<path style="fill:#92E3A9;stroke:#263238;stroke-linecap:round;stroke-linejoin:round;stroke-miterlimit:10;" d="
					M442.452,300.886c0,0-5.707,0.154-5.707,1.543c0,1.388,0.771,3.856,0.463,6.941c-0.309,3.085-0.617,5.862-0.617,5.862
					s6.17-2.622,6.479-6.17C443.378,305.513,442.452,300.886,442.452,300.886z"/>
				<path style="fill:#263238;stroke:#263238;stroke-linecap:round;stroke-linejoin:round;stroke-miterlimit:10;" d="
					M445.201,300.875c0,0,5.862,4.01,7.867,7.713c2.005,3.702,3.548,11.415,3.548,11.415s-4.011-7.713-7.096-11.878
					c-3.085-4.165-7.713-7.558-8.638-6.479S443.041,299.949,445.201,300.875z"/>
			</g>
		</g>
		<g>
			<polygon style="fill:#263238;stroke:#263238;stroke-linecap:round;stroke-linejoin:round;stroke-miterlimit:10;" points="
				442.746,441.698 410.951,441.698 404.138,398.253 449.559,398.253 			"/>
			<polygon style="fill:#263238;stroke:#263238;stroke-linecap:round;stroke-linejoin:round;stroke-miterlimit:10;" points="
				446.252,444.002 406.457,444.002 404.467,440.053 448.242,440.053 			"/>
		</g>
	</g>
</g>
<g id="Character">
	<g>
		<g>
			<g>
				<path style="fill:#263238;stroke:#263238;stroke-linecap:round;stroke-linejoin:round;stroke-miterlimit:10;" d="
					M291.303,438.631c0-4.583,3.715-8.298,8.298-8.298c4.583,0,8.298,3.715,8.298,8.298c0,4.583-3.715,8.298-8.298,8.298
					C295.018,446.93,291.303,443.214,291.303,438.631z"/>
				<path style="fill:#FFFFFF;stroke:#263238;stroke-linecap:round;stroke-linejoin:round;stroke-miterlimit:10;" d="
					M295.452,438.631c0-2.291,1.857-4.149,4.149-4.149c2.291,0,4.149,1.857,4.149,4.149c0,2.292-1.858,4.149-4.149,4.149
					C297.309,442.78,295.452,440.923,295.452,438.631z"/>
			</g>
			<g>
				<path style="fill:#263238;stroke:#263238;stroke-linecap:round;stroke-linejoin:round;stroke-miterlimit:10;" d="
					M202.425,438.631c0-4.583,3.715-8.298,8.298-8.298c4.583,0,8.298,3.715,8.298,8.298c0,4.583-3.715,8.298-8.298,8.298
					C206.14,446.93,202.425,443.214,202.425,438.631z"/>
				<path style="fill:#FFFFFF;stroke:#263238;stroke-linecap:round;stroke-linejoin:round;stroke-miterlimit:10;" d="
					M206.574,438.631c0-2.291,1.858-4.149,4.149-4.149c2.292,0,4.149,1.857,4.149,4.149c0,2.292-1.857,4.149-4.149,4.149
					C208.432,442.78,206.574,440.923,206.574,438.631z"/>
			</g>
			<g>
				<path style="fill:#263238;stroke:#263238;stroke-linecap:round;stroke-linejoin:round;stroke-miterlimit:10;" d="
					M173.382,438.631c0-4.583,3.715-8.298,8.298-8.298c4.583,0,8.298,3.715,8.298,8.298c0,4.583-3.715,8.298-8.298,8.298
					C177.097,446.93,173.382,443.214,173.382,438.631z"/>
				<path style="fill:#FFFFFF;stroke:#263238;stroke-linecap:round;stroke-linejoin:round;stroke-miterlimit:10;" d="
					M177.531,438.631c0-2.291,1.857-4.149,4.149-4.149s4.149,1.857,4.149,4.149c0,2.292-1.858,4.149-4.149,4.149
					S177.531,440.923,177.531,438.631z"/>
			</g>
			<path style="fill:#263238;stroke:#263238;stroke-linecap:round;stroke-linejoin:round;stroke-miterlimit:10;" d="
				M223.586,429.143h17.552V339.33c0-0.02-0.016-0.036-0.036-0.036h-17.479c-0.02,0-0.036,0.016-0.036,0.036V429.143z"/>
			
				<rect x="218.912" y="365.69" transform="matrix(-1 -1.224647e-16 1.224647e-16 -1 464.7233 794.8335)" style="fill:#263238;stroke:#263238;stroke-linecap:round;stroke-linejoin:round;stroke-miterlimit:10;" width="26.899" height="63.453"/>
			<path style="fill:#263238;stroke:#263238;stroke-linecap:round;stroke-linejoin:round;stroke-miterlimit:10;" d="M250.316,324.25
				h22.494c0.02,0,0.036-0.016,0.036-0.036v-48.309H250.28v48.309C250.28,324.233,250.296,324.25,250.316,324.25z"/>
			<path style="fill:#263238;stroke:#263238;stroke-linecap:round;stroke-linejoin:round;stroke-miterlimit:10;" d="
				M217.129,275.927h87.863c8.657,0,15.614-7.131,15.4-15.785l-2.121-85.783c-0.207-8.357-7.041-15.024-15.4-15.024h-72.551
				c-7.604,0-14.07,5.548-15.226,13.064l-13.19,85.783C200.468,267.513,207.688,275.927,217.129,275.927z"/>
			
				<line style="fill:none;stroke:#263238;stroke-linecap:round;stroke-linejoin:round;stroke-miterlimit:10;" x1="245.839" y1="342.428" x2="284.389" y2="367.815"/>
			<path style="fill:#263238;stroke:#263238;stroke-linecap:round;stroke-linejoin:round;stroke-miterlimit:10;" d="
				M285.848,363.973l6.566,4.426c2.259,1.522,2.551,4.735,0.605,6.64l-0.455,0.446c-1.571,1.538-4.049,1.644-5.745,0.245
				l-6.034-4.976c-1.908-1.574-2.069-4.44-0.348-6.216l0,0C281.866,363.064,284.146,362.825,285.848,363.973z"/>
			<path style="fill:#263238;stroke:#263238;stroke-linecap:round;stroke-linejoin:round;stroke-miterlimit:10;" d="
				M160.902,346.816h142.92c7.616,0,13.79-6.174,13.79-13.79l0,0c0-7.616-6.174-13.79-13.791-13.79h-142.92
				c-7.616,0-13.79,6.174-13.79,13.79l0,0C147.111,340.642,153.285,346.816,160.902,346.816z"/>
			<path style="fill:#263238;stroke:#263238;stroke-linecap:round;stroke-linejoin:round;stroke-miterlimit:10;" d="M147.21,331.352
				c0.828-7.034,7.188-12.117,14.27-12.117h74.065c7.082,0,13.442,5.083,14.27,12.117c0.984,8.364-5.525,15.464-13.692,15.464
				h-75.221C152.734,346.816,146.225,339.716,147.21,331.352z"/>
			<path style="fill:#263238;stroke:#263238;stroke-linecap:round;stroke-linejoin:round;stroke-miterlimit:10;" d="
				M170.718,434.158h137.227l0,0c0-4.149-3.364-7.513-7.513-7.513H178.231C174.081,426.645,170.718,430.009,170.718,434.158
				L170.718,434.158z"/>
			<path style="fill:#263238;stroke:#263238;stroke-linecap:round;stroke-linejoin:round;stroke-miterlimit:10;" d="
				M195.151,434.158h44.66v-7.513h-37.147C198.514,426.645,195.151,430.009,195.151,434.158L195.151,434.158z"/>
		</g>
		<g>
			<path style="fill:#263238;stroke:#263238;stroke-miterlimit:10;" d="M254.074,420.399c0,0-1.152,6.146-1.152,9.219
				c0,3.073-2.305,16.133-1.536,18.821c0.768,2.689,8.835,15.748,19.205,14.98c10.371-0.768,15.364-9.219,14.212-13.444
				c-1.152-4.225-7.682-15.364-9.219-18.821c-1.536-3.457-2.305-13.444-2.305-13.444L254.074,420.399z"/>
			<path style="fill:#263238;stroke:#263238;stroke-miterlimit:10;" d="M166.965,424.964c0,0-5.512,7.208-8.904,9.753
				c-3.392,2.544-17.385,11.024-20.353,12.721c-2.968,1.696-1.696,5.936,0.424,7.632c2.12,1.696,33.498,0,33.498,0
				s6.784-0.848,9.752-2.968c2.968-2.12,6.784-5.088,6.784-5.088s7.208-0.424,8.48-0.848c1.272-0.424,2.544-4.664,2.544-10.177
				c0-5.512-2.544-9.752-2.544-9.752L166.965,424.964z"/>
			<path style="fill:#263238;stroke:#263238;stroke-miterlimit:10;" d="M189.126,291.153c0,0-20.254-5.832-36.578,1.941
				c-16.324,7.773-16.988,12.686-17.376,15.796c-0.389,3.109,21.087,14.38,29.249,15.158c8.162,0.777,53.078-3.851,54.244-3.851
				s26.041-0.389,26.041-0.389s6.604,14.098,10.88,15.264c4.275,1.166,31.485,5.724,36.149,1.06
				c4.664-4.664,0.389-25.157-2.721-32.153c-3.109-6.996-11.66-17.101-11.66-17.101l-10.883-9.717h-61.798L189.126,291.153z"/>
			<path style="fill:#FFFFFF;stroke:#263238;stroke-miterlimit:10;" d="M250.722,175.307c0,0-8.793,4.308-16.222,14.214
				s-14.446,26.416-14.859,36.322c-0.413,9.906-9.906,59.437-9.906,59.437h52.833c0,0-1.016-26.99,2.889-51.182
				c3.905-24.192,20.638-45.816,20.638-45.816L250.722,175.307z"/>
			<path style="fill:#92E3A9;stroke:#263238;stroke-miterlimit:10;" d="M282.029,182.449c0,0,27.171,7.696,27.171,10.68
				c0,2.984-1.413,17.277-1.413,17.277l4.555,35.966l-22.46,0.628l-8.913,31.644l9.731,26.649c1.724,1.561-5.702-7.423-16.716-5.799
				c-6.757,0.996-17.861,8.534-22.857,6.141c-10.129-4.853-9.027-42.545-8.87-45.372c0.157-2.827,9.302-27.083,12.443-33.993
				c3.141-6.911,20.261-47.118,20.261-47.118L282.029,182.449z"/>
			<path style="fill:none;stroke:#263238;stroke-miterlimit:10;" d="M274.491,278.533c-1.836-0.846-3.959-1.643-5.284-1.555
				c-2.736,0.182-18.763,5.799-18.763,5.799"/>
			<path style="fill:none;stroke:#263238;stroke-miterlimit:10;" d="M278.077,280.39c0,0-0.745-0.437-1.832-0.998"/>
			<path style="fill:#92E3A9;stroke:#263238;stroke-miterlimit:10;" d="M250.722,175.307c0,0-20.726,29.983-21.714,37.888
				c-0.988,7.905-8.232,47.749-9.907,56.235c-7.888,39.957-20.028,41.051-23.24,43.028c-3.212,1.976-21.811-21.323-21.811-21.323
				s-8.077-0.522-5.854-2.251c2.223-1.729,14.095-7.102,15.083-8.337c0.988-1.235,16.552-37.797,17.046-38.786
				c0.494-0.988,5.188-6.423,4.941-21.493c-0.247-15.07,0-37.303,0.741-40.268c0.741-2.965,4.694-2.717,7.658-2.717
				c2.965,0,26.186,0,26.186,0S248.252,172.095,250.722,175.307z"/>
			<path style="fill:none;stroke:#263238;stroke-miterlimit:10;" d="M198.88,277.306c3.68-1.534,7.676-3.549,11.309-6.127"/>
			<path style="fill:none;stroke:#263238;stroke-miterlimit:10;" d="M185.968,281.413c0,0,4.975-0.995,11.245-3.435"/>
			<path style="fill:none;stroke:#263238;stroke-miterlimit:10;" d="M216.197,246.408c0.24,2.992,0.605,4.797,0.847,5.521"/>
			<path style="fill:none;stroke:#263238;stroke-miterlimit:10;" d="M222.446,192.528c-1.353,5.396-3.909,16.63-5.402,29.775
				c-1.02,8.975-1.198,15.773-1.04,20.607"/>
			<polyline style="fill:none;stroke:#263238;stroke-miterlimit:10;" points="237.425,179.23 227.339,182.592 231.541,185.323 
				223.347,189.105 			"/>
			<path style="fill:none;stroke:#263238;stroke-miterlimit:10;" d="M262.418,219.045c-3.263,4.854-6.821,11.095-8.604,17.336
				c-3.782,13.237-8.827,20.129-8.827,20.129"/>
			<path style="fill:none;stroke:#263238;stroke-miterlimit:10;" d="M269.362,209.907c0,0-2.154,2.423-4.915,6.233"/>
			<path style="fill:none;stroke:#263238;stroke-miterlimit:10;" d="M301.639,197.333c-1.521,2.187-3.148,4.825-4.332,7.531
				c-2.941,6.724-2.941,6.724-2.941,6.724"/>
			<path style="fill:none;stroke:#263238;stroke-miterlimit:10;" d="M305.922,191.837c0,0-0.751,0.835-1.849,2.221"/>
			<path style="fill:none;stroke:#263238;stroke-miterlimit:10;" d="M297.517,208.226c0,0,5.253-6.934,9.245-4.833"/>
			<path style="fill:none;stroke:#263238;stroke-miterlimit:10;" d="M296.467,212.428c0,0,4.649-1.34,7.984-1.681"/>
			<g>
				<path style="fill:#263238;stroke:#263238;stroke-miterlimit:10;" d="M248.437,133.595c-0.509,1.655,0.619,3.097,0.774,3.561
					c0.155,0.464-0.155,13.315-0.155,15.018c0,1.703-0.155,17.96-0.929,22.759c-0.774,4.799,0.31,13.315,8.206,16.102
					c7.896,2.787,14.863,2.787,20.282-0.155c5.419-2.942,7.896-10.993,7.896-16.566c0-5.574,2.013-18.115,2.942-23.533
					c0.929-5.419,1.548-11.147-0.31-16.876c-1.858-5.729-9.289-7.741-9.289-7.741s-4.025-2.942-10.064-3.406
					C261.752,122.293,250.295,127.557,248.437,133.595z"/>
				<path style="fill:#FFFFFF;stroke:#263238;stroke-miterlimit:10;" d="M254.011,138.704c0,0-1.703,3.871-1.239,5.729
					c0.464,1.858,1.393,2.322-0.155,4.025c-1.548,1.703-2.013,3.406-2.013,4.18c0,0.774,0.155,14.089,0.929,16.411
					c0.774,2.322,2.167,1.548,2.942,0.774c0.774-0.774,4.335-4.645,12.231-4.645c7.896,0,13.47,7.122,14.553,6.967
					c1.084-0.155,1.858-1.393,2.013-2.322c0.155-0.929,3.096-15.328,2.013-18.889c-1.084-3.561-1.084-5.883-1.084-5.883
					s-0.774-5.264-3.871-7.277c-3.096-2.013-5.729-2.632-12.541,0.155C260.978,140.717,255.404,140.872,254.011,138.704z"/>
				<path style="fill:none;stroke:#263238;stroke-miterlimit:10;" d="M263.919,161.463c0,0-1.084,0.929,0,1.548
					c1.084,0.619,3.871,1.858,4.954,1.393c1.084-0.465,2.477-0.929,2.787-1.548c0.31-0.619-0.31-1.703-0.31-1.703"/>
				<path style="fill:none;stroke:#263238;stroke-miterlimit:10;" d="M271.816,150.006c0,0,4.799-0.774,6.657-1.703
					c1.858-0.929,3.096,1.548,3.096,1.548"/>
				<path style="fill:none;stroke:#263238;stroke-miterlimit:10;" d="M265.158,150.161c0,0-6.967-1.703-7.741-1.703
					s-2.322,2.477-2.322,2.477"/>
				<path style="fill:#263238;" d="M277.234,153.799c0,0.983-0.659,1.78-1.471,1.78c-0.812,0-1.471-0.797-1.471-1.78
					c0-0.983,0.659-1.781,1.471-1.781C276.576,152.019,277.234,152.816,277.234,153.799z"/>
				<path style="fill:#263238;" d="M261.829,153.103c0,0.983-0.659,1.78-1.471,1.78c-0.812,0-1.471-0.797-1.471-1.78
					c0-0.983,0.659-1.781,1.471-1.781C261.171,151.322,261.829,152.119,261.829,153.103z"/>
				<path style="fill:#FFFFFF;stroke:#263238;stroke-miterlimit:10;" d="M249.056,152.174c0,0-2.322-0.464-2.787,1.703
					c-0.464,2.167,2.632,11.147,2.632,11.147L249.056,152.174z"/>
				<path style="fill:#FFFFFF;stroke:#263238;stroke-miterlimit:10;" d="M286.679,155.27c0,0,2.013-2.322,2.477,0.619
					c0.464,2.942-3.716,9.135-3.716,9.135L286.679,155.27z"/>
			</g>
			<path style="fill:#263238;stroke:#263238;stroke-miterlimit:10;" d="M143.22,298.182c0,0-9.753,3.816-12.721,15.689
				c-1.658,6.633-2.544,12.721-0.424,17.385c2.12,4.664,33.498,84.38,33.498,84.38l-0.848,7.208l0.848,4.664l18.233,0.424
				l14.841-1.696c0,0-0.848-13.569-2.968-17.385c-2.12-3.816-7.208-12.721-7.208-12.721l-14.841-78.444"/>
			<path style="fill:#263238;stroke:#263238;stroke-miterlimit:10;" d="M252.617,307.51c0,0-7.632,13.993-6.36,17.809
				c1.272,3.816,4.664,80.14,4.664,80.14s-2.12,17.809-0.848,18.233c1.272,0.424,11.025,4.24,12.297,3.816
				c1.272-0.424,13.993-4.664,15.265-6.36c1.272-1.696,1.272-4.664,1.272-8.056c0-3.392-0.424-7.632-0.424-7.632
				s14.417-72.083,14.841-76.748c0.424-4.664-1.696-12.297-7.208-17.385"/>
		</g>
		<g>
			<polygon style="fill:#FFFFFF;stroke:#263238;stroke-linejoin:round;stroke-miterlimit:10;" points="146.765,417.704 
				154.699,417.704 154.699,460.356 152.276,466.311 			"/>
			<polygon style="fill:#FFFFFF;stroke:#263238;stroke-linejoin:round;stroke-miterlimit:10;" points="406.857,417.704 
				398.923,417.704 398.923,460.356 401.346,466.311 			"/>
			
				<rect x="144.342" y="417.704" style="fill:#FFFFFF;stroke:#263238;stroke-linejoin:round;stroke-miterlimit:10;" width="7.933" height="48.607"/>
			<polygon style="fill:#FFFFFF;stroke:#263238;stroke-linejoin:round;stroke-miterlimit:10;" points="31.135,417.704 
				39.069,417.704 39.069,460.356 36.646,466.311 			"/>
			
				<rect x="28.712" y="417.704" style="fill:#FFFFFF;stroke:#263238;stroke-linejoin:round;stroke-miterlimit:10;" width="7.933" height="48.607"/>
			<polygon style="fill:#FFFFFF;stroke:#263238;stroke-linejoin:round;stroke-miterlimit:10;" points="164.979,408.379 
				157.483,417.704 157.483,452.611 164.979,428.941 			"/>
			<polygon style="fill:#263238;stroke:#263238;stroke-linejoin:round;stroke-miterlimit:10;" points="26.845,290.239 
				26.845,452.611 157.483,452.611 157.483,417.704 401.305,417.704 401.305,466.357 409.239,466.357 409.239,290.239 			"/>
		</g>
		<g>
			<polygon style="fill:#FFFFFF;stroke:#263238;stroke-linejoin:round;stroke-miterlimit:10;" points="14.151,282.305 
				52.83,267.719 386.155,267.719 416.643,282.305 			"/>
			
				<rect x="14.151" y="282.305" style="fill:#9C9C9C;stroke:#263238;stroke-linejoin:round;stroke-miterlimit:10;" width="402.492" height="7.447"/>
		</g>
		<g>
			<path style="fill:#92E3A9;stroke:#263238;stroke-miterlimit:10;" d="M195.138,205.693c-0.494,1.235-19.022,24.704-19.022,24.704
				l-40.268,26.434l1.471,0.826c1.204,0.816,2.844,2.282,3.717,4.609c1.482,3.953-3.625,9.095-3.625,9.095l6.798,3.776
				l44.507-23.988l16.058-20.504l0.494-10.376L206.008,180C206.008,180,195.632,204.457,195.138,205.693z"/>
			<path style="fill:#FFFFFF;stroke:#263238;stroke-miterlimit:10;" d="M132.69,257.765c0,0,6.986-3.588,8.875-4.532
				c1.888-0.944,4.343,0.189,6.798,4.909c2.455,4.721,0.566,8.875-0.567,10.196c-1.133,1.322-5.665,3.399-5.665,3.399
				s-6.798-9.63-6.986-10.196S132.69,257.765,132.69,257.765z"/>
			<path style="fill:none;stroke:#263238;stroke-miterlimit:10;" d="M176.702,231.969c0,0,1.891,4.833,6.513,7.774"/>
			<path style="fill:none;stroke:#263238;stroke-miterlimit:10;" d="M191.83,215.37c0,0,10.085-3.782,13.027-6.303"/>
			<path style="fill:none;stroke:#263238;stroke-miterlimit:10;" d="M197.985,226.305c1.356-0.048,2.746-0.181,4.141-0.429"/>
			<path style="fill:none;stroke:#263238;stroke-miterlimit:10;" d="M183.425,223.984c0,0,4.716,1.822,10.857,2.251"/>
			<g>
				<path style="fill:#FFFFFF;stroke:#263238;stroke-miterlimit:10;" d="M135.848,256.83l-16.187,5.089
					c0,0-13.029,2.266-14.539,3.021c-1.51,0.755-13.973,5.287-14.728,5.476c-0.755,0.189-1.511,2.077,0.189,2.455
					c1.699,0.378,11.707,1.888,17.561,1.133s14.917-0.566,14.917-0.566s-12.651,1.888-14.162,2.644
					c-1.511,0.755,0.566,2.832,5.476,2.832s9.63-2.077,12.273-2.077c2.644,0,10.008-0.944,12.085-3.588
					c2.077-2.643,2.643-5.853,3.21-8.119C142.509,262.863,137.496,256.84,135.848,256.83z"/>
				<path style="fill:none;stroke:#263238;stroke-linejoin:round;stroke-miterlimit:10;" d="M99.606,273.905
					c0,0-1.861-1.642-0.11-2.08c1.751-0.438,4.597-0.438,5.911-0.876c1.313-0.438,7.662-2.736,9.194-2.955s3.612-0.547,3.612-0.547"
					/>
				<path style="fill:none;stroke:#263238;stroke-linejoin:round;stroke-miterlimit:10;" d="M95.666,273.138
					c0,0-1.97-2.299-0.11-2.955c1.861-0.657,7.771-1.751,8.428-2.189c0.657-0.438,6.677-2.846,9.194-3.065"/>
			</g>
		</g>
		<g>
			<g>
				<path style="fill:#FFFFFF;stroke:#263238;stroke-miterlimit:10;" d="M288.291,206.065l-4.8-11.767l-1.239-15.328l-10.064-6.812
					c0,0-7.122,0-7.896,0.464c-0.774,0.465-6.348,1.084-5.883,2.477c0.464,1.393,5.419,1.084,6.038,0.929s-5.578,6.248-5.733,6.867
					c-0.155,0.619-1.854,5.364-1.544,5.828c0.31,0.465,2.168,1.239,2.942,0.774c0.774-0.465,3.096-5.729,3.096-5.729l3.716,0.31
					c0,0,1.548,15.018,3.251,16.257c1.703,1.239,2.787,2.168,2.787,2.168l2.632,8.36L288.291,206.065z"/>
				<polyline style="fill:none;stroke:#263238;stroke-miterlimit:10;" points="264.448,176.029 266.616,174.481 273.583,175.41 				
					"/>
				<path style="fill:none;stroke:#263238;stroke-miterlimit:10;" d="M257.172,188.725c0,0,5.109-8.206,5.419-8.67
					c0.31-0.464,7.277-0.619,7.277-0.619"/>
				<path style="fill:none;stroke:#263238;stroke-miterlimit:10;" d="M271.57,176.958l-6.967,0.31c0,0-0.805-0.151-2.615,1.938"/>
			</g>
			<polygon style="fill:#FFFFFF;stroke:#263238;stroke-miterlimit:10;" points="289.154,202.999 271.564,209.595 275.49,220.118 
				292.766,212.422 			"/>
			<path style="fill:#92E3A9;stroke:#263238;stroke-miterlimit:10;" d="M292.609,209.595l-19.004,9.109
				c0,0,7.853,43.348,12.251,46.49c4.398,3.141,13.664,6.125,15.078,5.183c1.414-0.942,10.052-11.622,11.465-15.549
				c1.414-3.926,0.785-10.209-2.199-14.921C307.216,235.196,292.609,209.595,292.609,209.595z"/>
		</g>
	</g>
</g>
<g id="Diplomas">
	<g>
		
			<rect x="79.046" y="22.968" style="fill:none;stroke:#263238;stroke-linejoin:round;stroke-miterlimit:10;" width="78.935" height="61.461"/>
		
			<rect x="86.092" y="28.454" style="fill:none;stroke:#263238;stroke-linejoin:round;stroke-miterlimit:10;" width="64.841" height="50.487"/>
		
			<line style="fill:none;stroke:#263238;stroke-linejoin:round;stroke-miterlimit:10;" x1="95.973" y1="53.488" x2="142.847" y2="53.488"/>
		
			<line style="fill:none;stroke:#263238;stroke-linejoin:round;stroke-miterlimit:10;" x1="106.129" y1="62.863" x2="132.691" y2="62.863"/>
		
			<line style="fill:none;stroke:#263238;stroke-linejoin:round;stroke-miterlimit:10;" x1="106.129" y1="44.114" x2="132.691" y2="44.114"/>
	</g>
	<g>
		
			<rect x="206.322" y="22.968" style="fill:none;stroke:#263238;stroke-linejoin:round;stroke-miterlimit:10;" width="78.935" height="61.461"/>
		
			<rect x="213.369" y="28.454" style="fill:none;stroke:#263238;stroke-linejoin:round;stroke-miterlimit:10;" width="64.841" height="50.487"/>
		
			<line style="fill:none;stroke:#263238;stroke-linejoin:round;stroke-miterlimit:10;" x1="223.25" y1="53.488" x2="270.124" y2="53.488"/>
		
			<line style="fill:none;stroke:#263238;stroke-linejoin:round;stroke-miterlimit:10;" x1="233.406" y1="62.863" x2="259.968" y2="62.863"/>
		
			<line style="fill:none;stroke:#263238;stroke-linejoin:round;stroke-miterlimit:10;" x1="233.406" y1="44.114" x2="259.968" y2="44.114"/>
	</g>
	<g>
		
			<rect x="91.161" y="97.582" style="fill:none;stroke:#263238;stroke-linejoin:round;stroke-miterlimit:10;" width="49.89" height="38.846"/>
		
			<rect x="95.615" y="101.049" style="fill:none;stroke:#263238;stroke-linejoin:round;stroke-miterlimit:10;" width="40.982" height="31.91"/>
		
			<line style="fill:none;stroke:#263238;stroke-linejoin:round;stroke-miterlimit:10;" x1="101.86" y1="116.872" x2="131.486" y2="116.872"/>
		
			<line style="fill:none;stroke:#263238;stroke-linejoin:round;stroke-miterlimit:10;" x1="108.279" y1="122.797" x2="125.067" y2="122.797"/>
		
			<line style="fill:none;stroke:#263238;stroke-linejoin:round;stroke-miterlimit:10;" x1="108.279" y1="110.947" x2="125.067" y2="110.947"/>
	</g>
	<g>
		
			<rect x="336.07" y="22.968" style="fill:none;stroke:#263238;stroke-linejoin:round;stroke-miterlimit:10;" width="78.935" height="102.3"/>
		
			<rect x="343.117" y="28.454" style="fill:none;stroke:#263238;stroke-linejoin:round;stroke-miterlimit:10;" width="64.841" height="91.326"/>
		
			<line style="fill:none;stroke:#263238;stroke-linejoin:round;stroke-miterlimit:10;" x1="352.997" y1="53.488" x2="399.871" y2="53.488"/>
		
			<line style="fill:none;stroke:#263238;stroke-linejoin:round;stroke-miterlimit:10;" x1="363.153" y1="62.863" x2="389.715" y2="62.863"/>
		
			<line style="fill:none;stroke:#263238;stroke-linejoin:round;stroke-miterlimit:10;" x1="363.153" y1="44.114" x2="389.715" y2="44.114"/>
		
			<line style="fill:none;stroke:#263238;stroke-linejoin:round;stroke-miterlimit:10;" x1="352.997" y1="89.425" x2="399.871" y2="89.425"/>
		
			<line style="fill:none;stroke:#263238;stroke-linejoin:round;stroke-miterlimit:10;" x1="363.153" y1="98.8" x2="389.715" y2="98.8"/>
		
			<line style="fill:none;stroke:#263238;stroke-linejoin:round;stroke-miterlimit:10;" x1="363.153" y1="80.05" x2="389.715" y2="80.05"/>
	</g>
</g>
<g id="Pencils">
	<g>
		<polygon style="fill:#FFFFFF;stroke:#263238;stroke-linejoin:round;stroke-miterlimit:10;" points="364.661,257.01 
			361.747,257.01 361.747,235.837 363.154,232.19 364.661,235.837 		"/>
		<polygon style="fill:#FFFFFF;stroke:#263238;stroke-linejoin:round;stroke-miterlimit:10;" points="370.204,259.52 367.29,259.52 
			367.29,238.347 368.697,234.7 370.204,238.347 		"/>
		<polygon style="fill:#FFFFFF;stroke:#263238;stroke-linejoin:round;stroke-miterlimit:10;" points="368.714,256.987 
			366.04,255.831 374.444,236.397 377.182,233.608 377.118,237.553 		"/>
		<polygon style="fill:#FFFFFF;stroke:#263238;stroke-linejoin:round;stroke-miterlimit:10;" points="373.522,256.156 
			370.879,254.928 379.797,235.725 382.608,233.01 382.439,236.952 		"/>
		<polygon style="fill:#FFFFFF;stroke:#263238;stroke-linejoin:round;stroke-miterlimit:10;" points="370.349,254.015 
			367.779,255.387 357.805,236.71 357.328,232.831 360.375,235.337 		"/>
		
			<rect x="358.963" y="243.743" style="fill:#FFFFFF;stroke:#263238;stroke-linejoin:round;stroke-miterlimit:10;" width="22.105" height="30.701"/>
	</g>
</g>
<g id="Boss_Plate">
	<g>
		
			<rect x="282.997" y="263.515" style="fill:#263238;stroke:#263238;stroke-linejoin:round;stroke-miterlimit:10;" width="70.298" height="13.938"/>
	</g>
</g>
<g id="Text">
	<g>
		<path style="fill:#92E3A9;" d="M306.133,275.416v-9.221h2.402c0.395,0,0.768,0.031,1.121,0.091
			c0.353,0.061,0.666,0.177,0.939,0.347c0.273,0.171,0.487,0.414,0.643,0.728c0.156,0.315,0.233,0.731,0.233,1.247
			c0,0.371-0.055,0.685-0.165,0.939c-0.11,0.254-0.266,0.457-0.467,0.609c-0.201,0.152-0.442,0.254-0.723,0.307
			c0.357,0.046,0.657,0.162,0.9,0.347c0.243,0.186,0.427,0.435,0.552,0.746c0.125,0.311,0.188,0.687,0.188,1.127
			c0,0.478-0.063,0.89-0.188,1.235c-0.125,0.346-0.306,0.628-0.541,0.848c-0.235,0.221-0.525,0.384-0.871,0.49
			c-0.346,0.107-0.742,0.159-1.19,0.159H306.133z M308.171,269.884h0.398c0.311,0,0.547-0.047,0.706-0.142
			c0.159-0.095,0.268-0.233,0.324-0.415c0.056-0.182,0.085-0.402,0.085-0.66c0-0.243-0.044-0.446-0.131-0.609
			c-0.087-0.163-0.217-0.287-0.387-0.37c-0.171-0.083-0.385-0.125-0.643-0.125h-0.353V269.884z M308.171,273.993h0.433
			c0.448,0,0.757-0.114,0.927-0.341c0.171-0.228,0.257-0.562,0.257-1.002c0-0.349-0.038-0.626-0.114-0.831
			c-0.076-0.205-0.201-0.355-0.376-0.45c-0.174-0.095-0.41-0.142-0.706-0.142h-0.421V273.993z"/>
		<path style="fill:#92E3A9;" d="M315.467,275.553c-0.69,0-1.237-0.121-1.639-0.365c-0.403-0.243-0.691-0.591-0.865-1.047
			c-0.175-0.455-0.262-0.998-0.262-1.628v-3.426c0-0.638,0.087-1.18,0.262-1.628c0.174-0.447,0.462-0.791,0.865-1.03
			c0.402-0.239,0.949-0.359,1.639-0.359c0.699,0,1.251,0.12,1.656,0.359c0.406,0.239,0.696,0.583,0.871,1.03
			c0.174,0.448,0.262,0.99,0.262,1.628v3.426c0,0.63-0.088,1.172-0.262,1.628c-0.175,0.456-0.465,0.805-0.871,1.047
			C316.717,275.432,316.165,275.553,315.467,275.553z M315.467,274.107c0.212,0,0.368-0.053,0.467-0.159
			c0.098-0.107,0.163-0.243,0.194-0.41c0.03-0.167,0.045-0.338,0.045-0.512v-4.44c0-0.182-0.016-0.354-0.045-0.518
			c-0.031-0.163-0.095-0.298-0.194-0.404c-0.099-0.107-0.255-0.159-0.467-0.159c-0.197,0-0.345,0.053-0.444,0.159
			c-0.099,0.106-0.163,0.241-0.194,0.404c-0.031,0.164-0.045,0.336-0.045,0.518v4.44c0,0.175,0.013,0.346,0.04,0.512
			c0.026,0.167,0.087,0.303,0.182,0.41C315.101,274.054,315.254,274.107,315.467,274.107z"/>
		<path style="fill:#92E3A9;" d="M321.944,275.553c-0.576,0-1.059-0.102-1.445-0.308c-0.387-0.205-0.68-0.521-0.877-0.95
			c-0.197-0.429-0.307-0.985-0.33-1.668l1.742-0.262c0.007,0.395,0.043,0.713,0.108,0.956c0.064,0.243,0.156,0.417,0.273,0.524
			c0.118,0.106,0.259,0.159,0.427,0.159c0.212,0,0.35-0.072,0.415-0.216c0.065-0.144,0.097-0.296,0.097-0.455
			c0-0.379-0.092-0.7-0.273-0.962c-0.182-0.262-0.429-0.525-0.74-0.791l-0.797-0.694c-0.349-0.296-0.643-0.632-0.883-1.007
			c-0.239-0.376-0.358-0.841-0.358-1.395c0-0.781,0.232-1.379,0.695-1.793c0.463-0.413,1.093-0.62,1.89-0.62
			c0.493,0,0.889,0.084,1.189,0.251c0.299,0.167,0.527,0.385,0.683,0.655c0.156,0.27,0.262,0.554,0.319,0.854
			c0.057,0.3,0.089,0.586,0.097,0.86l-1.754,0.216c-0.007-0.273-0.024-0.51-0.051-0.711c-0.027-0.201-0.081-0.357-0.165-0.467
			c-0.083-0.11-0.213-0.165-0.387-0.165c-0.19,0-0.328,0.08-0.415,0.239c-0.088,0.159-0.132,0.319-0.132,0.478
			c0,0.341,0.082,0.62,0.245,0.836c0.163,0.216,0.378,0.442,0.644,0.677l0.762,0.672c0.402,0.342,0.742,0.729,1.019,1.161
			c0.277,0.433,0.415,0.968,0.415,1.605c0,0.433-0.098,0.825-0.296,1.178s-0.476,0.632-0.836,0.836
			C322.864,275.451,322.438,275.553,321.944,275.553z"/>
		<path style="fill:#92E3A9;" d="M327.613,275.553c-0.576,0-1.059-0.102-1.445-0.308c-0.387-0.205-0.68-0.521-0.877-0.95
			c-0.197-0.429-0.307-0.985-0.33-1.668l1.742-0.262c0.007,0.395,0.043,0.713,0.108,0.956c0.064,0.243,0.156,0.417,0.273,0.524
			c0.118,0.106,0.259,0.159,0.427,0.159c0.212,0,0.35-0.072,0.415-0.216c0.065-0.144,0.097-0.296,0.097-0.455
			c0-0.379-0.092-0.7-0.273-0.962c-0.183-0.262-0.429-0.525-0.74-0.791l-0.797-0.694c-0.349-0.296-0.643-0.632-0.883-1.007
			c-0.239-0.376-0.358-0.841-0.358-1.395c0-0.781,0.232-1.379,0.695-1.793c0.463-0.413,1.093-0.62,1.89-0.62
			c0.493,0,0.889,0.084,1.189,0.251c0.299,0.167,0.527,0.385,0.683,0.655c0.156,0.27,0.262,0.554,0.319,0.854
			c0.057,0.3,0.089,0.586,0.097,0.86l-1.754,0.216c-0.007-0.273-0.024-0.51-0.051-0.711c-0.027-0.201-0.081-0.357-0.165-0.467
			c-0.083-0.11-0.213-0.165-0.387-0.165c-0.19,0-0.328,0.08-0.415,0.239c-0.088,0.159-0.132,0.319-0.132,0.478
			c0,0.341,0.082,0.62,0.245,0.836c0.163,0.216,0.378,0.442,0.644,0.677l0.762,0.672c0.402,0.342,0.742,0.729,1.019,1.161
			c0.277,0.433,0.415,0.968,0.415,1.605c0,0.433-0.098,0.825-0.296,1.178s-0.476,0.632-0.836,0.836
			C328.533,275.451,328.107,275.553,327.613,275.553z"/>
	</g>
</g>
<g id="Device">
	<g>
		<polygon style="fill:#263238;stroke:#263238;stroke-linejoin:round;stroke-miterlimit:10;" points="90.131,278.882 
			102.737,276.919 80.023,276.919 66.66,278.882 		"/>
		
			<rect x="25.504" y="166.837" style="fill:#FFFFFF;stroke:#263238;stroke-linejoin:round;stroke-miterlimit:10;" width="126.648" height="86.367"/>
		
			<rect x="23.824" y="166.837" style="fill:#9C9C9C;stroke:#263238;stroke-linejoin:round;stroke-miterlimit:10;" width="126.648" height="86.367"/>
		
			<rect x="36.71" y="175.624" style="fill:#878787;stroke:#263238;stroke-linejoin:round;stroke-miterlimit:10;" width="100.877" height="68.793"/>
		<polygon style="fill:#263238;stroke:#263238;stroke-linejoin:round;stroke-miterlimit:10;" points="90.131,278.882 66.66,278.882 
			70.707,220.203 94.178,220.203 		"/>
		
			<line style="fill:#FFFFFF;stroke:#263238;stroke-linejoin:round;stroke-miterlimit:10;" x1="137.587" y1="175.624" x2="150.472" y2="166.837"/>
		
			<line style="fill:#FFFFFF;stroke:#263238;stroke-linejoin:round;stroke-miterlimit:10;" x1="137.587" y1="244.417" x2="150.472" y2="253.204"/>
		
			<line style="fill:#FFFFFF;stroke:#263238;stroke-linejoin:round;stroke-miterlimit:10;" x1="36.71" y1="244.417" x2="23.824" y2="253.204"/>
		
			<line style="fill:#FFFFFF;stroke:#263238;stroke-linejoin:round;stroke-miterlimit:10;" x1="36.71" y1="175.624" x2="23.824" y2="166.837"/>
	</g>
	<g>
		<polygon style="fill:#FFFFFF;stroke:#263238;stroke-linejoin:round;stroke-miterlimit:10;" points="241.255,278.738 
			145.492,278.738 164.371,269.709 249.737,269.709 		"/>
		
			<line style="fill:none;stroke:#263238;stroke-linejoin:round;stroke-miterlimit:10;" x1="165.966" y1="271.763" x2="244.462" y2="271.763"/>
		
			<line style="fill:none;stroke:#263238;stroke-linejoin:round;stroke-miterlimit:10;" x1="159.68" y1="273.632" x2="243.272" y2="273.632"/>
		
			<line style="fill:none;stroke:#263238;stroke-linejoin:round;stroke-miterlimit:10;" x1="156.111" y1="275.671" x2="241.063" y2="275.671"/>
		
			<line style="fill:none;stroke:#263238;stroke-linejoin:round;stroke-miterlimit:10;" x1="239.025" y1="271.933" x2="235.796" y2="275.671"/>
		
			<line style="fill:none;stroke:#263238;stroke-linejoin:round;stroke-miterlimit:10;" x1="232.908" y1="271.594" x2="229.17" y2="275.841"/>
		
			<line style="fill:none;stroke:#263238;stroke-linejoin:round;stroke-miterlimit:10;" x1="225.942" y1="271.594" x2="222.204" y2="275.841"/>
		
			<line style="fill:none;stroke:#263238;stroke-linejoin:round;stroke-miterlimit:10;" x1="218.976" y1="271.594" x2="215.238" y2="275.841"/>
		
			<line style="fill:none;stroke:#263238;stroke-linejoin:round;stroke-miterlimit:10;" x1="212.01" y1="271.594" x2="208.272" y2="275.841"/>
		
			<line style="fill:none;stroke:#263238;stroke-linejoin:round;stroke-miterlimit:10;" x1="205.044" y1="271.594" x2="201.306" y2="275.841"/>
		
			<line style="fill:none;stroke:#263238;stroke-linejoin:round;stroke-miterlimit:10;" x1="198.078" y1="271.594" x2="194.34" y2="275.841"/>
		
			<line style="fill:none;stroke:#263238;stroke-linejoin:round;stroke-miterlimit:10;" x1="192.06" y1="271.594" x2="187.374" y2="275.841"/>
		
			<line style="fill:none;stroke:#263238;stroke-linejoin:round;stroke-miterlimit:10;" x1="184.995" y1="271.594" x2="180.408" y2="275.841"/>
		
			<line style="fill:none;stroke:#263238;stroke-linejoin:round;stroke-miterlimit:10;" x1="178.369" y1="271.594" x2="173.442" y2="275.841"/>
		
			<line style="fill:none;stroke:#263238;stroke-linejoin:round;stroke-miterlimit:10;" x1="172.422" y1="271.594" x2="166.476" y2="275.841"/>
	</g>
	<g>
		<path style="fill:#263238;stroke:#263238;stroke-linejoin:round;stroke-miterlimit:10;" d="M62.248,265.443
			c-2.062-1.921-5.052-2.384-7.837-2.245c-5.921,0.296-9.178,4.737-9.77,7.106c-0.592,2.368,1.48,2.368,5.033,2.961
			c3.553,0.592,11.843,0,13.915-1.48c1.687-1.206,0.497-4.037-0.451-5.337C62.867,266.075,62.569,265.741,62.248,265.443z"/>
		<path style="fill:none;stroke:#263238;stroke-linejoin:round;stroke-miterlimit:10;" d="M49.674,273.265
			c0,0-14.61,2.712-19.892,6.586c0,0-4.577,2.113-4.577,3.521v71.298c0,2.431,1.971,4.401,4.401,4.401l0,0
			c2.431,0,4.401-1.97,4.401-4.401v-62.848"/>
	</g>
</g>
</svg>
