<?xml version="1.0" encoding="utf-8"?>
<!-- Generator: Adobe Illustrator 27.5.0, SVG Export Plug-In . SVG Version: 6.00 Build 0)  -->
<svg version="1.1" xmlns="http://www.w3.org/2000/svg" xmlns:xlink="http://www.w3.org/1999/xlink" x="0px" y="0px"
	 viewBox="0 0 500 500" style="enable-background:new 0 0 500 500;" xml:space="preserve">
<g id="Background_complete">
	<g>
		<g>
			<g>
				<g>
					<g>
						<path style="fill:#E0E0E0;" d="M443.92,316.783H263.174c-3.232,0-5.862-2.63-5.862-5.862V47.647
							c0-3.232,2.63-5.862,5.862-5.862H443.92c3.232,0,5.862,2.629,5.862,5.862V310.92
							C449.783,314.153,447.153,316.783,443.92,316.783z M263.174,42.035c-3.095,0-5.612,2.518-5.612,5.612V310.92
							c0,3.095,2.518,5.612,5.612,5.612H443.92c3.095,0,5.612-2.517,5.612-5.612V47.647c0-3.094-2.518-5.612-5.612-5.612H263.174z"
							/>
					</g>
				</g>
				<g>
					<g>
						<path style="fill:#E0E0E0;" d="M235.493,316.783H54.746c-3.232,0-5.862-2.63-5.862-5.862V47.647
							c0-3.232,2.629-5.862,5.862-5.862h180.747c3.232,0,5.862,2.629,5.862,5.862V310.92
							C241.355,314.153,238.725,316.783,235.493,316.783z M54.746,42.035c-3.094,0-5.612,2.518-5.612,5.612V310.92
							c0,3.095,2.518,5.612,5.612,5.612h180.747c3.095,0,5.612-2.517,5.612-5.612V47.647c0-3.094-2.518-5.612-5.612-5.612H54.746z"
							/>
					</g>
				</g>
			</g>
			<g>
				<g>
					<rect x="0" y="377.852" style="fill:#E0E0E0;" width="500" height="0.25"/>
				</g>
			</g>
		</g>
		<rect x="51.672" y="392.116" style="fill:#E0E0E0;" width="16.06" height="0.25"/>
		<rect x="170.352" y="389.406" style="fill:#E0E0E0;" width="53.53" height="0.25"/>
		<rect x="68.732" y="401.406" style="fill:#E0E0E0;" width="36.25" height="0.25"/>
		<rect x="378.352" y="389.276" style="fill:#E0E0E0;" width="43.19" height="0.25"/>
		<rect x="430.452" y="389.276" style="fill:#E0E0E0;" width="6.33" height="0.25"/>
		<rect x="316.212" y="395.507" style="fill:#E0E0E0;" width="53.89" height="0.25"/>
	</g>
	<g>
		<rect x="287.18" y="199.811" style="fill:#F0F0F0;" width="48.681" height="12.52"/>
	</g>
	<g>
		<rect x="306.381" y="211.804" style="fill:#E0E0E0;" width="48.681" height="12.52"/>
	</g>
	<g>
		<rect x="256.903" y="322.457" style="fill:#F0F0F0;" width="48.681" height="12.52"/>
	</g>
	<g>
		<g>
			<rect x="389.105" y="60.491" style="fill:#E0E0E0;" width="51.769" height="12.52"/>
		</g>
	</g>
	<g>
		<g>
			<rect x="303.052" y="111.861" style="fill:#E0E0E0;" width="51.769" height="12.52"/>
		</g>
	</g>
	<g>
		<g>
			<rect x="406.287" y="340.669" style="fill:#E0E0E0;" width="42.794" height="12.52"/>
		</g>
	</g>
	<g>
		<g>
			<rect x="419.953" y="328.206" style="fill:#F0F0F0;" width="42.794" height="12.52"/>
		</g>
	</g>
	<g>
		<g>
			<rect x="380.527" y="48.254" style="fill:#F0F0F0;" width="42.794" height="12.52"/>
		</g>
	</g>
	<g>
		<g>
			<rect x="56.789" y="114.393" style="fill:#F0F0F0;" width="42.794" height="12.52"/>
		</g>
	</g>
	<g>
		<g>
			<rect x="400.814" y="195.697" style="fill:#F0F0F0;" width="42.794" height="12.52"/>
		</g>
	</g>
	<g>
		<g>
			<rect x="281.655" y="124.381" style="fill:#F0F0F0;" width="42.794" height="12.52"/>
		</g>
	</g>
	<g>
		<rect x="79.918" y="61.463" style="fill:#E6E6E6;" width="128.346" height="105.603"/>
		<rect x="84.363" y="65.515" style="fill:#FAFAFA;" width="120.356" height="96.599"/>
		<rect x="172.726" y="76.369" style="fill:#F5F5F5;" width="13.392" height="19.231"/>
		<rect x="176.528" y="90.426" style="fill:#E0E0E0;" width="19.483" height="27.977"/>
		<rect x="92.886" y="128.201" style="fill:#F5F5F5;" width="13.392" height="19.231"/>
		<rect x="91.575" y="88.077" style="fill:#F5F5F5;" width="13.392" height="13.392"/>
		<rect x="140.267" y="137.817" style="fill:#E0E0E0;" width="13.392" height="13.392"/>
		<g>
			<rect x="162.562" y="112.895" style="fill:#F5F5F5;" width="30.5" height="42.862"/>
			<rect x="166.739" y="119.104" style="fill:#E0E0E0;" width="21.911" height="0.47"/>
			<rect x="177.455" y="119.555" style="fill:#E0E0E0;" width="0.47" height="31.742"/>
			<rect x="187.512" y="119.555" style="fill:#E0E0E0;" width="0.47" height="31.742"/>
			<rect x="168.517" y="119.555" style="fill:#E0E0E0;" width="0.47" height="31.742"/>
			<rect x="166.946" y="119.555" style="fill:#E0E0E0;" width="0.47" height="31.742"/>
			<rect x="167.181" y="121.23" style="fill:#E0E0E0;" width="20.34" height="0.47"/>
		</g>
		<rect x="147.27" y="84.83" style="fill:#F5F5F5;" width="10.557" height="4.528"/>
		<rect x="149.322" y="118.892" style="fill:#F5F5F5;" width="10.557" height="3.523"/>
		<rect x="116.751" y="83.349" style="fill:#F0F0F0;" width="34.295" height="48.195"/>
		<rect x="146.963" y="126.688" style="fill:#F5F5F5;" width="10.557" height="3.523"/>
		<rect x="148.729" y="94.477" style="fill:#F5F5F5;" width="10.557" height="3.523"/>
		<rect x="146.402" y="103.226" style="fill:#F5F5F5;" width="10.557" height="3.523"/>
		<rect x="120.792" y="89.273" style="fill:#E0E0E0;" width="23.378" height="4.147"/>
		<polygon style="fill:#E0E0E0;" points="144.54,106.992 121.162,106.992 120.792,105.108 144.17,105.108 		"/>
		<rect x="120.792" y="97.566" style="fill:#E0E0E0;" width="8.293" height="4.147"/>
	</g>
	<g>
		<rect x="73.31" y="186.265" style="fill:#F5F5F5;" width="53.502" height="48.202"/>
		<path style="fill:#E6E6E6;" d="M78.475,224.663V196.08c0-2.847,2.308-5.154,5.154-5.154h32.874c2.847,0,5.154,2.307,5.154,5.154
			v28.583c0,2.846-2.307,5.154-5.154,5.154H83.629C80.783,229.817,78.475,227.509,78.475,224.663z"/>
		<path style="fill:#E0E0E0;" d="M108.974,190.915c-0.404,1.412-1.714,2.372-3.182,2.33H94.33c-1.468,0.041-2.778-0.918-3.182-2.33
			H108.974z"/>
		<rect x="73.31" y="234.456" style="fill:#F0F0F0;" width="53.502" height="48.202"/>
		<path style="fill:#F5F5F5;" d="M78.475,272.854v-28.583c0-2.846,2.308-5.154,5.154-5.154h32.874c2.847,0,5.154,2.308,5.154,5.154
			v28.583c0,2.846-2.307,5.154-5.154,5.154H83.629C80.783,278.008,78.475,275.7,78.475,272.854z"/>
		<path style="fill:#E0E0E0;" d="M108.974,239.161c-0.405,1.411-1.715,2.366-3.182,2.319H94.33
			c-1.467,0.047-2.777-0.909-3.182-2.319H108.974z"/>
		<rect x="73.31" y="282.658" style="fill:#F5F5F5;" width="53.502" height="48.202"/>
		<path style="fill:#E6E6E6;" d="M78.475,321.056v-28.583c0-2.847,2.308-5.154,5.154-5.154h32.874c2.847,0,5.154,2.307,5.154,5.154
			v28.583c0,2.846-2.307,5.154-5.154,5.154H83.629C80.783,326.21,78.475,323.902,78.475,321.056z"/>
		<path style="fill:#E0E0E0;" d="M108.974,287.341c-0.405,1.41-1.715,2.366-3.182,2.319H94.33c-1.467,0.047-2.777-0.909-3.182-2.319
			H108.974z"/>
		<rect x="73.31" y="330.86" style="fill:#F0F0F0;" width="53.502" height="48.202"/>
		<path style="fill:#F5F5F5;" d="M78.475,369.258v-28.583c0-2.846,2.308-5.154,5.154-5.154h32.874c2.847,0,5.154,2.308,5.154,5.154
			v28.583c0,2.846-2.307,5.154-5.154,5.154H83.629C80.783,374.412,78.475,372.104,78.475,369.258z"/>
		<path style="fill:#E0E0E0;" d="M108.974,335.521c-0.404,1.413-1.714,2.372-3.182,2.331H94.33
			c-1.468,0.041-2.778-0.918-3.182-2.331H108.974z"/>
		<rect x="126.812" y="186.265" style="fill:#E0E0E0;" width="6.555" height="192.797"/>
		<rect x="128.56" y="186.265" style="fill:#F5F5F5;" width="53.502" height="48.202"/>
		<path style="fill:#E6E6E6;" d="M133.725,224.663V196.08c0-2.847,2.307-5.154,5.154-5.154h32.874c2.847,0,5.154,2.307,5.154,5.154
			v28.583c0,2.846-2.307,5.154-5.154,5.154h-32.874C136.032,229.817,133.725,227.509,133.725,224.663z"/>
		<path style="fill:#E0E0E0;" d="M164.224,190.892c-0.396,1.413-1.704,2.375-3.171,2.331h-11.473
			c-1.459,0.043-2.763-0.906-3.171-2.308L164.224,190.892z"/>
		<rect x="128.56" y="234.456" style="fill:#F0F0F0;" width="53.502" height="48.202"/>
		<path style="fill:#F5F5F5;" d="M133.725,272.854v-28.583c0-2.846,2.307-5.154,5.154-5.154h32.874c2.847,0,5.154,2.308,5.154,5.154
			v28.583c0,2.846-2.307,5.154-5.154,5.154h-32.874C136.032,278.008,133.725,275.7,133.725,272.854z"/>
		<path style="fill:#E0E0E0;" d="M164.224,239.161c-0.429,1.378-1.729,2.296-3.171,2.241h-11.473
			c-1.441,0.051-2.738-0.866-3.171-2.241H164.224z"/>
		<rect x="128.56" y="282.658" style="fill:#F5F5F5;" width="53.502" height="48.202"/>
		<path style="fill:#E6E6E6;" d="M133.725,321.056v-28.583c0-2.847,2.307-5.154,5.154-5.154h32.874c2.847,0,5.154,2.307,5.154,5.154
			v28.583c0,2.846-2.307,5.154-5.154,5.154h-32.874C136.032,326.21,133.725,323.902,133.725,321.056z"/>
		<path style="fill:#E0E0E0;" d="M164.224,287.341c-0.4,1.409-1.707,2.365-3.171,2.319H149.59c-1.467,0.047-2.777-0.909-3.182-2.319
			H164.224z"/>
		<rect x="128.56" y="330.86" style="fill:#F0F0F0;" width="53.502" height="48.202"/>
		<path style="fill:#F5F5F5;" d="M133.725,369.258v-28.583c0-2.846,2.307-5.154,5.154-5.154h32.874c2.847,0,5.154,2.308,5.154,5.154
			v28.583c0,2.846-2.307,5.154-5.154,5.154h-32.874C136.032,374.412,133.725,372.104,133.725,369.258z"/>
		<path style="fill:#E0E0E0;" d="M164.224,335.521c-0.396,1.413-1.704,2.375-3.171,2.331H149.59
			c-1.469,0.041-2.778-0.918-3.182-2.331H164.224z"/>
		<rect x="182.072" y="186.265" style="fill:#E0E0E0;" width="6.555" height="192.797"/>
	</g>
	<g>
		<g>
			<circle style="fill:#E6E6E6;" cx="256.903" cy="59.149" r="29.985"/>
			
				<ellipse transform="matrix(0.1615 -0.9869 0.9869 0.1615 156.9866 303.1581)" style="fill:#F5F5F5;" cx="256.903" cy="59.192" rx="27.119" ry="27.119"/>
			<g>
				<path style="fill:#E0E0E0;" d="M258.013,85.288c-14.977,0-27.119-12.142-27.119-27.119c0-7.63,3.152-14.523,8.224-19.451
					c-5.719,4.972-9.335,12.3-9.335,20.473c0,14.977,12.142,27.119,27.119,27.119c7.347,0,14.011-2.923,18.895-7.668
					C271.036,82.782,264.817,85.288,258.013,85.288z"/>
			</g>
			<g>
				<g>
					
						<rect x="263.492" y="56.735" transform="matrix(0.4558 -0.8901 0.8901 0.4558 84.6607 270.8365)" style="fill:#E0E0E0;" width="0.679" height="18.889"/>
				</g>
				<g>
					
						<rect x="253.426" y="55.329" transform="matrix(0.794 -0.6079 0.6079 0.794 20.428 171.6174)" style="fill:#E0E0E0;" width="20.002" height="0.678"/>
				</g>
				<polygon style="fill:#E0E0E0;" points="254.612,62.383 256.524,62.437 256.407,43.021 254.524,43.076 				"/>
			</g>
		</g>
	</g>
</g>
<g id="Background_simple" style="display:none;">
	<path style="display:inline;fill:#407BFF;" d="M143.071,92.333c-21.88,21.07-36.41,48.84-45.71,77.75
		c-6.32,19.63-10.37,40.93-4.85,60.8c5.52,19.87,22.89,37.64,43.52,37.84c15.77,0.16,30.23-9.71,39.84-22.21
		c9.61-12.5,15.27-27.5,21.3-42.06s12.79-29.29,24-40.38c11.21-11.09,26.56-17.91,42.1-21.65c10.91-2.62,23.57-3.53,32.22,3.62
		c10.66,8.8,9.89,26.09,2.75,37.93c-10.73,17.78-31.29,26.53-47.95,38.93c-30.43,22.65-48.94,60.47-48.16,98.4
		c0.24,11.91,3.1,25.15,13,31.82c10.31,7,24.74,4,35-3.09s17.51-17.51,25.84-26.75c23.05-25.54,54.09-42.15,81.87-62.44
		s54-47.11,59.49-81.07c4.61-28.57-6.84-58.38-26.67-79.46c-19.83-21.08-47.23-34-75.52-40.07
		C259.731,48.313,186.031,50.963,143.071,92.333z"/>
	<path style="display:inline;opacity:0.9;fill:#FFFFFF;" d="M143.071,92.333c-21.88,21.07-36.41,48.84-45.71,77.75
		c-6.32,19.63-10.37,40.93-4.85,60.8c5.52,19.87,22.89,37.64,43.52,37.84c15.77,0.16,30.23-9.71,39.84-22.21
		c9.61-12.5,15.27-27.5,21.3-42.06s12.79-29.29,24-40.38c11.21-11.09,26.56-17.91,42.1-21.65c10.91-2.62,23.57-3.53,32.22,3.62
		c10.66,8.8,9.89,26.09,2.75,37.93c-10.73,17.78-31.29,26.53-47.95,38.93c-30.43,22.65-48.94,60.47-48.16,98.4
		c0.24,11.91,3.1,25.15,13,31.82c10.31,7,24.74,4,35-3.09s17.51-17.51,25.84-26.75c23.05-25.54,54.09-42.15,81.87-62.44
		s54-47.11,59.49-81.07c4.61-28.57-6.84-58.38-26.67-79.46c-19.83-21.08-47.23-34-75.52-40.07
		C259.731,48.313,186.031,50.963,143.071,92.333z"/>
</g>
<g id="Shadow">
	<g>
		<g>
			<ellipse style="fill:#F5F5F5;" cx="250" cy="465.7" rx="208.875" ry="16.827"/>
		</g>
	</g>
</g>
<g id="Picture">
	<g>
		<g>
			<rect x="326.959" y="60.491" style="fill:#B97964;" width="80.951" height="113.644"/>
			<rect x="330.928" y="64.484" style="fill:#FFFFFF;" width="73.014" height="104.905"/>
		</g>
		<rect x="347.194" y="84.39" style="fill:#407BFF;" width="41.91" height="65.092"/>
		<g>
			<path style="fill:#FFFFFF;" d="M364.484,85.289c-2.868,3.645-5.954,7.301-7.286,11.836c-1.257,4.278-0.948,9.111,0.775,13.216
				c1.686,4.015,4.801,7.246,8.972,8.641c3.902,1.305,8.485,0.903,11.799-1.651c3.38-2.605,5.116-7.62,2.233-11.24
				c-2.441-3.065-6.884-3.758-10.526-3.016c-4.385,0.894-8.238,3.68-10.945,7.179c-3.047,3.938-4.599,8.778-5.219,13.671
				c-0.33,2.602-0.645,5.513,0.047,8.082c0.646,2.396,2.406,4.107,4.743,4.862c5.439,1.759,10.51-1.942,15.925-1.45
				c-0.358-0.358-0.715-0.715-1.073-1.073c-0.013,4.968-0.035,9.936-0.048,14.904c-0.004,1.381,2.142,1.383,2.146,0
				c0.013-4.968,0.035-9.936,0.049-14.904c0.002-0.619-0.495-1.02-1.073-1.073c-4.48-0.407-8.547,2.1-12.986,1.93
				c-1.61-0.062-3.325-0.484-4.481-1.675c-1.416-1.459-1.46-3.661-1.41-5.568c0.216-8.256,3.136-17.208,10.843-21.344
				c3.026-1.624,6.824-2.371,10.06-0.891c1.438,0.658,2.684,1.772,3.121,3.333c0.517,1.844-0.197,3.838-1.37,5.282
				c-2.259,2.783-6.126,3.681-9.542,3.026c-3.702-0.709-6.705-3.023-8.537-6.293c-2.085-3.722-2.646-8.403-1.656-12.542
				c1.083-4.527,4.145-8.149,6.957-11.723C366.846,85.733,365.338,84.204,364.484,85.289L364.484,85.289z"/>
		</g>
		<polygon style="opacity:0.2;" points="332.588,169.389 332.588,66.885 403.942,66.885 403.942,64.484 330.928,64.484 
			330.928,169.389 		"/>
		<path style="opacity:0.5;fill:#FFFFFF;" d="M372.092,109.25h-31.773c-0.567,0-1.027-0.46-1.027-1.026V76.451
			c0-0.567,0.46-1.027,1.027-1.027h31.773c0.567,0,1.026,0.46,1.026,1.027v31.773C373.118,108.791,372.659,109.25,372.092,109.25z"
			/>
	</g>
</g>
<g id="Chair">
	<g>
		<path style="fill:#263238;" d="M359.581,261.665c0,0-3.669,73.57-19.513,86.237h16.946c0,0,15.112-25.064,16.238-86.237H359.581z"
			/>
		<path style="opacity:0.6;fill:#FFFFFF;enable-background:new    ;" d="M359.581,261.665c0,0-3.669,73.57-19.513,86.237h16.946
			c0,0,15.112-25.064,16.238-86.237H359.581z"/>
		<path style="fill:#407BFF;" d="M288.866,341.805h78.898c2.481,0,4.493,2.011,4.493,4.493v7.7h-87.884v-7.7
			C284.373,343.816,286.384,341.805,288.866,341.805z"/>
		<path style="opacity:0.3;enable-background:new    ;" d="M288.866,341.805h78.898c2.481,0,4.493,2.011,4.493,4.493v7.7h-87.884
			v-7.7C284.373,343.816,286.384,341.805,288.866,341.805z"/>
		<path style="fill:#263238;" d="M368.937,438.415l-33.879-2.953v-53.329h-11.911v53.317l-34,2.965
			c-2.995,0.294-5.279,2.813-5.279,5.823v4.513h44.07h2.208h44.07v-4.513C374.216,441.229,371.932,438.71,368.937,438.415z"/>
		<path style="opacity:0.5;fill:#FFFFFF;enable-background:new    ;" d="M368.937,438.415l-33.879-2.953v-53.329h-11.911v53.317
			l-34,2.965c-2.995,0.294-5.279,2.813-5.279,5.823v4.513h44.07h2.208h44.07v-4.513C374.216,441.229,371.932,438.71,368.937,438.415
			z"/>
		<path style="fill:#263238;" d="M294.836,454.349c0,4.301-3.486,7.787-7.787,7.787c-4.3,0-7.787-3.486-7.787-7.787
			c0-4.301,3.487-7.787,7.787-7.787C291.349,446.562,294.836,450.048,294.836,454.349z"/>
		<path style="fill:#263238;" d="M363.249,454.349c0,4.301,3.486,7.787,7.787,7.787c4.301,0,7.787-3.486,7.787-7.787
			c0-4.301-3.487-7.787-7.787-7.787C366.735,446.562,363.249,450.048,363.249,454.349z"/>
		<path style="fill:#263238;" d="M333.659,387.552h-8.585c-2.051,0-3.714-1.663-3.714-3.714v-34.158h16.012v34.158
			C337.373,385.89,335.71,387.552,333.659,387.552z"/>
		<path style="opacity:0.6;fill:#FFFFFF;enable-background:new    ;" d="M333.659,387.552h-8.585c-2.051,0-3.714-1.663-3.714-3.714
			v-34.158h16.012v34.158C337.373,385.89,335.71,387.552,333.659,387.552z"/>
		<g>
			<path style="fill:#263238;" d="M282.836,347.901h90.957c0.998,0,1.807,0.809,1.807,1.807v2.482c0,0.998-0.809,1.807-1.807,1.807
				h-90.957c-0.998,0-1.807-0.809-1.807-1.807v-2.482C281.029,348.71,281.838,347.901,282.836,347.901z"/>
			<path style="opacity:0.6;fill:#FFFFFF;enable-background:new    ;" d="M282.836,347.901h90.957c0.998,0,1.807,0.809,1.807,1.807
				v2.482c0,0.998-0.809,1.807-1.807,1.807h-90.957c-0.998,0-1.807-0.809-1.807-1.807v-2.482
				C281.029,348.71,281.838,347.901,282.836,347.901z"/>
		</g>
		<path style="fill:#407BFF;" d="M370.125,334.985l-27.911,0c-8.177,0-14.082-7.347-13.189-16.41l12.69-70.923
			c0.892-9.063,8.244-16.41,16.42-16.41h27.911c8.177,0,14.082,7.347,13.19,16.41l-12.69,70.923
			C385.653,327.638,378.301,334.985,370.125,334.985z"/>
		<path style="opacity:0.3;enable-background:new    ;" d="M370.125,334.985l-27.911,0c-8.177,0-14.082-7.347-13.189-16.41
			l12.69-70.923c0.892-9.063,8.244-16.41,16.42-16.41h27.911c8.177,0,14.082,7.347,13.19,16.41l-12.69,70.923
			C385.653,327.638,378.301,334.985,370.125,334.985z"/>
		<path style="opacity:0.3;enable-background:new    ;" d="M386.045,231.242h-5.333c8.177,0,14.082,7.347,13.19,16.41l-12.69,70.923
			c-0.892,9.063-8.244,16.41-16.42,16.41h5.332c8.176,0,15.528-7.347,16.42-16.41l12.69-70.923
			C400.127,238.589,394.222,231.242,386.045,231.242z"/>
		<g>
			<g>
				<path style="fill:#407BFF;" d="M388.376,231.89H361.08c-4.811,0-8.712-3.9-8.712-8.712v-8.248c0-4.811,3.9-8.712,8.712-8.712
					h27.296c4.811,0,8.712,3.9,8.712,8.712v8.248C397.088,227.989,393.188,231.89,388.376,231.89z"/>
				<path style="opacity:0.5;enable-background:new    ;" d="M388.376,231.89H361.08c-4.811,0-8.712-3.9-8.712-8.712v-8.248
					c0-4.811,3.9-8.712,8.712-8.712h27.296c4.811,0,8.712,3.9,8.712,8.712v8.248C397.088,227.989,393.188,231.89,388.376,231.89z"/>
			</g>
			<path style="fill:#407BFF;" d="M383.433,231.89h-27.296c-4.811,0-8.712-3.9-8.712-8.712v-8.248c0-4.811,3.9-8.712,8.712-8.712
				h27.296c4.811,0,8.712,3.9,8.712,8.712v8.248C392.145,227.989,388.245,231.89,383.433,231.89z"/>
			<path style="opacity:0.3;enable-background:new    ;" d="M383.433,231.89h-27.296c-4.811,0-8.712-3.9-8.712-8.712v-8.248
				c0-4.811,3.9-8.712,8.712-8.712h27.296c4.811,0,8.712,3.9,8.712,8.712v8.248C392.145,227.989,388.245,231.89,383.433,231.89z"/>
		</g>
	</g>
</g>
<g id="Desk">
	<g>
		<g>
			<g>
				<g>
					<path style="fill:#407BFF;" d="M425.572,293.885h-65.298v-8.572h65.298C426.913,288.17,426.913,291.028,425.572,293.885z"/>
					<path style="opacity:0.8;fill:#FFFFFF;" d="M395.325,293.155h-35.051v-7.111h35.051
						C396.026,288.414,396.026,290.784,395.325,293.155z"/>
					<path style="opacity:0.2;" d="M397.01,285.313c0.673,2.691,0.714,5.539,0,8.572h28.562c1.341-2.857,1.341-5.715,0-8.572H397.01
						z"/>
					<g style="opacity:0.3;">
						<g>
							<path d="M360.716,291.139c11.644,0,23.288,0,34.931,0c0.096,0,0.097-0.15,0-0.15c-11.644,0-23.288,0-34.931,0
								C360.619,290.989,360.619,291.139,360.716,291.139L360.716,291.139z"/>
						</g>
					</g>
					<g style="opacity:0.3;">
						<g>
							<path d="M360.541,288.873c11.702,0,23.404,0,35.106,0c0.096,0,0.097-0.15,0-0.15c-11.702,0-23.404,0-35.106,0
								C360.444,288.723,360.444,288.873,360.541,288.873L360.541,288.873z"/>
						</g>
					</g>
				</g>
				<g>
					<g>
						<path style="fill:#263238;" d="M422.211,290.296c-5.502,0-11.003,0-16.505,0c-0.689,0-1.4-0.05-2.087,0
							c-0.581,0.042-0.545,0.238-0.609-0.251c-0.035-0.27,0.085-0.647,0-0.904c-0.09-0.275-0.031-0.113-0.109-0.092
							c0.429-0.118,1.062,0,1.502,0c4.904,0,9.808,0,14.711,0c0.874,0,1.748,0,2.622,0c0.125,0,0.341-0.041,0.464,0
							c-0.131-0.043-0.134-0.225-0.14-0.035c-0.005,0.188,0,0.376,0,0.563c0,0.29,0,0.58,0,0.87c0,0.193,0.3,0.193,0.3,0
							c0-0.516,0-1.032,0-1.548c0-0.081-0.069-0.15-0.15-0.15c-5.651,0-11.302,0-16.953,0c-0.799,0-1.598,0-2.398,0
							c-0.081,0-0.15,0.069-0.15,0.15c0,0.516,0,1.032,0,1.548c0,0.081,0.069,0.15,0.15,0.15c6.45,0,12.9,0,19.35,0
							C422.404,290.595,422.405,290.296,422.211,290.296z"/>
					</g>
				</g>
			</g>
			<g>
				<g>
					<path style="fill:#407BFF;" d="M420.281,280.723h-51.94v-6.819h51.94C421.348,276.178,421.348,278.451,420.281,280.723z"/>
					<path style="opacity:0.8;fill:#FFFFFF;" d="M396.221,280.142H368.34v-5.657h27.881
						C396.779,276.371,396.779,278.257,396.221,280.142z"/>
					<path style="opacity:0.2;" d="M397.562,273.905c0.535,2.141,0.568,4.406,0,6.819h22.719c1.067-2.273,1.067-4.546,0-6.819
						H397.562z"/>
					<g style="opacity:0.3;">
						<g>
							<path d="M368.692,278.555c9.262,0,18.524,0,27.785,0c0.097,0,0.097-0.15,0-0.15c-9.262,0-18.524,0-27.785,0
								C368.596,278.405,368.595,278.555,368.692,278.555L368.692,278.555z"/>
						</g>
					</g>
					<g style="opacity:0.3;">
						<g>
							<path d="M368.553,276.752c9.308,0,18.616,0,27.925,0c0.097,0,0.097-0.15,0-0.15c-9.308,0-18.616,0-27.925,0
								C368.456,276.602,368.456,276.752,368.553,276.752L368.553,276.752z"/>
						</g>
					</g>
				</g>
				<g>
					<g>
						<path style="fill:#263238;" d="M417.608,277.837c-4.376,0-8.752,0-13.128,0c-0.544,0-1.119-0.054-1.66,0
							c-0.454,0.045-0.409,0.218-0.454-0.169c-0.024-0.209,0.069-0.521,0-0.72c-0.085-0.245-0.035-0.052-0.118-0.042
							c0.385-0.047,0.807,0,1.195,0c3.901,0,7.801,0,11.702,0c0.695,0,1.391,0,2.086,0c0.118,0,0.252-0.017,0.369,0
							c-0.292-0.042-0.071-0.213-0.142-0.059c-0.047,0.103,0,0.334,0,0.448c0,0.231,0,0.461,0,0.692c0,0.193,0.3,0.193,0.3,0
							c0-0.41,0-0.821,0-1.231c0-0.081-0.069-0.15-0.15-0.15c-4.495,0-8.99,0-13.485,0c-0.636,0-1.271,0-1.907,0
							c-0.081,0-0.15,0.069-0.15,0.15c0,0.41,0,0.821,0,1.231c0,0.081,0.069,0.15,0.15,0.15c5.131,0,10.261,0,15.392,0
							C417.801,278.137,417.801,277.837,417.608,277.837z"/>
					</g>
				</g>
			</g>
			<g>
				<g>
					<path style="fill:#263238;" d="M427.908,285.616h-71.036v-4.987h71.036C429.249,282.291,429.249,283.953,427.908,285.616z"/>
					<path style="opacity:0.8;fill:#FFFFFF;" d="M391.923,285.191h-35.051v-4.137h35.051
						C392.624,282.432,392.624,283.811,391.923,285.191z"/>
					<g style="opacity:0.3;">
						<g>
							<path d="M357.314,284.049c11.644,0,23.288,0,34.931,0c0.096,0,0.097-0.15,0-0.15c-11.644,0-23.288,0-34.931,0
								C357.218,283.9,357.217,284.049,357.314,284.049L357.314,284.049z"/>
						</g>
					</g>
					<g style="opacity:0.3;">
						<g>
							<path d="M357.139,282.731c11.702,0,23.404,0,35.106,0c0.096,0,0.097-0.15,0-0.15c-11.702,0-23.404,0-35.106,0
								C357.043,282.581,357.042,282.731,357.139,282.731L357.139,282.731z"/>
						</g>
					</g>
				</g>
			</g>
		</g>
		<g>
			<rect x="146.576" y="294.559" style="fill:#263238;enable-background:new    ;" width="5.938" height="163.793"/>
			<rect x="146.576" y="294.559" style="opacity:0.3;fill:#FFFFFF;enable-background:new    ;" width="5.938" height="163.793"/>
			<polygon style="opacity:0.2;" points="146.576,296.717 146.576,307.257 152.514,304.608 152.514,295.82 			"/>
		</g>
		<g>
			<rect x="98.773" y="294.559" style="fill:#263238;enable-background:new    ;" width="5.937" height="163.793"/>
			<rect x="98.773" y="294.559" style="opacity:0.3;fill:#FFFFFF;enable-background:new    ;" width="5.937" height="163.793"/>
			<polygon style="opacity:0.2;" points="98.773,297.421 98.773,307.961 104.711,305.312 104.711,296.524 			"/>
		</g>
		<g>
			<rect x="352.777" y="294.559" style="fill:#263238;enable-background:new    ;" width="5.937" height="166.57"/>
			<rect x="352.777" y="294.559" style="opacity:0.3;fill:#FFFFFF;enable-background:new    ;" width="5.937" height="166.57"/>
			<polygon style="opacity:0.2;" points="352.777,299.055 352.777,309.595 358.714,306.946 358.714,298.158 			"/>
		</g>
		<g>
			<rect x="414.497" y="294.559" style="fill:#263238;enable-background:new    ;" width="5.938" height="166.57"/>
			<rect x="414.497" y="294.559" style="opacity:0.3;fill:#FFFFFF;enable-background:new    ;" width="5.938" height="166.57"/>
			<polygon style="opacity:0.2;" points="414.497,299.055 414.497,309.595 420.435,306.945 420.435,298.158 			"/>
		</g>
		<rect x="76.823" y="292.798" style="fill:#B97964;enable-background:new    ;" width="383.576" height="6.044"/>
		<rect x="381.676" y="292.798" style="opacity:0.3;enable-background:new    ;" width="78.722" height="6.044"/>
		<g>
			<path style="fill:#263238;enable-background:new    ;" d="M183.115,270.931c0.208,2.619-1.457,4.745-3.724,4.745h-71.833
				c-2.278,0-4.29-2.127-4.498-4.745l-4.267-52.864c-0.047-0.545-0.012-1.063,0.092-1.542c0.405-1.861,1.827-3.204,3.631-3.204
				h71.833c2.278,0,4.29,2.127,4.498,4.746L183.115,270.931z"/>
			<path style="opacity:0.7;fill:#FFFFFF;" d="M183.115,270.931c0.208,2.619-1.457,4.745-3.724,4.745h-71.833
				c-2.278,0-4.29-2.127-4.498-4.745l-4.267-52.864c-0.047-0.545-0.012-1.063,0.092-1.542c0.405-1.861,1.827-3.204,3.631-3.204
				h71.833c2.278,0,4.29,2.127,4.498,4.746L183.115,270.931z"/>
			<path style="fill:#263238;enable-background:new    ;" d="M179.137,275.677h-71.579c-2.278,0-4.29-2.127-4.498-4.745
				l-4.267-52.864c-0.047-0.545-0.012-1.063,0.092-1.542h71.579c2.266,0,4.278,2.127,4.498,4.745l4.267,52.864
				C179.276,274.68,179.241,275.198,179.137,275.677z"/>
			<path style="opacity:0.5;fill:#FFFFFF;enable-background:new    ;" d="M179.137,275.677h-71.579c-2.278,0-4.29-2.127-4.498-4.745
				l-4.267-52.864c-0.047-0.545-0.012-1.063,0.092-1.542h71.579c2.266,0,4.278,2.127,4.498,4.745l4.267,52.864
				C179.276,274.68,179.241,275.198,179.137,275.677z"/>
			<polygon style="fill:#263238;enable-background:new    ;" points="130.968,263.349 145.408,263.413 142.614,289.424 
				156.798,289.644 156.798,292.707 118.595,292.798 118.595,289.776 127.802,289.6 			"/>
			<path style="opacity:0.3;" d="M145.408,263.413c-0.042,0.389,3.197,12.264,3.197,12.264h-4.515L145.408,263.413z"/>
			<polygon style="opacity:0.3;" points="129.482,275.677 130.968,263.349 127.237,275.677 			"/>
			<polygon style="opacity:0.6;fill:#FFFFFF;enable-background:new    ;" points="130.968,263.349 145.408,263.413 142.614,289.424 
				156.798,289.644 156.798,292.707 118.595,292.798 118.595,289.776 127.802,289.6 			"/>
		</g>
		<g>
			<g>
				<path style="fill:#407BFF;" d="M287.253,292.997l2.699-12.092l39.803-0.122c0,0,6.258,11.778,6.028,11.778
					C331.938,292.561,338.583,292.602,287.253,292.997z"/>
			</g>
			<g style="opacity:0.8;">
				<path style="fill:#FFFFFF;" d="M289.576,291.712l1.991-9.393l35.374,0.076l-1.079,9.317l-36.272,0.013
					C289.58,291.725,289.572,291.72,289.576,291.712z"/>
			</g>
			<g style="opacity:0.5;">
				<path d="M329.178,281.612c-0.112,0.168-1.325,11.013-1.325,11.013h6.853L329.178,281.612z"/>
			</g>
			<g>
				<path style="fill:#263238;" d="M301.561,288.07c0,1.184-1.048,1.744-2.485,1.744h-2.896l1.105-5.523h2.667
					c1.191,0,1.854,0.45,1.854,1.262c0,0.695-0.402,1.168-0.986,1.413C301.285,287.155,301.561,287.526,301.561,288.07z
					 M300.292,288.054c0-0.41-0.323-0.567-0.828-0.567h-1.546l-0.269,1.364h1.507C299.857,288.852,300.292,288.583,300.292,288.054z
					 M298.359,285.253l-0.261,1.302h1.302c0.663,0,1.066-0.269,1.066-0.781c0-0.363-0.3-0.521-0.813-0.521H298.359z"/>
				<path style="fill:#263238;" d="M302.984,287.511c0-1.887,1.381-3.315,3.415-3.315c1.681,0,2.691,0.979,2.691,2.399
					c0,1.885-1.382,3.313-3.417,3.313C303.994,289.909,302.984,288.931,302.984,287.511z M307.796,286.666
					c0-0.821-0.536-1.38-1.506-1.38c-1.248,0-2.012,0.986-2.012,2.154c0,0.82,0.536,1.381,1.507,1.381
					C307.031,288.82,307.796,287.834,307.796,286.666z"/>
				<path style="fill:#263238;" d="M309.771,289.293l0.521-0.986c0.505,0.371,1.168,0.576,1.822,0.576
					c0.703,0,1.144-0.244,1.144-0.647c0-0.883-2.737-0.41-2.737-2.169c0-1.137,0.994-1.871,2.525-1.871
					c0.741,0,1.428,0.165,1.909,0.474l-0.481,0.978c-0.418-0.284-0.954-0.425-1.499-0.425c-0.741,0-1.175,0.284-1.175,0.679
					c-0.009,0.907,2.737,0.433,2.737,2.129c0,1.144-1.01,1.878-2.548,1.878C311.09,289.909,310.237,289.64,309.771,289.293z"/>
				<path style="fill:#263238;" d="M315.399,289.293l0.521-0.986c0.505,0.371,1.168,0.576,1.822,0.576
					c0.703,0,1.144-0.244,1.144-0.647c0-0.883-2.738-0.41-2.738-2.169c0-1.137,0.994-1.871,2.525-1.871
					c0.741,0,1.428,0.165,1.909,0.474l-0.481,0.978c-0.418-0.284-0.954-0.425-1.499-0.425c-0.743,0-1.175,0.284-1.175,0.679
					c-0.009,0.907,2.738,0.433,2.738,2.129c0,1.144-1.01,1.878-2.548,1.878C316.717,289.909,315.865,289.64,315.399,289.293z"/>
			</g>
		</g>
	</g>
</g>
<g id="Plant">
	<g>
		<g>
			<path style="fill:#407BFF;" d="M79.454,399.436c-3.087-0.168-6.001-1.671-8.276-3.764c-2.276-2.093-3.966-4.748-5.364-7.506
				c-3.711-7.323-5.506-15.608-5.158-23.811c0.075-1.759,0.257-3.556,1.012-5.146c0.755-1.59,2.184-2.955,3.927-3.206
				c2.602-0.376,4.871,1.704,6.524,3.748c7.503,9.279,11.361,21.428,10.588,33.336C82.518,396.002,81.545,398.817,79.454,399.436"/>
		</g>
		<g>
			<path style="fill:#407BFF;" d="M97.398,385.258c-2.834-5.886-3.042-12.859-1.169-19.117c1.873-6.258,5.721-11.819,10.487-16.286
				c5.226-4.899,11.937-8.662,19.101-8.7c3.054-0.016,6.36,0.803,8.235,3.214c1.996,2.567,1.831,6.216,0.955,9.347
				c-1.434,5.127-4.477,9.69-8.112,13.581c-3.635,3.89-7.865,7.168-12.086,10.413c-4.757,3.658-9.895,7.444-15.878,7.901"/>
		</g>
		<g>
			<path style="fill:#407BFF;" d="M97.823,405.12c0.843-6.614,5.98-12.082,11.987-14.974s12.812-3.602,19.471-3.935
				c1.483-0.074,3-0.127,4.418,0.314c1.417,0.441,2.738,1.475,3.119,2.91c0.499,1.879-0.694,3.765-1.938,5.259
				c-7.295,8.756-18.708,13.925-30.101,13.632c-1.318-0.034-2.66-0.143-3.878-0.648c-1.217-0.506-2.306-1.468-2.672-2.735"/>
		</g>
		<g>
			<g>
				<path style="fill:#263238;" d="M65.713,360.599c7.098,17.344,12.796,35.253,16.993,53.519
					c1.199,5.218,2.272,10.464,3.229,15.732c0.086,0.474,0.809,0.273,0.723-0.199c-3.351-18.439-8.186-36.6-14.478-54.253
					c-1.798-5.043-3.716-10.042-5.744-14.997C66.256,359.959,65.53,360.152,65.713,360.599L65.713,360.599z"/>
			</g>
		</g>
		<g>
			<g>
				<path style="fill:#263238;" d="M90.445,429.276c-0.389-11.918,0.551-23.949,3.871-35.441
					c3.34-11.561,9.143-22.284,17.155-31.278c5.019-5.634,10.794-10.535,17.014-14.793c0.396-0.271,0.021-0.921-0.379-0.648
					c-10.696,7.321-20.013,16.595-26.568,27.832c-5.96,10.216-9.434,21.659-10.95,33.354c-0.901,6.951-1.123,13.972-0.894,20.973
					C89.711,429.757,90.461,429.76,90.445,429.276L90.445,429.276z"/>
			</g>
		</g>
		<g>
			<g>
				<path style="fill:#263238;" d="M90.834,412.712c9.414-10.955,22.616-18.588,36.851-21.113c0.474-0.084,0.273-0.807-0.199-0.723
					c-14.347,2.544-27.694,10.265-37.182,21.306C89.991,412.546,90.519,413.078,90.834,412.712L90.834,412.712z"/>
			</g>
		</g>
		<g>
			<path style="fill:#407BFF;" d="M111.769,437.885v-14.316h-19.94H71.89v14.316c0,0-0.767,25.309,13.293,27.609h6.647h6.647
				C112.536,463.193,111.769,437.885,111.769,437.885z"/>
			<path style="opacity:0.3;enable-background:new    ;" d="M111.769,437.885v-14.316h-19.94H71.89v14.316
				c0,0-0.767,25.309,13.293,27.609h6.647h6.647C112.536,463.193,111.769,437.885,111.769,437.885z"/>
		</g>
	</g>
</g>
<g id="Character">
	<g>
		<g>
			<path style="fill:#FDBBB5;" d="M247.319,161.358c4.501-0.475,4.041-5.999,3.492-10.231c-0.222-1.51-0.566-3.006-1.031-4.473
				l7.842-6.547l7.097-6.007c-0.441,2.64-0.741,5.304-0.901,7.981c-0.394,4.627,0.126,8.323,0.732,12.773
				c0.556,1.982,1.758,3.517,2.728,4.769c0,0-8.056,6.096-13.589,5.944C248.157,165.416,247.319,161.358,247.319,161.358z"/>
			<path style="opacity:0.2;enable-background:new    ;" d="M263.938,145.616c0,0-4.659,11.182-12.996,6.82l-0.123-1.95
				L263.938,145.616z"/>
			<path style="fill:#FDBBB5;" d="M268.122,120.406c-2.65-7.736-11.318-12.154-19.36-9.867c-11.088,3.169-13.55,18.656-11.74,28.319
				c2.017,10.759,15.398,16.851,24.293,9.518c5.93-4.878,6.134-11.083,7.454-21.539
				C269.058,124.689,268.837,122.492,268.122,120.406z"/>
			<path style="fill:#263238;" d="M233.833,117.181c0,0,1.023,1.195,1.982,0.846c-0.961-1.554-0.84-3.482,0.305-4.854
				c0,0,0.693,1.652,1.511,1.686c0.491-3.903,2.23-7.533,4.983-10.401c4.777-5.316,20.432,1.537,20.432,1.537
				s3.744-3.182,9.702,2.207c4.776,4.32,5.335,13.142,4.893,16.942c-1.74,3.661-5.838,7.204-11.392,9.001
				c-2.73-3.105-2.923-7.79-2.647-11.032c-0.824-0.229-1.594-0.654-2.221-1.258c-2.44-2.341-0.623-10.49-10.355-9.275
				c-1.719-1.051-3.895-1.059-5.556-0.022c-2.99,1.74-4.603,11.26-8.741,8.475C232.591,118.249,233.833,117.181,233.833,117.181z"/>
			<path style="opacity:0.4;fill:#FFFFFF;" d="M233.833,117.181c0,0,1.023,1.195,1.982,0.846c-0.961-1.554-0.84-3.482,0.305-4.854
				c0,0,0.693,1.652,1.511,1.686c0.491-3.903,2.23-7.533,4.983-10.401c4.777-5.316,20.432,1.537,20.432,1.537
				s3.744-3.182,9.702,2.207c4.776,4.32,5.335,13.142,4.893,16.942c-1.74,3.661-5.838,7.204-11.392,9.001
				c-2.73-3.105-2.923-7.79-2.647-11.032c-0.824-0.229-1.594-0.654-2.221-1.258c-2.44-2.341-0.623-10.49-10.355-9.275
				c-1.719-1.051-3.895-1.059-5.556-0.022c-2.99,1.74-4.603,11.26-8.741,8.475C232.591,118.249,233.833,117.181,233.833,117.181z"/>
			<g>
				<path style="fill:#263238;" d="M252.658,128.924c-0.12,1.194-1.033,2.024-1.865,1.865c-0.833-0.158-1.309-1.251-1.108-2.436
					c0.2-1.185,1.053-2.022,1.866-1.866C252.363,126.643,252.861,127.72,252.658,128.924z"/>
				<path style="fill:#263238;" d="M242.186,128.316c-0.12,1.194-1.053,2.022-1.866,1.866c-0.813-0.156-1.309-1.251-1.108-2.436
					c0.2-1.184,1.053-2.021,1.866-1.866C241.891,126.036,242.381,127.188,242.186,128.316z"/>
				<path style="fill:#263238;" d="M237.982,123.063c0.178,0.122,0.408,0.146,0.604,0.064c1.31-0.614,2.863-0.597,4.191,0.044
					c0.273,0.162,0.627,0.087,0.791-0.169c0.164-0.255,0.076-0.593-0.197-0.755c-0.001-0.001-0.001-0.001-0.002-0.001
					c-1.657-0.851-3.627-0.896-5.284-0.121c-0.29,0.118-0.419,0.439-0.288,0.718c0.002,0.004,0.004,0.008,0.006,0.012
					C237.851,122.932,237.912,123.003,237.982,123.063z"/>
				<path style="opacity:0.4;fill:#FFFFFF;" d="M237.982,123.063c0.178,0.122,0.408,0.146,0.604,0.064
					c1.31-0.614,2.863-0.597,4.191,0.044c0.273,0.162,0.627,0.087,0.791-0.169c0.164-0.255,0.076-0.593-0.197-0.755
					c-0.001-0.001-0.001-0.001-0.002-0.001c-1.657-0.851-3.627-0.896-5.284-0.121c-0.29,0.118-0.419,0.439-0.288,0.718
					c0.002,0.004,0.004,0.008,0.006,0.012C237.851,122.932,237.912,123.003,237.982,123.063z"/>
				<path style="fill:#263238;" d="M253.772,124.449c0.113-0.03,0.214-0.094,0.288-0.18c0.15-0.269,0.043-0.598-0.238-0.735
					c-0.004-0.002-0.007-0.004-0.011-0.006c-1.647-0.822-3.627-0.827-5.306-0.015c-0.277,0.154-0.373,0.489-0.215,0.749l0,0.001
					c0.164,0.254,0.511,0.338,0.79,0.191l0,0c1.344-0.605,2.903-0.578,4.202,0.074C253.449,124.571,253.628,124.542,253.772,124.449
					z"/>
				<path style="opacity:0.4;fill:#FFFFFF;" d="M253.772,124.449c0.113-0.03,0.214-0.094,0.288-0.18
					c0.15-0.269,0.043-0.598-0.238-0.735c-0.004-0.002-0.007-0.004-0.011-0.006c-1.647-0.822-3.627-0.827-5.306-0.015
					c-0.277,0.154-0.373,0.489-0.215,0.749l0,0.001c0.164,0.254,0.511,0.338,0.79,0.191l0,0c1.344-0.605,2.903-0.578,4.202,0.074
					C253.449,124.571,253.628,124.542,253.772,124.449z"/>
			</g>
			<g>
				<path style="fill:#FDBBB5;" d="M274.634,135.893c-1.193,2.64-3.452,4.689-6.282,5.697c-3.756,1.309-6.059-1.864-5.38-5.436
					c0.635-3.167,3.329-7.77,7.282-7.505C274.207,128.915,276.056,132.634,274.634,135.893z"/>
				<path style="opacity:0.1;fill:none;stroke:#000000;stroke-width:0.5;stroke-miterlimit:10;" d="M265.619,136.875
					c0.219-1.948,1.392-3.752,3.112-4.788c0.731-0.44,1.746-0.725,2.449-0.204"/>
			</g>
			<path style="fill:#D7504D;" d="M245.069,127.071c-1.655,2.6-3.686,4.96-6.037,7.01c1.192,1.171,2.85,1.796,4.53,1.707
				L245.069,127.071z"/>
			<g style="opacity:0.3;">
				<g>
					<path style="fill:#FFFFFF;" d="M251.451,111.666c-0.508-1.389-1.147-2.534-2.226-3.572c-0.965-0.93-2.249-1.603-3.597-1.718
						c-1.587-0.135-3.151,0.601-4.238,1.726c-1.104,1.144-1.766,2.631-2.216,4.136c-0.139,0.463,0.585,0.661,0.723,0.199
						c0.7-2.341,2.144-4.903,4.798-5.285c1.028-0.148,2.024,0.13,2.923,0.655c1.569,0.916,2.504,2.4,3.11,4.058
						C250.892,112.315,251.617,112.121,251.451,111.666L251.451,111.666z"/>
				</g>
			</g>
			<g style="opacity:0.3;">
				<g>
					<path style="fill:#FFFFFF;" d="M253.685,110.938c-0.361-3.568-2.939-6.717-6.384-7.74c-0.464-0.138-0.662,0.586-0.199,0.723
						c3.102,0.921,5.507,3.789,5.834,7.017C252.983,111.413,253.733,111.418,253.685,110.938L253.685,110.938z"/>
				</g>
			</g>
			<g>
				<g>
					<path style="fill:#263238;" d="M248.151,139.805c2.164-0.385,4.103-1.601,5.439-3.336c0.124-0.162,0.023-0.418-0.135-0.513
						c-0.192-0.115-0.39-0.025-0.513,0.135c-1.218,1.582-3.032,2.643-4.991,2.992C247.477,139.166,247.678,139.889,248.151,139.805
						L248.151,139.805z"/>
				</g>
			</g>
		</g>
		<g>
			<polygon style="fill:#263238;" points="212.777,439.747 199.395,436.416 199.343,458.967 207.593,461.75 			"/>
			<path style="fill:#263238;" d="M197.913,454.889l3.231,0.38c0.731,0.086,1.378,0.52,1.763,1.135
				c1.66,2.657,3.137,1.9,5.355-0.153c1.301,0.008,1.529,1.465,1.603,1.858l1.714,8.7c0.151,0.728-0.335,1.41-1.085,1.525
				c-0.133,0.02-0.27,0.022-0.406,0.004c-3.924-0.461-5.781-0.68-10.664-1.254l-14.936-1.756c-4.072-0.479-4.588-4.508-2.88-4.675
				c7.675-0.71,13.193-2.207,15.699-4.035C197.77,456.301,197.349,455.973,197.913,454.889z"/>
			<path style="fill:#407BFF;" d="M192.857,457.19c1.022,0.096,2.047,0.091,3.059-0.018c0.096-0.021,0.152-0.114,0.126-0.207
				c-0.014-0.05-0.051-0.093-0.099-0.116c-0.436-0.265-4.325-2.549-5.395-1.981c-0.2,0.096-0.32,0.296-0.309,0.515
				c-0.028,0.402,0.144,0.801,0.464,1.075C191.33,456.914,192.085,457.17,192.857,457.19z M195.302,456.866
				c-1.21,0.072-3.448,0.094-4.311-0.67c-0.223-0.207-0.346-0.493-0.339-0.785c-0.011-0.093,0.039-0.181,0.125-0.22
				C191.366,454.883,193.683,455.961,195.302,456.866z"/>
			<path style="fill:#407BFF;" d="M195.872,457.178c0.04,0.017,0.084,0.022,0.126,0.015c0.058-0.039,0.084-0.108,0.068-0.176
				c0.014-0.162-0.618-4.082-2.854-4.1c-0.554,0.006-0.734,0.24-0.772,0.45c-0.221,0.994,2.162,3.203,3.334,3.83L195.872,457.178z
				 M193.409,453.246c1.403,0.165,2.03,2.483,2.23,3.405c-1.263-0.822-2.977-2.625-2.809-3.228c0.004-0.05,0.016-0.192,0.431-0.184
				L193.409,453.246z"/>
			<path style="fill:none;stroke:#407BFF;stroke-width:0.5;stroke-linecap:round;stroke-linejoin:round;stroke-miterlimit:10;" d="
				M195.471,457.014c1.101,0.276,2.08,1.035,2.603,2.016"/>
			<path style="fill:none;stroke:#407BFF;stroke-width:0.5;stroke-linecap:round;stroke-linejoin:round;stroke-miterlimit:10;" d="
				M193.342,458.225c1.101,0.276,2.08,1.035,2.603,2.016"/>
			<path style="fill:none;stroke:#407BFF;stroke-width:0.5;stroke-linecap:round;stroke-linejoin:round;stroke-miterlimit:10;" d="
				M190.742,459.149c1.101,0.276,2.08,1.035,2.603,2.016"/>
		</g>
		<path style="fill:#407BFF;" d="M244.531,160.588c0.419-0.387,6.23-5.448,6.23-5.448l4.951,5.448l9.568-6.617l4.7,4.025
			l-24.466,47.585l-3.828-5.324L244.531,160.588z"/>
		<path style="opacity:0.8;fill:#FFFFFF;" d="M244.531,160.588c0.419-0.387,6.23-5.448,6.23-5.448l4.951,5.448l9.568-6.617
			l4.7,4.025l-24.466,47.585l-3.828-5.324L244.531,160.588z"/>
		<g>
			<path style="fill:#407BFF;" d="M255.093,162.536c-0.364,0.218-3.567,2.693-3.567,2.693l0.811,4.299l3.189,0.589l3.425-5.179
				L255.093,162.536z"/>
			<polygon style="fill:#407BFF;" points="252.337,169.528 245.483,187.737 245.817,205.581 254.778,186.895 255.526,170.117 			"/>
			<polygon style="opacity:0.5;" points="252.337,169.528 245.483,187.737 245.817,205.581 254.778,186.895 255.526,170.117 			"/>
			<path style="opacity:0.5;" d="M255.093,162.536c-0.364,0.218-3.567,2.693-3.567,2.693l0.811,4.299l3.189,0.589l3.425-5.179
				L255.093,162.536z"/>
		</g>
		<polygon points="241.444,259.687 247.618,259.687 245.817,253.281 244.792,249.268 243.526,253.281 		"/>
		<g>
			<path style="fill:#263238;" d="M215.012,456.651l34.909-160.69l-2.581-48.859l-28.339,1.557c0,0-16.077,172.041-22.228,204.58
				L215.012,456.651z"/>
			<path style="fill:#263238;" d="M243.114,250.321c0,0,11.515,105.207,11.043,129.228s2.786,78.472,2.786,78.472l17.545-1.197
				c0,0,5.12-71.167,6.534-96.911c1.414-25.743,2.353-70.277,1.882-81.222c-0.471-10.945-6.331-37.23-6.331-37.23L243.114,250.321z"
				/>
			<polygon style="opacity:0.3;" points="248.487,302.561 241.444,293.331 245.489,316.361 			"/>
		</g>
		<g>
			<path style="fill:#407BFF;" d="M246.626,157.996l-6.327,3.564c0,0-16.438,3.171-17.216,5.032
				c-0.778,1.861-2.289,65.355-2.563,70.547c-0.274,5.192-12.549,43.458-11.453,45.371c1.095,1.913,18.325,11.998,22.16,9.265
				c3.834-2.733,12.91-31.982,12.91-31.982l1.681-54.8L246.626,157.996z"/>
			<path style="opacity:0.3;" d="M234.897,178.69c0.888,1.397,3.039,3.438,3.039,3.438s-3.624,2.608-3.851,4.309
				c-0.227,1.701,9.106,33.563,10.052,32.883c0.326-0.234,0.876-3.232,1.458-7.061l0.223-7.266l0.81-46.997l-6.327,3.564
				C240.3,161.559,234.008,177.293,234.897,178.69z"/>
			<path style="fill:#407BFF;" d="M257.639,291.524c0,0-4.511,0.717-7.718-10.914c-3.216-11.665-5.785-20.817-5.785-20.817
				l1.377-54.212l22.184-50.613l7.232,4.469l9.928,2.765l-9.928,60.589c0,0,14.418,59.65,14.117,60.453
				C288.746,284.047,257.639,291.524,257.639,291.524z"/>
			<path style="opacity:0.3;" d="M245.514,205.581l-0.119,4.7l0.439,1.354c0,0,23.547-28.455,24.146-30.903
				c0.599-2.447-1.747-2.937-1.747-2.937s3.815-2.121,4.304-3.916c0.49-1.795,2.392-14.442,2.392-14.442l-7.232-4.469
				L245.514,205.581z"/>
			<g>
				<g>
					<path style="fill:#263238;" d="M244.511,259.793c-0.36-18.596-0.244-37.233,1.697-55.75c0.05-0.48-0.7-0.476-0.75,0
						c-1.941,18.516-2.057,37.153-1.697,55.75C243.771,260.275,244.521,260.276,244.511,259.793L244.511,259.793z"/>
				</g>
			</g>
			<g>
				<path style="fill:#407BFF;" d="M237.935,232.856v-9.904c1.545-0.315,36.476-6,36.476-6l1.523-14.87l8.923-39.881
					c0,0,10.914,3.37,10.914,14.243c0,3.714-1.961,56.508-6.719,59.223C285.382,237.76,240.03,233.114,237.935,232.856z"/>
				<path style="fill:#FDBBB5;" d="M257.531,209.828c0,0,3.855-0.583,8.022,0c4.167,0.583,9.376,2.065,9.376,2.065l-0.518,5.059
					l-12.571,2.228c0,0-3.208,0.211-4.309,0.677V209.828z"/>
				<g>
					<g>
						<path style="fill:#263238;" d="M278.493,184.314c-1.104,9.057-2.532,18.077-3.786,27.114
							c-0.251,1.807-0.506,3.614-0.726,5.425c0.092-0.12,0.184-0.241,0.275-0.362c-10.979,1.785-21.958,3.57-32.937,5.355
							c-1.528,0.248-3.057,0.497-4.585,0.745c-0.475,0.077-0.273,0.8,0.199,0.723c10.979-1.785,21.958-3.57,32.937-5.355
							c1.528-0.248,3.057-0.497,4.585-0.745c0.175-0.029,0.257-0.209,0.275-0.362c1.104-9.057,2.532-18.077,3.786-27.114
							c0.251-1.807,0.506-3.614,0.726-5.425C279.301,183.836,278.551,183.84,278.493,184.314L278.493,184.314z"/>
					</g>
				</g>
			</g>
			<path style="opacity:0.3;" d="M220.713,231.652l39.209-7.091c0,0-1.854,2.719-5.429,3.961
				c-3.575,1.242-33.972,8.616-33.972,8.616L220.713,231.652z"/>
			<path style="opacity:0.3;" d="M237.935,232.856l40.222,3.351l1.402,5.847c0,0-10.152-1.786-20.461-3.858
				C249.45,236.257,239.664,234.067,237.935,232.856z"/>
			<path style="fill:#407BFF;" d="M222.832,166.654c0,0-14.132,17.643-19.664,49.783c-1.355,7.871-0.381,13.294,5.995,15.588
				c7.527,2.709,50.759-7.464,50.759-7.464l-1.52-16.148L224.48,211.5l-2.703-2.488l2.403-15.239
				C224.18,193.773,223.319,165.077,222.832,166.654z"/>
			<g>
				<g>
					<path style="fill:#263238;" d="M222.255,209.271c0.9-10.194,1.801-20.387,2.702-30.581c0.042-0.481-0.708-0.478-0.75,0
						c-0.901,10.194-1.801,20.387-2.702,30.581C221.462,209.752,222.212,209.749,222.255,209.271L222.255,209.271z"/>
				</g>
			</g>
			<g style="opacity:0.3;">
				<path d="M220.807,210.988c-2.783,2.119-5.167,4.758-6.992,7.742c-0.13,0.212-0.229,0.542-0.011,0.66
					c0.166,0.09,0.36-0.044,0.501-0.169c1.545-1.38,3.089-2.76,4.634-4.139c-1.298,1.949-1.915,4.342-1.72,6.676
					c2.241-3.232,4.215-6.649,5.898-10.204c-0.757-0.276-1.514-0.553-2.271-0.829"/>
			</g>
			<path style="fill:#FDBBB5;" d="M220.639,194.848c0.234,0.122,7.004,3.065,8.069,5.182c1.065,2.117,3.7,10.909,3.7,10.909
				l-7.083,0.87c0,0-4.503-0.317-6.25-1.447c-1.747-1.13-4.949-3.014-4.949-4.371c0-1.357,1.237-1.055,2.402-0.377
				c1.165,0.678,3.886,1.314,3.886,1.314s-0.794-0.454-2.722-1.645c-1.701-1.051-5.25-2.216-5.104-3.346
				c0.145-1.13,0.521-0.996,3.068-0.543c2.547,0.452,5.823,1.779,5.823,1.779s-4.804-2.471-7.133-3.143
				c-2.329-0.671-1.019-3.233,2.475-2.48c3.494,0.754,6.696,2.48,6.696,2.48s0.52-0.822-1.159-1.425
				c-1.679-0.603-3.133-1.659-3.644-2.638C218.429,195.43,219.506,194.258,220.639,194.848z"/>
			<polygon style="opacity:0.3;" points="259.247,251.391 277.288,247.852 280.256,253.218 261.874,257.1 			"/>
			<polygon style="opacity:0.3;" points="232.384,250.406 218.068,247.597 216.476,253.31 229.758,256.115 			"/>
		</g>
		<g>
			<polygon style="fill:#263238;" points="272.293,442.997 258.934,442.194 262.807,463.952 271.464,465.733 			"/>
			<path style="fill:#263238;" d="M260.862,460.02l3.303-0.018c0.747-0.004,1.453,0.353,1.917,0.926
				c2.002,2.471,3.396,1.526,5.376-0.818c1.311-0.153,1.722,1.286,1.845,1.673l2.805,8.553c0.242,0.714-0.162,1.462-0.904,1.671
				c-0.132,0.037-0.27,0.055-0.408,0.054c-4.011,0.021-5.908,0.031-10.9,0.058l-15.266,0.081c-4.162,0.022-5.181-3.974-3.481-4.353
				c7.645-1.666,13.019-3.858,15.317-6.01C260.892,461.46,260.427,461.182,260.862,460.02z"/>
			<path style="fill:#407BFF;" d="M256.052,462.965c1.042-0.029,2.074-0.162,3.079-0.397c0.094-0.033,0.139-0.133,0.102-0.224
				c-0.02-0.049-0.062-0.087-0.115-0.105c-0.472-0.213-4.673-2.032-5.681-1.328c-0.189,0.122-0.286,0.338-0.248,0.557
				c0.021,0.408,0.244,0.789,0.601,1.025C254.48,462.875,255.273,463.04,256.052,462.965z M258.476,462.335
				c-1.21,0.222-3.463,0.522-4.427-0.141c-0.25-0.181-0.41-0.454-0.439-0.749c-0.023-0.092,0.016-0.187,0.099-0.237
				C254.265,460.825,256.733,461.625,258.476,462.335z"/>
			<path style="fill:#407BFF;" d="M259.089,462.579c0.043,0.012,0.088,0.011,0.129-0.001c0.053-0.046,0.072-0.119,0.047-0.185
				c-0.007-0.164-1.129-4.036-3.383-3.777c-0.558,0.075-0.71,0.333-0.723,0.549c-0.1,1.029,2.574,2.959,3.834,3.446L259.089,462.579
				z M256.12,458.922c1.434-0.008,2.353,2.251,2.669,3.154c-1.374-0.671-3.324-2.276-3.23-2.904
				c-0.002-0.051-0.008-0.195,0.411-0.239L256.12,458.922z"/>
			<path style="fill:none;stroke:#407BFF;stroke-width:0.5;stroke-linecap:round;stroke-linejoin:round;stroke-miterlimit:10;" d="
				M258.665,462.463c1.143,0.142,2.224,0.785,2.872,1.708"/>
			<path style="fill:none;stroke:#407BFF;stroke-width:0.5;stroke-linecap:round;stroke-linejoin:round;stroke-miterlimit:10;" d="
				M256.67,463.948c1.143,0.142,2.224,0.785,2.872,1.708"/>
			<path style="fill:none;stroke:#407BFF;stroke-width:0.5;stroke-linecap:round;stroke-linejoin:round;stroke-miterlimit:10;" d="
				M254.165,465.2c1.143,0.142,2.224,0.785,2.872,1.708"/>
		</g>
	</g>
</g>
</svg>
